<mxfile host="app.diagrams.net" agent="Mozilla/5.0 (X11; Linux x86_64) AppleWebKit/537.36 (KHTML, like Gecko) Chrome/135.0.0.0 Safari/537.36" version="26.2.13">
  <diagram name="Page-1" id="79ASWJVpfwQT944X2djE">
    <mxGraphModel dx="1372" dy="879" grid="1" gridSize="10" guides="1" tooltips="1" connect="1" arrows="1" fold="1" page="1" pageScale="1" pageWidth="850" pageHeight="1100" math="0" shadow="0">
      <root>
        <mxCell id="0" />
        <mxCell id="1" parent="0" />
        <mxCell id="Wti6Zjn5eSG-TVBrPJZ1-40" value="Iteration 1" style="whiteSpace=wrap;html=1;fontStyle=1;flipV=0;flipH=1;rotation=0;fontSize=16;strokeColor=#314354;fillColor=#000000;fontColor=#ffffff;" parent="1" vertex="1">
          <mxGeometry x="745" y="732" width="86.3" height="20" as="geometry" />
        </mxCell>
        <mxCell id="Wti6Zjn5eSG-TVBrPJZ1-97" value="Edge" style="whiteSpace=wrap;html=1;fontStyle=0;strokeColor=none;flipV=0;flipH=1;rotation=0;fillColor=none;fontSize=16;" parent="1" vertex="1">
          <mxGeometry x="945" y="750" width="50" height="20" as="geometry" />
        </mxCell>
        <mxCell id="Wti6Zjn5eSG-TVBrPJZ1-98" value="TC" style="whiteSpace=wrap;html=1;fontStyle=0;strokeColor=none;flipV=0;flipH=1;rotation=0;fillColor=none;fontSize=16;" parent="1" vertex="1">
          <mxGeometry x="1038" y="738" width="50" height="20" as="geometry" />
        </mxCell>
        <mxCell id="Wti6Zjn5eSG-TVBrPJZ1-99" value="(Delta, Full)" style="whiteSpace=wrap;html=1;fontStyle=0;strokeColor=none;flipV=0;flipH=1;rotation=0;fillColor=none;fontSize=13;" parent="1" vertex="1">
          <mxGeometry x="1024" y="752" width="80" height="20" as="geometry" />
        </mxCell>
        <mxCell id="Wti6Zjn5eSG-TVBrPJZ1-100" value="" style="shape=table;startSize=0;container=1;collapsible=0;childLayout=tableLayout;fontSize=16;" parent="1" vertex="1">
          <mxGeometry x="940" y="772" width="60" height="158" as="geometry" />
        </mxCell>
        <mxCell id="Wti6Zjn5eSG-TVBrPJZ1-331" style="shape=tableRow;horizontal=0;startSize=0;swimlaneHead=0;swimlaneBody=0;strokeColor=inherit;top=0;left=0;bottom=0;right=0;collapsible=0;dropTarget=0;fillColor=none;points=[[0,0.5],[1,0.5]];portConstraint=eastwest;fontSize=16;" parent="Wti6Zjn5eSG-TVBrPJZ1-100" vertex="1">
          <mxGeometry width="60" height="26" as="geometry" />
        </mxCell>
        <mxCell id="Wti6Zjn5eSG-TVBrPJZ1-332" value="x" style="shape=partialRectangle;html=1;whiteSpace=wrap;connectable=0;strokeColor=#314354;overflow=hidden;fillColor=#647687;top=0;left=0;bottom=0;right=0;pointerEvents=1;fontSize=16;fontStyle=1;fontColor=#ffffff;" parent="Wti6Zjn5eSG-TVBrPJZ1-331" vertex="1">
          <mxGeometry width="30" height="26" as="geometry">
            <mxRectangle width="30" height="26" as="alternateBounds" />
          </mxGeometry>
        </mxCell>
        <mxCell id="Wti6Zjn5eSG-TVBrPJZ1-333" value="y" style="shape=partialRectangle;html=1;whiteSpace=wrap;connectable=0;strokeColor=#314354;overflow=hidden;fillColor=#647687;top=0;left=0;bottom=0;right=0;pointerEvents=1;fontSize=16;fontStyle=1;fontColor=#ffffff;" parent="Wti6Zjn5eSG-TVBrPJZ1-331" vertex="1">
          <mxGeometry x="30" width="30" height="26" as="geometry">
            <mxRectangle width="30" height="26" as="alternateBounds" />
          </mxGeometry>
        </mxCell>
        <mxCell id="Wti6Zjn5eSG-TVBrPJZ1-101" style="shape=tableRow;horizontal=0;startSize=0;swimlaneHead=0;swimlaneBody=0;strokeColor=inherit;top=0;left=0;bottom=0;right=0;collapsible=0;dropTarget=0;fillColor=none;points=[[0,0.5],[1,0.5]];portConstraint=eastwest;fontSize=16;" parent="Wti6Zjn5eSG-TVBrPJZ1-100" vertex="1">
          <mxGeometry y="26" width="60" height="26" as="geometry" />
        </mxCell>
        <mxCell id="Wti6Zjn5eSG-TVBrPJZ1-102" value="1" style="shape=partialRectangle;html=1;whiteSpace=wrap;connectable=0;strokeColor=inherit;overflow=hidden;fillColor=none;top=0;left=0;bottom=0;right=0;pointerEvents=1;fontSize=16;" parent="Wti6Zjn5eSG-TVBrPJZ1-101" vertex="1">
          <mxGeometry width="30" height="26" as="geometry">
            <mxRectangle width="30" height="26" as="alternateBounds" />
          </mxGeometry>
        </mxCell>
        <mxCell id="Wti6Zjn5eSG-TVBrPJZ1-103" value="2" style="shape=partialRectangle;html=1;whiteSpace=wrap;connectable=0;strokeColor=inherit;overflow=hidden;fillColor=none;top=0;left=0;bottom=0;right=0;pointerEvents=1;fontSize=16;" parent="Wti6Zjn5eSG-TVBrPJZ1-101" vertex="1">
          <mxGeometry x="30" width="30" height="26" as="geometry">
            <mxRectangle width="30" height="26" as="alternateBounds" />
          </mxGeometry>
        </mxCell>
        <mxCell id="Wti6Zjn5eSG-TVBrPJZ1-104" style="shape=tableRow;horizontal=0;startSize=0;swimlaneHead=0;swimlaneBody=0;strokeColor=inherit;top=0;left=0;bottom=0;right=0;collapsible=0;dropTarget=0;fillColor=none;points=[[0,0.5],[1,0.5]];portConstraint=eastwest;fontSize=16;" parent="Wti6Zjn5eSG-TVBrPJZ1-100" vertex="1">
          <mxGeometry y="52" width="60" height="28" as="geometry" />
        </mxCell>
        <mxCell id="Wti6Zjn5eSG-TVBrPJZ1-105" value="2" style="shape=partialRectangle;html=1;whiteSpace=wrap;connectable=0;strokeColor=inherit;overflow=hidden;fillColor=none;top=0;left=0;bottom=0;right=0;pointerEvents=1;fontSize=16;" parent="Wti6Zjn5eSG-TVBrPJZ1-104" vertex="1">
          <mxGeometry width="30" height="28" as="geometry">
            <mxRectangle width="30" height="28" as="alternateBounds" />
          </mxGeometry>
        </mxCell>
        <mxCell id="Wti6Zjn5eSG-TVBrPJZ1-106" value="3" style="shape=partialRectangle;html=1;whiteSpace=wrap;connectable=0;strokeColor=inherit;overflow=hidden;fillColor=none;top=0;left=0;bottom=0;right=0;pointerEvents=1;fontSize=16;" parent="Wti6Zjn5eSG-TVBrPJZ1-104" vertex="1">
          <mxGeometry x="30" width="30" height="28" as="geometry">
            <mxRectangle width="30" height="28" as="alternateBounds" />
          </mxGeometry>
        </mxCell>
        <mxCell id="Wti6Zjn5eSG-TVBrPJZ1-107" style="shape=tableRow;horizontal=0;startSize=0;swimlaneHead=0;swimlaneBody=0;strokeColor=inherit;top=0;left=0;bottom=0;right=0;collapsible=0;dropTarget=0;fillColor=none;points=[[0,0.5],[1,0.5]];portConstraint=eastwest;fontSize=16;" parent="Wti6Zjn5eSG-TVBrPJZ1-100" vertex="1">
          <mxGeometry y="80" width="60" height="26" as="geometry" />
        </mxCell>
        <mxCell id="Wti6Zjn5eSG-TVBrPJZ1-108" value="2" style="shape=partialRectangle;html=1;whiteSpace=wrap;connectable=0;strokeColor=inherit;overflow=hidden;fillColor=none;top=0;left=0;bottom=0;right=0;pointerEvents=1;fontSize=16;" parent="Wti6Zjn5eSG-TVBrPJZ1-107" vertex="1">
          <mxGeometry width="30" height="26" as="geometry">
            <mxRectangle width="30" height="26" as="alternateBounds" />
          </mxGeometry>
        </mxCell>
        <mxCell id="Wti6Zjn5eSG-TVBrPJZ1-109" value="4" style="shape=partialRectangle;html=1;whiteSpace=wrap;connectable=0;strokeColor=inherit;overflow=hidden;fillColor=none;top=0;left=0;bottom=0;right=0;pointerEvents=1;fontSize=16;" parent="Wti6Zjn5eSG-TVBrPJZ1-107" vertex="1">
          <mxGeometry x="30" width="30" height="26" as="geometry">
            <mxRectangle width="30" height="26" as="alternateBounds" />
          </mxGeometry>
        </mxCell>
        <mxCell id="Wti6Zjn5eSG-TVBrPJZ1-110" value="" style="shape=tableRow;horizontal=0;startSize=0;swimlaneHead=0;swimlaneBody=0;strokeColor=inherit;top=0;left=0;bottom=0;right=0;collapsible=0;dropTarget=0;fillColor=none;points=[[0,0.5],[1,0.5]];portConstraint=eastwest;fontSize=16;" parent="Wti6Zjn5eSG-TVBrPJZ1-100" vertex="1">
          <mxGeometry y="106" width="60" height="26" as="geometry" />
        </mxCell>
        <mxCell id="Wti6Zjn5eSG-TVBrPJZ1-111" value="4" style="shape=partialRectangle;html=1;whiteSpace=wrap;connectable=0;strokeColor=inherit;overflow=hidden;fillColor=none;top=0;left=0;bottom=0;right=0;pointerEvents=1;fontSize=16;" parent="Wti6Zjn5eSG-TVBrPJZ1-110" vertex="1">
          <mxGeometry width="30" height="26" as="geometry">
            <mxRectangle width="30" height="26" as="alternateBounds" />
          </mxGeometry>
        </mxCell>
        <mxCell id="Wti6Zjn5eSG-TVBrPJZ1-112" value="5" style="shape=partialRectangle;html=1;whiteSpace=wrap;connectable=0;strokeColor=inherit;overflow=hidden;fillColor=none;top=0;left=0;bottom=0;right=0;pointerEvents=1;fontSize=16;" parent="Wti6Zjn5eSG-TVBrPJZ1-110" vertex="1">
          <mxGeometry x="30" width="30" height="26" as="geometry">
            <mxRectangle width="30" height="26" as="alternateBounds" />
          </mxGeometry>
        </mxCell>
        <mxCell id="Wti6Zjn5eSG-TVBrPJZ1-113" value="" style="shape=tableRow;horizontal=0;startSize=0;swimlaneHead=0;swimlaneBody=0;strokeColor=inherit;top=0;left=0;bottom=0;right=0;collapsible=0;dropTarget=0;fillColor=none;points=[[0,0.5],[1,0.5]];portConstraint=eastwest;fontSize=16;" parent="Wti6Zjn5eSG-TVBrPJZ1-100" vertex="1">
          <mxGeometry y="132" width="60" height="26" as="geometry" />
        </mxCell>
        <mxCell id="Wti6Zjn5eSG-TVBrPJZ1-114" value="4" style="shape=partialRectangle;html=1;whiteSpace=wrap;connectable=0;strokeColor=inherit;overflow=hidden;fillColor=none;top=0;left=0;bottom=0;right=0;pointerEvents=1;fontSize=16;" parent="Wti6Zjn5eSG-TVBrPJZ1-113" vertex="1">
          <mxGeometry width="30" height="26" as="geometry">
            <mxRectangle width="30" height="26" as="alternateBounds" />
          </mxGeometry>
        </mxCell>
        <mxCell id="Wti6Zjn5eSG-TVBrPJZ1-115" value="6" style="shape=partialRectangle;html=1;whiteSpace=wrap;connectable=0;strokeColor=inherit;overflow=hidden;fillColor=none;top=0;left=0;bottom=0;right=0;pointerEvents=1;fontSize=16;" parent="Wti6Zjn5eSG-TVBrPJZ1-113" vertex="1">
          <mxGeometry x="30" width="30" height="26" as="geometry">
            <mxRectangle width="30" height="26" as="alternateBounds" />
          </mxGeometry>
        </mxCell>
        <mxCell id="Wti6Zjn5eSG-TVBrPJZ1-297" value="Empty&lt;div&gt;&lt;span style=&quot;font-size: 16px;&quot;&gt;TC&lt;/span&gt;&lt;span style=&quot;font-size: 11.1111px;&quot;&gt;New&lt;/span&gt;&lt;/div&gt;" style="rounded=1;whiteSpace=wrap;html=1;" parent="1" vertex="1">
          <mxGeometry x="962.5" y="1407" width="57" height="40" as="geometry" />
        </mxCell>
        <mxCell id="Wti6Zjn5eSG-TVBrPJZ1-300" style="edgeStyle=orthogonalEdgeStyle;rounded=0;orthogonalLoop=1;jettySize=auto;html=1;entryX=0;entryY=0.5;entryDx=0;entryDy=0;strokeWidth=2;" parent="1" source="Wti6Zjn5eSG-TVBrPJZ1-301" target="Wti6Zjn5eSG-TVBrPJZ1-303" edge="1">
          <mxGeometry relative="1" as="geometry" />
        </mxCell>
        <mxCell id="Wti6Zjn5eSG-TVBrPJZ1-301" value="1" style="ellipse;whiteSpace=wrap;html=1;aspect=fixed;fontSize=20;" parent="1" vertex="1">
          <mxGeometry x="774" y="782" width="25" height="25" as="geometry" />
        </mxCell>
        <mxCell id="Wti6Zjn5eSG-TVBrPJZ1-302" style="edgeStyle=orthogonalEdgeStyle;rounded=0;orthogonalLoop=1;jettySize=auto;html=1;exitX=1;exitY=0.5;exitDx=0;exitDy=0;entryX=0;entryY=0.5;entryDx=0;entryDy=0;strokeWidth=2;" parent="1" source="Wti6Zjn5eSG-TVBrPJZ1-303" target="Wti6Zjn5eSG-TVBrPJZ1-304" edge="1">
          <mxGeometry relative="1" as="geometry" />
        </mxCell>
        <mxCell id="Wti6Zjn5eSG-TVBrPJZ1-354" style="edgeStyle=orthogonalEdgeStyle;rounded=0;orthogonalLoop=1;jettySize=auto;html=1;strokeWidth=2;" parent="1" source="Wti6Zjn5eSG-TVBrPJZ1-303" edge="1">
          <mxGeometry relative="1" as="geometry">
            <mxPoint x="840.5" y="831" as="targetPoint" />
          </mxGeometry>
        </mxCell>
        <mxCell id="Wti6Zjn5eSG-TVBrPJZ1-303" value="2" style="ellipse;whiteSpace=wrap;html=1;aspect=fixed;fontSize=20;" parent="1" vertex="1">
          <mxGeometry x="828" y="782" width="25" height="25" as="geometry" />
        </mxCell>
        <mxCell id="Wti6Zjn5eSG-TVBrPJZ1-304" value="3" style="ellipse;whiteSpace=wrap;html=1;aspect=fixed;fontSize=20;" parent="1" vertex="1">
          <mxGeometry x="880.5" y="782" width="25" height="25" as="geometry" />
        </mxCell>
        <mxCell id="Wti6Zjn5eSG-TVBrPJZ1-305" style="rounded=0;orthogonalLoop=1;jettySize=auto;html=1;strokeWidth=2;" parent="1" source="Wti6Zjn5eSG-TVBrPJZ1-307" target="Wti6Zjn5eSG-TVBrPJZ1-308" edge="1">
          <mxGeometry relative="1" as="geometry" />
        </mxCell>
        <mxCell id="Wti6Zjn5eSG-TVBrPJZ1-306" style="rounded=0;orthogonalLoop=1;jettySize=auto;html=1;exitX=1;exitY=1;exitDx=0;exitDy=0;entryX=0;entryY=0;entryDx=0;entryDy=0;strokeWidth=2;" parent="1" source="Wti6Zjn5eSG-TVBrPJZ1-307" target="Wti6Zjn5eSG-TVBrPJZ1-309" edge="1">
          <mxGeometry relative="1" as="geometry" />
        </mxCell>
        <mxCell id="Wti6Zjn5eSG-TVBrPJZ1-307" value="4" style="ellipse;whiteSpace=wrap;html=1;aspect=fixed;fontSize=20;" parent="1" vertex="1">
          <mxGeometry x="828" y="832" width="25" height="25" as="geometry" />
        </mxCell>
        <mxCell id="Wti6Zjn5eSG-TVBrPJZ1-308" value="5" style="ellipse;whiteSpace=wrap;html=1;aspect=fixed;fontSize=20;" parent="1" vertex="1">
          <mxGeometry x="786.5" y="874.17" width="25" height="25" as="geometry" />
        </mxCell>
        <mxCell id="Wti6Zjn5eSG-TVBrPJZ1-309" value="6" style="ellipse;whiteSpace=wrap;html=1;aspect=fixed;fontSize=20;" parent="1" vertex="1">
          <mxGeometry x="872.88" y="874.17" width="25" height="25" as="geometry" />
        </mxCell>
        <mxCell id="Wti6Zjn5eSG-TVBrPJZ1-311" value="Edge" style="whiteSpace=wrap;html=1;fontStyle=1;strokeColor=none;flipV=0;flipH=1;rotation=0;fillColor=none;fontSize=16;" parent="1" vertex="1">
          <mxGeometry x="780.5" y="901.03" width="120" height="20" as="geometry" />
        </mxCell>
        <mxCell id="Wti6Zjn5eSG-TVBrPJZ1-334" value="" style="shape=table;startSize=0;container=1;collapsible=0;childLayout=tableLayout;fontSize=16;" parent="1" vertex="1">
          <mxGeometry x="1032.13" y="772" width="60" height="158" as="geometry" />
        </mxCell>
        <mxCell id="Wti6Zjn5eSG-TVBrPJZ1-335" style="shape=tableRow;horizontal=0;startSize=0;swimlaneHead=0;swimlaneBody=0;strokeColor=inherit;top=0;left=0;bottom=0;right=0;collapsible=0;dropTarget=0;fillColor=none;points=[[0,0.5],[1,0.5]];portConstraint=eastwest;fontSize=16;" parent="Wti6Zjn5eSG-TVBrPJZ1-334" vertex="1">
          <mxGeometry width="60" height="26" as="geometry" />
        </mxCell>
        <mxCell id="Wti6Zjn5eSG-TVBrPJZ1-336" value="x" style="shape=partialRectangle;html=1;whiteSpace=wrap;connectable=0;strokeColor=#314354;overflow=hidden;fillColor=#647687;top=0;left=0;bottom=0;right=0;pointerEvents=1;fontSize=16;fontStyle=1;fontColor=#ffffff;" parent="Wti6Zjn5eSG-TVBrPJZ1-335" vertex="1">
          <mxGeometry width="30" height="26" as="geometry">
            <mxRectangle width="30" height="26" as="alternateBounds" />
          </mxGeometry>
        </mxCell>
        <mxCell id="Wti6Zjn5eSG-TVBrPJZ1-337" value="y" style="shape=partialRectangle;html=1;whiteSpace=wrap;connectable=0;strokeColor=#314354;overflow=hidden;fillColor=#647687;top=0;left=0;bottom=0;right=0;pointerEvents=1;fontSize=16;fontStyle=1;fontColor=#ffffff;" parent="Wti6Zjn5eSG-TVBrPJZ1-335" vertex="1">
          <mxGeometry x="30" width="30" height="26" as="geometry">
            <mxRectangle width="30" height="26" as="alternateBounds" />
          </mxGeometry>
        </mxCell>
        <mxCell id="Wti6Zjn5eSG-TVBrPJZ1-338" style="shape=tableRow;horizontal=0;startSize=0;swimlaneHead=0;swimlaneBody=0;strokeColor=inherit;top=0;left=0;bottom=0;right=0;collapsible=0;dropTarget=0;fillColor=none;points=[[0,0.5],[1,0.5]];portConstraint=eastwest;fontSize=16;" parent="Wti6Zjn5eSG-TVBrPJZ1-334" vertex="1">
          <mxGeometry y="26" width="60" height="26" as="geometry" />
        </mxCell>
        <mxCell id="Wti6Zjn5eSG-TVBrPJZ1-339" value="1" style="shape=partialRectangle;html=1;whiteSpace=wrap;connectable=0;strokeColor=inherit;overflow=hidden;fillColor=none;top=0;left=0;bottom=0;right=0;pointerEvents=1;fontSize=16;" parent="Wti6Zjn5eSG-TVBrPJZ1-338" vertex="1">
          <mxGeometry width="30" height="26" as="geometry">
            <mxRectangle width="30" height="26" as="alternateBounds" />
          </mxGeometry>
        </mxCell>
        <mxCell id="Wti6Zjn5eSG-TVBrPJZ1-340" value="2" style="shape=partialRectangle;html=1;whiteSpace=wrap;connectable=0;strokeColor=inherit;overflow=hidden;fillColor=none;top=0;left=0;bottom=0;right=0;pointerEvents=1;fontSize=16;" parent="Wti6Zjn5eSG-TVBrPJZ1-338" vertex="1">
          <mxGeometry x="30" width="30" height="26" as="geometry">
            <mxRectangle width="30" height="26" as="alternateBounds" />
          </mxGeometry>
        </mxCell>
        <mxCell id="Wti6Zjn5eSG-TVBrPJZ1-341" style="shape=tableRow;horizontal=0;startSize=0;swimlaneHead=0;swimlaneBody=0;strokeColor=inherit;top=0;left=0;bottom=0;right=0;collapsible=0;dropTarget=0;fillColor=none;points=[[0,0.5],[1,0.5]];portConstraint=eastwest;fontSize=16;" parent="Wti6Zjn5eSG-TVBrPJZ1-334" vertex="1">
          <mxGeometry y="52" width="60" height="28" as="geometry" />
        </mxCell>
        <mxCell id="Wti6Zjn5eSG-TVBrPJZ1-342" value="2" style="shape=partialRectangle;html=1;whiteSpace=wrap;connectable=0;strokeColor=inherit;overflow=hidden;fillColor=none;top=0;left=0;bottom=0;right=0;pointerEvents=1;fontSize=16;" parent="Wti6Zjn5eSG-TVBrPJZ1-341" vertex="1">
          <mxGeometry width="30" height="28" as="geometry">
            <mxRectangle width="30" height="28" as="alternateBounds" />
          </mxGeometry>
        </mxCell>
        <mxCell id="Wti6Zjn5eSG-TVBrPJZ1-343" value="3" style="shape=partialRectangle;html=1;whiteSpace=wrap;connectable=0;strokeColor=inherit;overflow=hidden;fillColor=none;top=0;left=0;bottom=0;right=0;pointerEvents=1;fontSize=16;" parent="Wti6Zjn5eSG-TVBrPJZ1-341" vertex="1">
          <mxGeometry x="30" width="30" height="28" as="geometry">
            <mxRectangle width="30" height="28" as="alternateBounds" />
          </mxGeometry>
        </mxCell>
        <mxCell id="Wti6Zjn5eSG-TVBrPJZ1-344" style="shape=tableRow;horizontal=0;startSize=0;swimlaneHead=0;swimlaneBody=0;strokeColor=inherit;top=0;left=0;bottom=0;right=0;collapsible=0;dropTarget=0;fillColor=none;points=[[0,0.5],[1,0.5]];portConstraint=eastwest;fontSize=16;" parent="Wti6Zjn5eSG-TVBrPJZ1-334" vertex="1">
          <mxGeometry y="80" width="60" height="26" as="geometry" />
        </mxCell>
        <mxCell id="Wti6Zjn5eSG-TVBrPJZ1-345" value="2" style="shape=partialRectangle;html=1;whiteSpace=wrap;connectable=0;strokeColor=inherit;overflow=hidden;fillColor=none;top=0;left=0;bottom=0;right=0;pointerEvents=1;fontSize=16;" parent="Wti6Zjn5eSG-TVBrPJZ1-344" vertex="1">
          <mxGeometry width="30" height="26" as="geometry">
            <mxRectangle width="30" height="26" as="alternateBounds" />
          </mxGeometry>
        </mxCell>
        <mxCell id="Wti6Zjn5eSG-TVBrPJZ1-346" value="4" style="shape=partialRectangle;html=1;whiteSpace=wrap;connectable=0;strokeColor=inherit;overflow=hidden;fillColor=none;top=0;left=0;bottom=0;right=0;pointerEvents=1;fontSize=16;" parent="Wti6Zjn5eSG-TVBrPJZ1-344" vertex="1">
          <mxGeometry x="30" width="30" height="26" as="geometry">
            <mxRectangle width="30" height="26" as="alternateBounds" />
          </mxGeometry>
        </mxCell>
        <mxCell id="Wti6Zjn5eSG-TVBrPJZ1-347" value="" style="shape=tableRow;horizontal=0;startSize=0;swimlaneHead=0;swimlaneBody=0;strokeColor=inherit;top=0;left=0;bottom=0;right=0;collapsible=0;dropTarget=0;fillColor=none;points=[[0,0.5],[1,0.5]];portConstraint=eastwest;fontSize=16;" parent="Wti6Zjn5eSG-TVBrPJZ1-334" vertex="1">
          <mxGeometry y="106" width="60" height="26" as="geometry" />
        </mxCell>
        <mxCell id="Wti6Zjn5eSG-TVBrPJZ1-348" value="4" style="shape=partialRectangle;html=1;whiteSpace=wrap;connectable=0;strokeColor=inherit;overflow=hidden;fillColor=none;top=0;left=0;bottom=0;right=0;pointerEvents=1;fontSize=16;" parent="Wti6Zjn5eSG-TVBrPJZ1-347" vertex="1">
          <mxGeometry width="30" height="26" as="geometry">
            <mxRectangle width="30" height="26" as="alternateBounds" />
          </mxGeometry>
        </mxCell>
        <mxCell id="Wti6Zjn5eSG-TVBrPJZ1-349" value="5" style="shape=partialRectangle;html=1;whiteSpace=wrap;connectable=0;strokeColor=inherit;overflow=hidden;fillColor=none;top=0;left=0;bottom=0;right=0;pointerEvents=1;fontSize=16;" parent="Wti6Zjn5eSG-TVBrPJZ1-347" vertex="1">
          <mxGeometry x="30" width="30" height="26" as="geometry">
            <mxRectangle width="30" height="26" as="alternateBounds" />
          </mxGeometry>
        </mxCell>
        <mxCell id="Wti6Zjn5eSG-TVBrPJZ1-350" value="" style="shape=tableRow;horizontal=0;startSize=0;swimlaneHead=0;swimlaneBody=0;strokeColor=inherit;top=0;left=0;bottom=0;right=0;collapsible=0;dropTarget=0;fillColor=none;points=[[0,0.5],[1,0.5]];portConstraint=eastwest;fontSize=16;" parent="Wti6Zjn5eSG-TVBrPJZ1-334" vertex="1">
          <mxGeometry y="132" width="60" height="26" as="geometry" />
        </mxCell>
        <mxCell id="Wti6Zjn5eSG-TVBrPJZ1-351" value="4" style="shape=partialRectangle;html=1;whiteSpace=wrap;connectable=0;strokeColor=inherit;overflow=hidden;fillColor=none;top=0;left=0;bottom=0;right=0;pointerEvents=1;fontSize=16;" parent="Wti6Zjn5eSG-TVBrPJZ1-350" vertex="1">
          <mxGeometry width="30" height="26" as="geometry">
            <mxRectangle width="30" height="26" as="alternateBounds" />
          </mxGeometry>
        </mxCell>
        <mxCell id="Wti6Zjn5eSG-TVBrPJZ1-352" value="6" style="shape=partialRectangle;html=1;whiteSpace=wrap;connectable=0;strokeColor=inherit;overflow=hidden;fillColor=none;top=0;left=0;bottom=0;right=0;pointerEvents=1;fontSize=16;" parent="Wti6Zjn5eSG-TVBrPJZ1-350" vertex="1">
          <mxGeometry x="30" width="30" height="26" as="geometry">
            <mxRectangle width="30" height="26" as="alternateBounds" />
          </mxGeometry>
        </mxCell>
        <mxCell id="Wti6Zjn5eSG-TVBrPJZ1-355" style="edgeStyle=orthogonalEdgeStyle;rounded=0;orthogonalLoop=1;jettySize=auto;html=1;entryX=0;entryY=0.5;entryDx=0;entryDy=0;strokeWidth=2;" parent="1" source="Wti6Zjn5eSG-TVBrPJZ1-356" target="Wti6Zjn5eSG-TVBrPJZ1-359" edge="1">
          <mxGeometry relative="1" as="geometry" />
        </mxCell>
        <mxCell id="Wti6Zjn5eSG-TVBrPJZ1-367" style="edgeStyle=orthogonalEdgeStyle;rounded=0;orthogonalLoop=1;jettySize=auto;html=1;entryX=0.5;entryY=0;entryDx=0;entryDy=0;curved=1;exitX=0.5;exitY=0;exitDx=0;exitDy=0;dashed=1;fillColor=#e51400;strokeColor=#B20000;strokeWidth=2;" parent="1" source="Wti6Zjn5eSG-TVBrPJZ1-356" target="Wti6Zjn5eSG-TVBrPJZ1-360" edge="1">
          <mxGeometry relative="1" as="geometry" />
        </mxCell>
        <mxCell id="Wti6Zjn5eSG-TVBrPJZ1-356" value="1" style="ellipse;whiteSpace=wrap;html=1;aspect=fixed;fontSize=20;" parent="1" vertex="1">
          <mxGeometry x="1154.13" y="784.97" width="25" height="25" as="geometry" />
        </mxCell>
        <mxCell id="Wti6Zjn5eSG-TVBrPJZ1-357" style="edgeStyle=orthogonalEdgeStyle;rounded=0;orthogonalLoop=1;jettySize=auto;html=1;exitX=1;exitY=0.5;exitDx=0;exitDy=0;entryX=0;entryY=0.5;entryDx=0;entryDy=0;strokeWidth=2;" parent="1" source="Wti6Zjn5eSG-TVBrPJZ1-359" target="Wti6Zjn5eSG-TVBrPJZ1-360" edge="1">
          <mxGeometry relative="1" as="geometry" />
        </mxCell>
        <mxCell id="Wti6Zjn5eSG-TVBrPJZ1-358" style="edgeStyle=orthogonalEdgeStyle;rounded=0;orthogonalLoop=1;jettySize=auto;html=1;strokeWidth=2;" parent="1" source="Wti6Zjn5eSG-TVBrPJZ1-359" edge="1">
          <mxGeometry relative="1" as="geometry">
            <mxPoint x="1220.63" y="833.97" as="targetPoint" />
          </mxGeometry>
        </mxCell>
        <mxCell id="Wti6Zjn5eSG-TVBrPJZ1-359" value="2" style="ellipse;whiteSpace=wrap;html=1;aspect=fixed;fontSize=20;" parent="1" vertex="1">
          <mxGeometry x="1208.13" y="784.97" width="25" height="25" as="geometry" />
        </mxCell>
        <mxCell id="Wti6Zjn5eSG-TVBrPJZ1-360" value="3" style="ellipse;whiteSpace=wrap;html=1;aspect=fixed;fontSize=20;" parent="1" vertex="1">
          <mxGeometry x="1260.63" y="784.97" width="25" height="25" as="geometry" />
        </mxCell>
        <mxCell id="Wti6Zjn5eSG-TVBrPJZ1-361" style="rounded=0;orthogonalLoop=1;jettySize=auto;html=1;strokeWidth=2;" parent="1" source="Wti6Zjn5eSG-TVBrPJZ1-363" target="Wti6Zjn5eSG-TVBrPJZ1-364" edge="1">
          <mxGeometry relative="1" as="geometry" />
        </mxCell>
        <mxCell id="Wti6Zjn5eSG-TVBrPJZ1-362" style="rounded=0;orthogonalLoop=1;jettySize=auto;html=1;exitX=1;exitY=1;exitDx=0;exitDy=0;entryX=0;entryY=0;entryDx=0;entryDy=0;strokeWidth=2;" parent="1" source="Wti6Zjn5eSG-TVBrPJZ1-363" target="Wti6Zjn5eSG-TVBrPJZ1-365" edge="1">
          <mxGeometry relative="1" as="geometry" />
        </mxCell>
        <mxCell id="Wti6Zjn5eSG-TVBrPJZ1-363" value="4" style="ellipse;whiteSpace=wrap;html=1;aspect=fixed;fontSize=20;" parent="1" vertex="1">
          <mxGeometry x="1208.13" y="834.97" width="25" height="25" as="geometry" />
        </mxCell>
        <mxCell id="Wti6Zjn5eSG-TVBrPJZ1-364" value="5" style="ellipse;whiteSpace=wrap;html=1;aspect=fixed;fontSize=20;" parent="1" vertex="1">
          <mxGeometry x="1166.63" y="877.14" width="25" height="25" as="geometry" />
        </mxCell>
        <mxCell id="Wti6Zjn5eSG-TVBrPJZ1-365" value="6" style="ellipse;whiteSpace=wrap;html=1;aspect=fixed;fontSize=20;" parent="1" vertex="1">
          <mxGeometry x="1253.0100000000002" y="877.14" width="25" height="25" as="geometry" />
        </mxCell>
        <mxCell id="Wti6Zjn5eSG-TVBrPJZ1-366" value="TC" style="whiteSpace=wrap;html=1;fontStyle=1;strokeColor=none;flipV=0;flipH=1;rotation=0;fillColor=none;fontSize=16;" parent="1" vertex="1">
          <mxGeometry x="1160.63" y="904" width="120" height="20" as="geometry" />
        </mxCell>
        <mxCell id="Wti6Zjn5eSG-TVBrPJZ1-368" style="edgeStyle=orthogonalEdgeStyle;rounded=0;orthogonalLoop=1;jettySize=auto;html=1;entryX=0;entryY=0.5;entryDx=0;entryDy=0;curved=1;exitX=0.5;exitY=1;exitDx=0;exitDy=0;dashed=1;fillColor=#e51400;strokeColor=#B20000;strokeWidth=2;" parent="1" source="Wti6Zjn5eSG-TVBrPJZ1-356" target="Wti6Zjn5eSG-TVBrPJZ1-363" edge="1">
          <mxGeometry relative="1" as="geometry">
            <mxPoint x="1176.63" y="794.49" as="sourcePoint" />
            <mxPoint x="1283.63" y="794.49" as="targetPoint" />
          </mxGeometry>
        </mxCell>
        <mxCell id="Wti6Zjn5eSG-TVBrPJZ1-369" style="edgeStyle=orthogonalEdgeStyle;rounded=0;orthogonalLoop=1;jettySize=auto;html=1;curved=1;exitX=0.5;exitY=1;exitDx=0;exitDy=0;dashed=1;fontColor=#B20000;strokeColor=#B20000;strokeWidth=2;" parent="1" source="Wti6Zjn5eSG-TVBrPJZ1-359" target="Wti6Zjn5eSG-TVBrPJZ1-364" edge="1">
          <mxGeometry relative="1" as="geometry">
            <mxPoint x="1176.63" y="819.49" as="sourcePoint" />
            <mxPoint x="1218.63" y="857.49" as="targetPoint" />
            <Array as="points">
              <mxPoint x="1179.63" y="810.49" />
            </Array>
          </mxGeometry>
        </mxCell>
        <mxCell id="Wti6Zjn5eSG-TVBrPJZ1-370" style="edgeStyle=orthogonalEdgeStyle;rounded=0;orthogonalLoop=1;jettySize=auto;html=1;curved=1;exitX=0.5;exitY=1;exitDx=0;exitDy=0;dashed=1;entryX=0.5;entryY=0;entryDx=0;entryDy=0;fontColor=#B20000;strokeColor=#B20000;strokeWidth=2;" parent="1" source="Wti6Zjn5eSG-TVBrPJZ1-359" target="Wti6Zjn5eSG-TVBrPJZ1-365" edge="1">
          <mxGeometry relative="1" as="geometry">
            <mxPoint x="1230.63" y="819.49" as="sourcePoint" />
            <mxPoint x="1189.63" y="887.49" as="targetPoint" />
            <Array as="points">
              <mxPoint x="1265.63" y="810.49" />
            </Array>
          </mxGeometry>
        </mxCell>
        <mxCell id="Wti6Zjn5eSG-TVBrPJZ1-371" style="edgeStyle=orthogonalEdgeStyle;rounded=0;orthogonalLoop=1;jettySize=auto;html=1;curved=1;dashed=1;entryX=0;entryY=0.5;entryDx=0;entryDy=0;fontColor=#006633;strokeColor=#006633;strokeWidth=2;" parent="1" target="Wti6Zjn5eSG-TVBrPJZ1-365" edge="1">
          <mxGeometry relative="1" as="geometry">
            <mxPoint x="1165.63" y="808.49" as="sourcePoint" />
            <mxPoint x="1218.63" y="857.49" as="targetPoint" />
            <Array as="points">
              <mxPoint x="1165.63" y="858.49" />
              <mxPoint x="1215.63" y="858.49" />
              <mxPoint x="1215.63" y="889.49" />
            </Array>
          </mxGeometry>
        </mxCell>
        <mxCell id="Wti6Zjn5eSG-TVBrPJZ1-372" style="edgeStyle=orthogonalEdgeStyle;rounded=0;orthogonalLoop=1;jettySize=auto;html=1;entryX=0;entryY=0.5;entryDx=0;entryDy=0;curved=1;dashed=1;exitX=0;exitY=0.5;exitDx=0;exitDy=0;fontColor=#006633;strokeColor=#006633;strokeWidth=2;" parent="1" source="Wti6Zjn5eSG-TVBrPJZ1-356" target="Wti6Zjn5eSG-TVBrPJZ1-364" edge="1">
          <mxGeometry relative="1" as="geometry">
            <mxPoint x="1165.63" y="818.49" as="sourcePoint" />
            <mxPoint x="1218.63" y="857.49" as="targetPoint" />
            <Array as="points">
              <mxPoint x="1154.13" y="800.99" />
              <mxPoint x="1144.13" y="800.99" />
              <mxPoint x="1144.13" y="889.99" />
            </Array>
          </mxGeometry>
        </mxCell>
        <mxCell id="Wti6Zjn5eSG-TVBrPJZ1-374" value="Edge" style="whiteSpace=wrap;html=1;fontStyle=0;strokeColor=none;flipV=0;flipH=1;rotation=0;fillColor=none;fontSize=16;" parent="1" vertex="1">
          <mxGeometry x="775" y="952" width="50" height="20" as="geometry" />
        </mxCell>
        <mxCell id="Wti6Zjn5eSG-TVBrPJZ1-375" value="TC" style="whiteSpace=wrap;html=1;fontStyle=0;strokeColor=none;flipV=0;flipH=1;rotation=0;fillColor=none;fontSize=16;" parent="1" vertex="1">
          <mxGeometry x="868" y="940" width="50" height="20" as="geometry" />
        </mxCell>
        <mxCell id="Wti6Zjn5eSG-TVBrPJZ1-376" value="Delta" style="whiteSpace=wrap;html=1;fontStyle=0;strokeColor=none;flipV=0;flipH=1;rotation=0;fillColor=none;fontSize=13;" parent="1" vertex="1">
          <mxGeometry x="854" y="954" width="80" height="20" as="geometry" />
        </mxCell>
        <mxCell id="Wti6Zjn5eSG-TVBrPJZ1-377" value="" style="shape=table;startSize=0;container=1;collapsible=0;childLayout=tableLayout;fontSize=16;" parent="1" vertex="1">
          <mxGeometry x="770" y="974" width="60" height="158" as="geometry" />
        </mxCell>
        <mxCell id="Wti6Zjn5eSG-TVBrPJZ1-378" style="shape=tableRow;horizontal=0;startSize=0;swimlaneHead=0;swimlaneBody=0;strokeColor=inherit;top=0;left=0;bottom=0;right=0;collapsible=0;dropTarget=0;fillColor=none;points=[[0,0.5],[1,0.5]];portConstraint=eastwest;fontSize=16;" parent="Wti6Zjn5eSG-TVBrPJZ1-377" vertex="1">
          <mxGeometry width="60" height="26" as="geometry" />
        </mxCell>
        <mxCell id="Wti6Zjn5eSG-TVBrPJZ1-379" value="x" style="shape=partialRectangle;html=1;whiteSpace=wrap;connectable=0;strokeColor=#314354;overflow=hidden;fillColor=#647687;top=0;left=0;bottom=0;right=0;pointerEvents=1;fontSize=16;fontStyle=1;fontColor=#ffffff;" parent="Wti6Zjn5eSG-TVBrPJZ1-378" vertex="1">
          <mxGeometry width="30" height="26" as="geometry">
            <mxRectangle width="30" height="26" as="alternateBounds" />
          </mxGeometry>
        </mxCell>
        <mxCell id="Wti6Zjn5eSG-TVBrPJZ1-380" value="z" style="shape=partialRectangle;html=1;whiteSpace=wrap;connectable=0;strokeColor=#314354;overflow=hidden;fillColor=#647687;top=0;left=0;bottom=0;right=0;pointerEvents=1;fontSize=16;fontStyle=1;fontColor=#ffffff;" parent="Wti6Zjn5eSG-TVBrPJZ1-378" vertex="1">
          <mxGeometry x="30" width="30" height="26" as="geometry">
            <mxRectangle width="30" height="26" as="alternateBounds" />
          </mxGeometry>
        </mxCell>
        <mxCell id="Wti6Zjn5eSG-TVBrPJZ1-381" style="shape=tableRow;horizontal=0;startSize=0;swimlaneHead=0;swimlaneBody=0;strokeColor=inherit;top=0;left=0;bottom=0;right=0;collapsible=0;dropTarget=0;fillColor=none;points=[[0,0.5],[1,0.5]];portConstraint=eastwest;fontSize=16;" parent="Wti6Zjn5eSG-TVBrPJZ1-377" vertex="1">
          <mxGeometry y="26" width="60" height="26" as="geometry" />
        </mxCell>
        <mxCell id="Wti6Zjn5eSG-TVBrPJZ1-382" value="1" style="shape=partialRectangle;html=1;whiteSpace=wrap;connectable=0;strokeColor=inherit;overflow=hidden;fillColor=none;top=0;left=0;bottom=0;right=0;pointerEvents=1;fontSize=16;" parent="Wti6Zjn5eSG-TVBrPJZ1-381" vertex="1">
          <mxGeometry width="30" height="26" as="geometry">
            <mxRectangle width="30" height="26" as="alternateBounds" />
          </mxGeometry>
        </mxCell>
        <mxCell id="Wti6Zjn5eSG-TVBrPJZ1-383" value="2" style="shape=partialRectangle;html=1;whiteSpace=wrap;connectable=0;strokeColor=inherit;overflow=hidden;fillColor=none;top=0;left=0;bottom=0;right=0;pointerEvents=1;fontSize=16;" parent="Wti6Zjn5eSG-TVBrPJZ1-381" vertex="1">
          <mxGeometry x="30" width="30" height="26" as="geometry">
            <mxRectangle width="30" height="26" as="alternateBounds" />
          </mxGeometry>
        </mxCell>
        <mxCell id="Wti6Zjn5eSG-TVBrPJZ1-384" style="shape=tableRow;horizontal=0;startSize=0;swimlaneHead=0;swimlaneBody=0;strokeColor=inherit;top=0;left=0;bottom=0;right=0;collapsible=0;dropTarget=0;fillColor=none;points=[[0,0.5],[1,0.5]];portConstraint=eastwest;fontSize=16;" parent="Wti6Zjn5eSG-TVBrPJZ1-377" vertex="1">
          <mxGeometry y="52" width="60" height="28" as="geometry" />
        </mxCell>
        <mxCell id="Wti6Zjn5eSG-TVBrPJZ1-385" value="2" style="shape=partialRectangle;html=1;whiteSpace=wrap;connectable=0;strokeColor=inherit;overflow=hidden;fillColor=none;top=0;left=0;bottom=0;right=0;pointerEvents=1;fontSize=16;" parent="Wti6Zjn5eSG-TVBrPJZ1-384" vertex="1">
          <mxGeometry width="30" height="28" as="geometry">
            <mxRectangle width="30" height="28" as="alternateBounds" />
          </mxGeometry>
        </mxCell>
        <mxCell id="Wti6Zjn5eSG-TVBrPJZ1-386" value="3" style="shape=partialRectangle;html=1;whiteSpace=wrap;connectable=0;strokeColor=inherit;overflow=hidden;fillColor=none;top=0;left=0;bottom=0;right=0;pointerEvents=1;fontSize=16;" parent="Wti6Zjn5eSG-TVBrPJZ1-384" vertex="1">
          <mxGeometry x="30" width="30" height="28" as="geometry">
            <mxRectangle width="30" height="28" as="alternateBounds" />
          </mxGeometry>
        </mxCell>
        <mxCell id="Wti6Zjn5eSG-TVBrPJZ1-387" style="shape=tableRow;horizontal=0;startSize=0;swimlaneHead=0;swimlaneBody=0;strokeColor=inherit;top=0;left=0;bottom=0;right=0;collapsible=0;dropTarget=0;fillColor=none;points=[[0,0.5],[1,0.5]];portConstraint=eastwest;fontSize=16;" parent="Wti6Zjn5eSG-TVBrPJZ1-377" vertex="1">
          <mxGeometry y="80" width="60" height="26" as="geometry" />
        </mxCell>
        <mxCell id="Wti6Zjn5eSG-TVBrPJZ1-388" value="2" style="shape=partialRectangle;html=1;whiteSpace=wrap;connectable=0;strokeColor=inherit;overflow=hidden;fillColor=none;top=0;left=0;bottom=0;right=0;pointerEvents=1;fontSize=16;" parent="Wti6Zjn5eSG-TVBrPJZ1-387" vertex="1">
          <mxGeometry width="30" height="26" as="geometry">
            <mxRectangle width="30" height="26" as="alternateBounds" />
          </mxGeometry>
        </mxCell>
        <mxCell id="Wti6Zjn5eSG-TVBrPJZ1-389" value="4" style="shape=partialRectangle;html=1;whiteSpace=wrap;connectable=0;strokeColor=inherit;overflow=hidden;fillColor=none;top=0;left=0;bottom=0;right=0;pointerEvents=1;fontSize=16;" parent="Wti6Zjn5eSG-TVBrPJZ1-387" vertex="1">
          <mxGeometry x="30" width="30" height="26" as="geometry">
            <mxRectangle width="30" height="26" as="alternateBounds" />
          </mxGeometry>
        </mxCell>
        <mxCell id="Wti6Zjn5eSG-TVBrPJZ1-390" value="" style="shape=tableRow;horizontal=0;startSize=0;swimlaneHead=0;swimlaneBody=0;strokeColor=inherit;top=0;left=0;bottom=0;right=0;collapsible=0;dropTarget=0;fillColor=none;points=[[0,0.5],[1,0.5]];portConstraint=eastwest;fontSize=16;" parent="Wti6Zjn5eSG-TVBrPJZ1-377" vertex="1">
          <mxGeometry y="106" width="60" height="26" as="geometry" />
        </mxCell>
        <mxCell id="Wti6Zjn5eSG-TVBrPJZ1-391" value="4" style="shape=partialRectangle;html=1;whiteSpace=wrap;connectable=0;strokeColor=inherit;overflow=hidden;fillColor=none;top=0;left=0;bottom=0;right=0;pointerEvents=1;fontSize=16;" parent="Wti6Zjn5eSG-TVBrPJZ1-390" vertex="1">
          <mxGeometry width="30" height="26" as="geometry">
            <mxRectangle width="30" height="26" as="alternateBounds" />
          </mxGeometry>
        </mxCell>
        <mxCell id="Wti6Zjn5eSG-TVBrPJZ1-392" value="5" style="shape=partialRectangle;html=1;whiteSpace=wrap;connectable=0;strokeColor=inherit;overflow=hidden;fillColor=none;top=0;left=0;bottom=0;right=0;pointerEvents=1;fontSize=16;" parent="Wti6Zjn5eSG-TVBrPJZ1-390" vertex="1">
          <mxGeometry x="30" width="30" height="26" as="geometry">
            <mxRectangle width="30" height="26" as="alternateBounds" />
          </mxGeometry>
        </mxCell>
        <mxCell id="Wti6Zjn5eSG-TVBrPJZ1-393" value="" style="shape=tableRow;horizontal=0;startSize=0;swimlaneHead=0;swimlaneBody=0;strokeColor=inherit;top=0;left=0;bottom=0;right=0;collapsible=0;dropTarget=0;fillColor=none;points=[[0,0.5],[1,0.5]];portConstraint=eastwest;fontSize=16;" parent="Wti6Zjn5eSG-TVBrPJZ1-377" vertex="1">
          <mxGeometry y="132" width="60" height="26" as="geometry" />
        </mxCell>
        <mxCell id="Wti6Zjn5eSG-TVBrPJZ1-394" value="4" style="shape=partialRectangle;html=1;whiteSpace=wrap;connectable=0;strokeColor=inherit;overflow=hidden;fillColor=none;top=0;left=0;bottom=0;right=0;pointerEvents=1;fontSize=16;" parent="Wti6Zjn5eSG-TVBrPJZ1-393" vertex="1">
          <mxGeometry width="30" height="26" as="geometry">
            <mxRectangle width="30" height="26" as="alternateBounds" />
          </mxGeometry>
        </mxCell>
        <mxCell id="Wti6Zjn5eSG-TVBrPJZ1-395" value="6" style="shape=partialRectangle;html=1;whiteSpace=wrap;connectable=0;strokeColor=inherit;overflow=hidden;fillColor=none;top=0;left=0;bottom=0;right=0;pointerEvents=1;fontSize=16;" parent="Wti6Zjn5eSG-TVBrPJZ1-393" vertex="1">
          <mxGeometry x="30" width="30" height="26" as="geometry">
            <mxRectangle width="30" height="26" as="alternateBounds" />
          </mxGeometry>
        </mxCell>
        <mxCell id="Wti6Zjn5eSG-TVBrPJZ1-396" value="" style="shape=table;startSize=0;container=1;collapsible=0;childLayout=tableLayout;fontSize=16;" parent="1" vertex="1">
          <mxGeometry x="862.1300000000001" y="974" width="60" height="158" as="geometry" />
        </mxCell>
        <mxCell id="Wti6Zjn5eSG-TVBrPJZ1-397" style="shape=tableRow;horizontal=0;startSize=0;swimlaneHead=0;swimlaneBody=0;strokeColor=inherit;top=0;left=0;bottom=0;right=0;collapsible=0;dropTarget=0;fillColor=none;points=[[0,0.5],[1,0.5]];portConstraint=eastwest;fontSize=16;" parent="Wti6Zjn5eSG-TVBrPJZ1-396" vertex="1">
          <mxGeometry width="60" height="26" as="geometry" />
        </mxCell>
        <mxCell id="Wti6Zjn5eSG-TVBrPJZ1-398" value="z" style="shape=partialRectangle;html=1;whiteSpace=wrap;connectable=0;strokeColor=#314354;overflow=hidden;fillColor=#647687;top=0;left=0;bottom=0;right=0;pointerEvents=1;fontSize=16;fontStyle=1;fontColor=#ffffff;" parent="Wti6Zjn5eSG-TVBrPJZ1-397" vertex="1">
          <mxGeometry width="30" height="26" as="geometry">
            <mxRectangle width="30" height="26" as="alternateBounds" />
          </mxGeometry>
        </mxCell>
        <mxCell id="Wti6Zjn5eSG-TVBrPJZ1-399" value="y" style="shape=partialRectangle;html=1;whiteSpace=wrap;connectable=0;strokeColor=#314354;overflow=hidden;fillColor=#647687;top=0;left=0;bottom=0;right=0;pointerEvents=1;fontSize=16;fontStyle=1;fontColor=#ffffff;" parent="Wti6Zjn5eSG-TVBrPJZ1-397" vertex="1">
          <mxGeometry x="30" width="30" height="26" as="geometry">
            <mxRectangle width="30" height="26" as="alternateBounds" />
          </mxGeometry>
        </mxCell>
        <mxCell id="Wti6Zjn5eSG-TVBrPJZ1-400" style="shape=tableRow;horizontal=0;startSize=0;swimlaneHead=0;swimlaneBody=0;strokeColor=inherit;top=0;left=0;bottom=0;right=0;collapsible=0;dropTarget=0;fillColor=none;points=[[0,0.5],[1,0.5]];portConstraint=eastwest;fontSize=16;" parent="Wti6Zjn5eSG-TVBrPJZ1-396" vertex="1">
          <mxGeometry y="26" width="60" height="26" as="geometry" />
        </mxCell>
        <mxCell id="Wti6Zjn5eSG-TVBrPJZ1-401" value="1" style="shape=partialRectangle;html=1;whiteSpace=wrap;connectable=0;strokeColor=inherit;overflow=hidden;fillColor=none;top=0;left=0;bottom=0;right=0;pointerEvents=1;fontSize=16;" parent="Wti6Zjn5eSG-TVBrPJZ1-400" vertex="1">
          <mxGeometry width="30" height="26" as="geometry">
            <mxRectangle width="30" height="26" as="alternateBounds" />
          </mxGeometry>
        </mxCell>
        <mxCell id="Wti6Zjn5eSG-TVBrPJZ1-402" value="2" style="shape=partialRectangle;html=1;whiteSpace=wrap;connectable=0;strokeColor=inherit;overflow=hidden;fillColor=none;top=0;left=0;bottom=0;right=0;pointerEvents=1;fontSize=16;" parent="Wti6Zjn5eSG-TVBrPJZ1-400" vertex="1">
          <mxGeometry x="30" width="30" height="26" as="geometry">
            <mxRectangle width="30" height="26" as="alternateBounds" />
          </mxGeometry>
        </mxCell>
        <mxCell id="Wti6Zjn5eSG-TVBrPJZ1-403" style="shape=tableRow;horizontal=0;startSize=0;swimlaneHead=0;swimlaneBody=0;strokeColor=inherit;top=0;left=0;bottom=0;right=0;collapsible=0;dropTarget=0;fillColor=none;points=[[0,0.5],[1,0.5]];portConstraint=eastwest;fontSize=16;" parent="Wti6Zjn5eSG-TVBrPJZ1-396" vertex="1">
          <mxGeometry y="52" width="60" height="28" as="geometry" />
        </mxCell>
        <mxCell id="Wti6Zjn5eSG-TVBrPJZ1-404" value="2" style="shape=partialRectangle;html=1;whiteSpace=wrap;connectable=0;strokeColor=inherit;overflow=hidden;fillColor=none;top=0;left=0;bottom=0;right=0;pointerEvents=1;fontSize=16;" parent="Wti6Zjn5eSG-TVBrPJZ1-403" vertex="1">
          <mxGeometry width="30" height="28" as="geometry">
            <mxRectangle width="30" height="28" as="alternateBounds" />
          </mxGeometry>
        </mxCell>
        <mxCell id="Wti6Zjn5eSG-TVBrPJZ1-405" value="3" style="shape=partialRectangle;html=1;whiteSpace=wrap;connectable=0;strokeColor=inherit;overflow=hidden;fillColor=none;top=0;left=0;bottom=0;right=0;pointerEvents=1;fontSize=16;" parent="Wti6Zjn5eSG-TVBrPJZ1-403" vertex="1">
          <mxGeometry x="30" width="30" height="28" as="geometry">
            <mxRectangle width="30" height="28" as="alternateBounds" />
          </mxGeometry>
        </mxCell>
        <mxCell id="Wti6Zjn5eSG-TVBrPJZ1-406" style="shape=tableRow;horizontal=0;startSize=0;swimlaneHead=0;swimlaneBody=0;strokeColor=inherit;top=0;left=0;bottom=0;right=0;collapsible=0;dropTarget=0;fillColor=none;points=[[0,0.5],[1,0.5]];portConstraint=eastwest;fontSize=16;" parent="Wti6Zjn5eSG-TVBrPJZ1-396" vertex="1">
          <mxGeometry y="80" width="60" height="26" as="geometry" />
        </mxCell>
        <mxCell id="Wti6Zjn5eSG-TVBrPJZ1-407" value="2" style="shape=partialRectangle;html=1;whiteSpace=wrap;connectable=0;strokeColor=inherit;overflow=hidden;fillColor=none;top=0;left=0;bottom=0;right=0;pointerEvents=1;fontSize=16;" parent="Wti6Zjn5eSG-TVBrPJZ1-406" vertex="1">
          <mxGeometry width="30" height="26" as="geometry">
            <mxRectangle width="30" height="26" as="alternateBounds" />
          </mxGeometry>
        </mxCell>
        <mxCell id="Wti6Zjn5eSG-TVBrPJZ1-408" value="4" style="shape=partialRectangle;html=1;whiteSpace=wrap;connectable=0;strokeColor=inherit;overflow=hidden;fillColor=none;top=0;left=0;bottom=0;right=0;pointerEvents=1;fontSize=16;" parent="Wti6Zjn5eSG-TVBrPJZ1-406" vertex="1">
          <mxGeometry x="30" width="30" height="26" as="geometry">
            <mxRectangle width="30" height="26" as="alternateBounds" />
          </mxGeometry>
        </mxCell>
        <mxCell id="Wti6Zjn5eSG-TVBrPJZ1-409" value="" style="shape=tableRow;horizontal=0;startSize=0;swimlaneHead=0;swimlaneBody=0;strokeColor=inherit;top=0;left=0;bottom=0;right=0;collapsible=0;dropTarget=0;fillColor=none;points=[[0,0.5],[1,0.5]];portConstraint=eastwest;fontSize=16;" parent="Wti6Zjn5eSG-TVBrPJZ1-396" vertex="1">
          <mxGeometry y="106" width="60" height="26" as="geometry" />
        </mxCell>
        <mxCell id="Wti6Zjn5eSG-TVBrPJZ1-410" value="4" style="shape=partialRectangle;html=1;whiteSpace=wrap;connectable=0;strokeColor=inherit;overflow=hidden;fillColor=none;top=0;left=0;bottom=0;right=0;pointerEvents=1;fontSize=16;" parent="Wti6Zjn5eSG-TVBrPJZ1-409" vertex="1">
          <mxGeometry width="30" height="26" as="geometry">
            <mxRectangle width="30" height="26" as="alternateBounds" />
          </mxGeometry>
        </mxCell>
        <mxCell id="Wti6Zjn5eSG-TVBrPJZ1-411" value="5" style="shape=partialRectangle;html=1;whiteSpace=wrap;connectable=0;strokeColor=inherit;overflow=hidden;fillColor=none;top=0;left=0;bottom=0;right=0;pointerEvents=1;fontSize=16;" parent="Wti6Zjn5eSG-TVBrPJZ1-409" vertex="1">
          <mxGeometry x="30" width="30" height="26" as="geometry">
            <mxRectangle width="30" height="26" as="alternateBounds" />
          </mxGeometry>
        </mxCell>
        <mxCell id="Wti6Zjn5eSG-TVBrPJZ1-412" value="" style="shape=tableRow;horizontal=0;startSize=0;swimlaneHead=0;swimlaneBody=0;strokeColor=inherit;top=0;left=0;bottom=0;right=0;collapsible=0;dropTarget=0;fillColor=none;points=[[0,0.5],[1,0.5]];portConstraint=eastwest;fontSize=16;" parent="Wti6Zjn5eSG-TVBrPJZ1-396" vertex="1">
          <mxGeometry y="132" width="60" height="26" as="geometry" />
        </mxCell>
        <mxCell id="Wti6Zjn5eSG-TVBrPJZ1-413" value="4" style="shape=partialRectangle;html=1;whiteSpace=wrap;connectable=0;strokeColor=inherit;overflow=hidden;fillColor=none;top=0;left=0;bottom=0;right=0;pointerEvents=1;fontSize=16;" parent="Wti6Zjn5eSG-TVBrPJZ1-412" vertex="1">
          <mxGeometry width="30" height="26" as="geometry">
            <mxRectangle width="30" height="26" as="alternateBounds" />
          </mxGeometry>
        </mxCell>
        <mxCell id="Wti6Zjn5eSG-TVBrPJZ1-414" value="6" style="shape=partialRectangle;html=1;whiteSpace=wrap;connectable=0;strokeColor=inherit;overflow=hidden;fillColor=none;top=0;left=0;bottom=0;right=0;pointerEvents=1;fontSize=16;" parent="Wti6Zjn5eSG-TVBrPJZ1-412" vertex="1">
          <mxGeometry x="30" width="30" height="26" as="geometry">
            <mxRectangle width="30" height="26" as="alternateBounds" />
          </mxGeometry>
        </mxCell>
        <mxCell id="Wti6Zjn5eSG-TVBrPJZ1-415" value="Iteration 2" style="whiteSpace=wrap;html=1;fontStyle=1;flipV=0;flipH=1;rotation=0;fontSize=16;strokeColor=#B20000;fontColor=#ffffff;fillColor=#B20000;" parent="1" vertex="1">
          <mxGeometry x="745" y="932" width="80" height="20" as="geometry" />
        </mxCell>
        <mxCell id="Wti6Zjn5eSG-TVBrPJZ1-416" style="rounded=0;orthogonalLoop=1;jettySize=auto;html=1;exitX=1;exitY=0.5;exitDx=0;exitDy=0;entryX=0;entryY=0.5;entryDx=0;entryDy=0;" parent="1" source="Wti6Zjn5eSG-TVBrPJZ1-381" target="Wti6Zjn5eSG-TVBrPJZ1-403" edge="1">
          <mxGeometry relative="1" as="geometry" />
        </mxCell>
        <mxCell id="Wti6Zjn5eSG-TVBrPJZ1-417" value="TC" style="whiteSpace=wrap;html=1;fontStyle=0;strokeColor=none;flipV=0;flipH=1;rotation=0;fillColor=none;fontSize=16;" parent="1" vertex="1">
          <mxGeometry x="969" y="942" width="50" height="20" as="geometry" />
        </mxCell>
        <mxCell id="Wti6Zjn5eSG-TVBrPJZ1-418" value="New" style="whiteSpace=wrap;html=1;fontStyle=0;strokeColor=none;flipV=0;flipH=1;rotation=0;fillColor=none;fontSize=13;" parent="1" vertex="1">
          <mxGeometry x="954" y="956" width="80" height="20" as="geometry" />
        </mxCell>
        <mxCell id="Wti6Zjn5eSG-TVBrPJZ1-419" value="" style="shape=table;startSize=0;container=1;collapsible=0;childLayout=tableLayout;fontSize=16;" parent="1" vertex="1">
          <mxGeometry x="963.1300000000001" y="974" width="60" height="132" as="geometry" />
        </mxCell>
        <mxCell id="Wti6Zjn5eSG-TVBrPJZ1-420" style="shape=tableRow;horizontal=0;startSize=0;swimlaneHead=0;swimlaneBody=0;strokeColor=inherit;top=0;left=0;bottom=0;right=0;collapsible=0;dropTarget=0;fillColor=none;points=[[0,0.5],[1,0.5]];portConstraint=eastwest;fontSize=16;" parent="Wti6Zjn5eSG-TVBrPJZ1-419" vertex="1">
          <mxGeometry width="60" height="26" as="geometry" />
        </mxCell>
        <mxCell id="Wti6Zjn5eSG-TVBrPJZ1-421" value="x" style="shape=partialRectangle;html=1;whiteSpace=wrap;connectable=0;strokeColor=#314354;overflow=hidden;fillColor=#647687;top=0;left=0;bottom=0;right=0;pointerEvents=1;fontSize=16;fontStyle=1;fontColor=#ffffff;" parent="Wti6Zjn5eSG-TVBrPJZ1-420" vertex="1">
          <mxGeometry width="30" height="26" as="geometry">
            <mxRectangle width="30" height="26" as="alternateBounds" />
          </mxGeometry>
        </mxCell>
        <mxCell id="Wti6Zjn5eSG-TVBrPJZ1-422" value="y" style="shape=partialRectangle;html=1;whiteSpace=wrap;connectable=0;strokeColor=#314354;overflow=hidden;fillColor=#647687;top=0;left=0;bottom=0;right=0;pointerEvents=1;fontSize=16;fontStyle=1;fontColor=#ffffff;" parent="Wti6Zjn5eSG-TVBrPJZ1-420" vertex="1">
          <mxGeometry x="30" width="30" height="26" as="geometry">
            <mxRectangle width="30" height="26" as="alternateBounds" />
          </mxGeometry>
        </mxCell>
        <mxCell id="Wti6Zjn5eSG-TVBrPJZ1-423" style="shape=tableRow;horizontal=0;startSize=0;swimlaneHead=0;swimlaneBody=0;strokeColor=inherit;top=0;left=0;bottom=0;right=0;collapsible=0;dropTarget=0;fillColor=none;points=[[0,0.5],[1,0.5]];portConstraint=eastwest;fontSize=16;" parent="Wti6Zjn5eSG-TVBrPJZ1-419" vertex="1">
          <mxGeometry y="26" width="60" height="26" as="geometry" />
        </mxCell>
        <mxCell id="Wti6Zjn5eSG-TVBrPJZ1-424" value="1" style="shape=partialRectangle;html=1;whiteSpace=wrap;connectable=0;strokeColor=inherit;overflow=hidden;fillColor=none;top=0;left=0;bottom=0;right=0;pointerEvents=1;fontSize=16;" parent="Wti6Zjn5eSG-TVBrPJZ1-423" vertex="1">
          <mxGeometry width="30" height="26" as="geometry">
            <mxRectangle width="30" height="26" as="alternateBounds" />
          </mxGeometry>
        </mxCell>
        <mxCell id="Wti6Zjn5eSG-TVBrPJZ1-425" value="3" style="shape=partialRectangle;html=1;whiteSpace=wrap;connectable=0;strokeColor=inherit;overflow=hidden;fillColor=none;top=0;left=0;bottom=0;right=0;pointerEvents=1;fontSize=16;" parent="Wti6Zjn5eSG-TVBrPJZ1-423" vertex="1">
          <mxGeometry x="30" width="30" height="26" as="geometry">
            <mxRectangle width="30" height="26" as="alternateBounds" />
          </mxGeometry>
        </mxCell>
        <mxCell id="Wti6Zjn5eSG-TVBrPJZ1-426" style="shape=tableRow;horizontal=0;startSize=0;swimlaneHead=0;swimlaneBody=0;strokeColor=inherit;top=0;left=0;bottom=0;right=0;collapsible=0;dropTarget=0;fillColor=none;points=[[0,0.5],[1,0.5]];portConstraint=eastwest;fontSize=16;" parent="Wti6Zjn5eSG-TVBrPJZ1-419" vertex="1">
          <mxGeometry y="52" width="60" height="28" as="geometry" />
        </mxCell>
        <mxCell id="Wti6Zjn5eSG-TVBrPJZ1-427" value="1" style="shape=partialRectangle;html=1;whiteSpace=wrap;connectable=0;strokeColor=inherit;overflow=hidden;fillColor=none;top=0;left=0;bottom=0;right=0;pointerEvents=1;fontSize=16;" parent="Wti6Zjn5eSG-TVBrPJZ1-426" vertex="1">
          <mxGeometry width="30" height="28" as="geometry">
            <mxRectangle width="30" height="28" as="alternateBounds" />
          </mxGeometry>
        </mxCell>
        <mxCell id="Wti6Zjn5eSG-TVBrPJZ1-428" value="4" style="shape=partialRectangle;html=1;whiteSpace=wrap;connectable=0;strokeColor=inherit;overflow=hidden;fillColor=none;top=0;left=0;bottom=0;right=0;pointerEvents=1;fontSize=16;" parent="Wti6Zjn5eSG-TVBrPJZ1-426" vertex="1">
          <mxGeometry x="30" width="30" height="28" as="geometry">
            <mxRectangle width="30" height="28" as="alternateBounds" />
          </mxGeometry>
        </mxCell>
        <mxCell id="Wti6Zjn5eSG-TVBrPJZ1-429" style="shape=tableRow;horizontal=0;startSize=0;swimlaneHead=0;swimlaneBody=0;strokeColor=inherit;top=0;left=0;bottom=0;right=0;collapsible=0;dropTarget=0;fillColor=none;points=[[0,0.5],[1,0.5]];portConstraint=eastwest;fontSize=16;" parent="Wti6Zjn5eSG-TVBrPJZ1-419" vertex="1">
          <mxGeometry y="80" width="60" height="26" as="geometry" />
        </mxCell>
        <mxCell id="Wti6Zjn5eSG-TVBrPJZ1-430" value="2" style="shape=partialRectangle;html=1;whiteSpace=wrap;connectable=0;strokeColor=inherit;overflow=hidden;fillColor=none;top=0;left=0;bottom=0;right=0;pointerEvents=1;fontSize=16;" parent="Wti6Zjn5eSG-TVBrPJZ1-429" vertex="1">
          <mxGeometry width="30" height="26" as="geometry">
            <mxRectangle width="30" height="26" as="alternateBounds" />
          </mxGeometry>
        </mxCell>
        <mxCell id="Wti6Zjn5eSG-TVBrPJZ1-431" value="5" style="shape=partialRectangle;html=1;whiteSpace=wrap;connectable=0;strokeColor=inherit;overflow=hidden;fillColor=none;top=0;left=0;bottom=0;right=0;pointerEvents=1;fontSize=16;" parent="Wti6Zjn5eSG-TVBrPJZ1-429" vertex="1">
          <mxGeometry x="30" width="30" height="26" as="geometry">
            <mxRectangle width="30" height="26" as="alternateBounds" />
          </mxGeometry>
        </mxCell>
        <mxCell id="Wti6Zjn5eSG-TVBrPJZ1-432" value="" style="shape=tableRow;horizontal=0;startSize=0;swimlaneHead=0;swimlaneBody=0;strokeColor=inherit;top=0;left=0;bottom=0;right=0;collapsible=0;dropTarget=0;fillColor=none;points=[[0,0.5],[1,0.5]];portConstraint=eastwest;fontSize=16;" parent="Wti6Zjn5eSG-TVBrPJZ1-419" vertex="1">
          <mxGeometry y="106" width="60" height="26" as="geometry" />
        </mxCell>
        <mxCell id="Wti6Zjn5eSG-TVBrPJZ1-433" value="2" style="shape=partialRectangle;html=1;whiteSpace=wrap;connectable=0;strokeColor=inherit;overflow=hidden;fillColor=none;top=0;left=0;bottom=0;right=0;pointerEvents=1;fontSize=16;" parent="Wti6Zjn5eSG-TVBrPJZ1-432" vertex="1">
          <mxGeometry width="30" height="26" as="geometry">
            <mxRectangle width="30" height="26" as="alternateBounds" />
          </mxGeometry>
        </mxCell>
        <mxCell id="Wti6Zjn5eSG-TVBrPJZ1-434" value="6" style="shape=partialRectangle;html=1;whiteSpace=wrap;connectable=0;strokeColor=inherit;overflow=hidden;fillColor=none;top=0;left=0;bottom=0;right=0;pointerEvents=1;fontSize=16;" parent="Wti6Zjn5eSG-TVBrPJZ1-432" vertex="1">
          <mxGeometry x="30" width="30" height="26" as="geometry">
            <mxRectangle width="30" height="26" as="alternateBounds" />
          </mxGeometry>
        </mxCell>
        <mxCell id="Wti6Zjn5eSG-TVBrPJZ1-438" style="rounded=0;orthogonalLoop=1;jettySize=auto;html=1;entryX=0;entryY=0.5;entryDx=0;entryDy=0;exitX=1;exitY=0.5;exitDx=0;exitDy=0;" parent="1" source="Wti6Zjn5eSG-TVBrPJZ1-381" target="Wti6Zjn5eSG-TVBrPJZ1-406" edge="1">
          <mxGeometry relative="1" as="geometry" />
        </mxCell>
        <mxCell id="Wti6Zjn5eSG-TVBrPJZ1-439" style="rounded=0;orthogonalLoop=1;jettySize=auto;html=1;entryX=0;entryY=0.5;entryDx=0;entryDy=0;exitX=1;exitY=0.5;exitDx=0;exitDy=0;" parent="1" source="Wti6Zjn5eSG-TVBrPJZ1-387" target="Wti6Zjn5eSG-TVBrPJZ1-409" edge="1">
          <mxGeometry relative="1" as="geometry" />
        </mxCell>
        <mxCell id="Wti6Zjn5eSG-TVBrPJZ1-440" style="rounded=0;orthogonalLoop=1;jettySize=auto;html=1;entryX=0;entryY=0.5;entryDx=0;entryDy=0;exitX=1;exitY=0.5;exitDx=0;exitDy=0;" parent="1" source="Wti6Zjn5eSG-TVBrPJZ1-387" target="Wti6Zjn5eSG-TVBrPJZ1-412" edge="1">
          <mxGeometry relative="1" as="geometry" />
        </mxCell>
        <mxCell id="Wti6Zjn5eSG-TVBrPJZ1-458" value="TC" style="whiteSpace=wrap;html=1;fontStyle=0;strokeColor=none;flipV=0;flipH=1;rotation=0;fillColor=none;fontSize=16;" parent="1" vertex="1">
          <mxGeometry x="1089.13" y="940" width="50" height="20" as="geometry" />
        </mxCell>
        <mxCell id="Wti6Zjn5eSG-TVBrPJZ1-459" value="Delta" style="whiteSpace=wrap;html=1;fontStyle=0;strokeColor=none;flipV=0;flipH=1;rotation=0;fillColor=none;fontSize=13;" parent="1" vertex="1">
          <mxGeometry x="1075" y="956" width="80" height="20" as="geometry" />
        </mxCell>
        <mxCell id="Wti6Zjn5eSG-TVBrPJZ1-460" value="" style="shape=table;startSize=0;container=1;collapsible=0;childLayout=tableLayout;fontSize=16;" parent="1" vertex="1">
          <mxGeometry x="1083.2600000000002" y="974" width="60" height="132" as="geometry" />
        </mxCell>
        <mxCell id="Wti6Zjn5eSG-TVBrPJZ1-461" style="shape=tableRow;horizontal=0;startSize=0;swimlaneHead=0;swimlaneBody=0;strokeColor=inherit;top=0;left=0;bottom=0;right=0;collapsible=0;dropTarget=0;fillColor=none;points=[[0,0.5],[1,0.5]];portConstraint=eastwest;fontSize=16;" parent="Wti6Zjn5eSG-TVBrPJZ1-460" vertex="1">
          <mxGeometry width="60" height="26" as="geometry" />
        </mxCell>
        <mxCell id="Wti6Zjn5eSG-TVBrPJZ1-462" value="x" style="shape=partialRectangle;html=1;whiteSpace=wrap;connectable=0;strokeColor=#314354;overflow=hidden;fillColor=#647687;top=0;left=0;bottom=0;right=0;pointerEvents=1;fontSize=16;fontStyle=1;fontColor=#ffffff;" parent="Wti6Zjn5eSG-TVBrPJZ1-461" vertex="1">
          <mxGeometry width="30" height="26" as="geometry">
            <mxRectangle width="30" height="26" as="alternateBounds" />
          </mxGeometry>
        </mxCell>
        <mxCell id="Wti6Zjn5eSG-TVBrPJZ1-463" value="y" style="shape=partialRectangle;html=1;whiteSpace=wrap;connectable=0;strokeColor=#314354;overflow=hidden;fillColor=#647687;top=0;left=0;bottom=0;right=0;pointerEvents=1;fontSize=16;fontStyle=1;fontColor=#ffffff;" parent="Wti6Zjn5eSG-TVBrPJZ1-461" vertex="1">
          <mxGeometry x="30" width="30" height="26" as="geometry">
            <mxRectangle width="30" height="26" as="alternateBounds" />
          </mxGeometry>
        </mxCell>
        <mxCell id="Wti6Zjn5eSG-TVBrPJZ1-464" style="shape=tableRow;horizontal=0;startSize=0;swimlaneHead=0;swimlaneBody=0;strokeColor=inherit;top=0;left=0;bottom=0;right=0;collapsible=0;dropTarget=0;fillColor=none;points=[[0,0.5],[1,0.5]];portConstraint=eastwest;fontSize=16;" parent="Wti6Zjn5eSG-TVBrPJZ1-460" vertex="1">
          <mxGeometry y="26" width="60" height="26" as="geometry" />
        </mxCell>
        <mxCell id="Wti6Zjn5eSG-TVBrPJZ1-465" value="1" style="shape=partialRectangle;html=1;whiteSpace=wrap;connectable=0;strokeColor=inherit;overflow=hidden;fillColor=none;top=0;left=0;bottom=0;right=0;pointerEvents=1;fontSize=16;" parent="Wti6Zjn5eSG-TVBrPJZ1-464" vertex="1">
          <mxGeometry width="30" height="26" as="geometry">
            <mxRectangle width="30" height="26" as="alternateBounds" />
          </mxGeometry>
        </mxCell>
        <mxCell id="Wti6Zjn5eSG-TVBrPJZ1-466" value="3" style="shape=partialRectangle;html=1;whiteSpace=wrap;connectable=0;strokeColor=inherit;overflow=hidden;fillColor=none;top=0;left=0;bottom=0;right=0;pointerEvents=1;fontSize=16;" parent="Wti6Zjn5eSG-TVBrPJZ1-464" vertex="1">
          <mxGeometry x="30" width="30" height="26" as="geometry">
            <mxRectangle width="30" height="26" as="alternateBounds" />
          </mxGeometry>
        </mxCell>
        <mxCell id="Wti6Zjn5eSG-TVBrPJZ1-467" style="shape=tableRow;horizontal=0;startSize=0;swimlaneHead=0;swimlaneBody=0;strokeColor=inherit;top=0;left=0;bottom=0;right=0;collapsible=0;dropTarget=0;fillColor=none;points=[[0,0.5],[1,0.5]];portConstraint=eastwest;fontSize=16;" parent="Wti6Zjn5eSG-TVBrPJZ1-460" vertex="1">
          <mxGeometry y="52" width="60" height="28" as="geometry" />
        </mxCell>
        <mxCell id="Wti6Zjn5eSG-TVBrPJZ1-468" value="1" style="shape=partialRectangle;html=1;whiteSpace=wrap;connectable=0;strokeColor=inherit;overflow=hidden;fillColor=none;top=0;left=0;bottom=0;right=0;pointerEvents=1;fontSize=16;" parent="Wti6Zjn5eSG-TVBrPJZ1-467" vertex="1">
          <mxGeometry width="30" height="28" as="geometry">
            <mxRectangle width="30" height="28" as="alternateBounds" />
          </mxGeometry>
        </mxCell>
        <mxCell id="Wti6Zjn5eSG-TVBrPJZ1-469" value="4" style="shape=partialRectangle;html=1;whiteSpace=wrap;connectable=0;strokeColor=inherit;overflow=hidden;fillColor=none;top=0;left=0;bottom=0;right=0;pointerEvents=1;fontSize=16;" parent="Wti6Zjn5eSG-TVBrPJZ1-467" vertex="1">
          <mxGeometry x="30" width="30" height="28" as="geometry">
            <mxRectangle width="30" height="28" as="alternateBounds" />
          </mxGeometry>
        </mxCell>
        <mxCell id="Wti6Zjn5eSG-TVBrPJZ1-470" style="shape=tableRow;horizontal=0;startSize=0;swimlaneHead=0;swimlaneBody=0;strokeColor=inherit;top=0;left=0;bottom=0;right=0;collapsible=0;dropTarget=0;fillColor=none;points=[[0,0.5],[1,0.5]];portConstraint=eastwest;fontSize=16;" parent="Wti6Zjn5eSG-TVBrPJZ1-460" vertex="1">
          <mxGeometry y="80" width="60" height="26" as="geometry" />
        </mxCell>
        <mxCell id="Wti6Zjn5eSG-TVBrPJZ1-471" value="2" style="shape=partialRectangle;html=1;whiteSpace=wrap;connectable=0;strokeColor=inherit;overflow=hidden;fillColor=none;top=0;left=0;bottom=0;right=0;pointerEvents=1;fontSize=16;" parent="Wti6Zjn5eSG-TVBrPJZ1-470" vertex="1">
          <mxGeometry width="30" height="26" as="geometry">
            <mxRectangle width="30" height="26" as="alternateBounds" />
          </mxGeometry>
        </mxCell>
        <mxCell id="Wti6Zjn5eSG-TVBrPJZ1-472" value="5" style="shape=partialRectangle;html=1;whiteSpace=wrap;connectable=0;strokeColor=inherit;overflow=hidden;fillColor=none;top=0;left=0;bottom=0;right=0;pointerEvents=1;fontSize=16;" parent="Wti6Zjn5eSG-TVBrPJZ1-470" vertex="1">
          <mxGeometry x="30" width="30" height="26" as="geometry">
            <mxRectangle width="30" height="26" as="alternateBounds" />
          </mxGeometry>
        </mxCell>
        <mxCell id="Wti6Zjn5eSG-TVBrPJZ1-473" value="" style="shape=tableRow;horizontal=0;startSize=0;swimlaneHead=0;swimlaneBody=0;strokeColor=inherit;top=0;left=0;bottom=0;right=0;collapsible=0;dropTarget=0;fillColor=none;points=[[0,0.5],[1,0.5]];portConstraint=eastwest;fontSize=16;" parent="Wti6Zjn5eSG-TVBrPJZ1-460" vertex="1">
          <mxGeometry y="106" width="60" height="26" as="geometry" />
        </mxCell>
        <mxCell id="Wti6Zjn5eSG-TVBrPJZ1-474" value="2" style="shape=partialRectangle;html=1;whiteSpace=wrap;connectable=0;strokeColor=inherit;overflow=hidden;fillColor=none;top=0;left=0;bottom=0;right=0;pointerEvents=1;fontSize=16;" parent="Wti6Zjn5eSG-TVBrPJZ1-473" vertex="1">
          <mxGeometry width="30" height="26" as="geometry">
            <mxRectangle width="30" height="26" as="alternateBounds" />
          </mxGeometry>
        </mxCell>
        <mxCell id="Wti6Zjn5eSG-TVBrPJZ1-475" value="6" style="shape=partialRectangle;html=1;whiteSpace=wrap;connectable=0;strokeColor=inherit;overflow=hidden;fillColor=none;top=0;left=0;bottom=0;right=0;pointerEvents=1;fontSize=16;" parent="Wti6Zjn5eSG-TVBrPJZ1-473" vertex="1">
          <mxGeometry x="30" width="30" height="26" as="geometry">
            <mxRectangle width="30" height="26" as="alternateBounds" />
          </mxGeometry>
        </mxCell>
        <mxCell id="Wti6Zjn5eSG-TVBrPJZ1-476" value="⋈" style="whiteSpace=wrap;html=1;fontStyle=0;strokeColor=none;flipV=0;flipH=1;rotation=0;fillColor=none;fontSize=32;" parent="1" vertex="1">
          <mxGeometry x="821" y="976" width="50" height="20" as="geometry" />
        </mxCell>
        <mxCell id="Wti6Zjn5eSG-TVBrPJZ1-477" value="TC" style="whiteSpace=wrap;html=1;fontStyle=0;strokeColor=none;flipV=0;flipH=1;rotation=0;fillColor=none;fontSize=16;" parent="1" vertex="1">
          <mxGeometry x="1193" y="940" width="120" height="20" as="geometry" />
        </mxCell>
        <mxCell id="Wti6Zjn5eSG-TVBrPJZ1-478" value="Full" style="whiteSpace=wrap;html=1;fontStyle=0;strokeColor=none;flipV=0;flipH=1;rotation=0;fillColor=none;fontSize=13;" parent="1" vertex="1">
          <mxGeometry x="1193" y="956" width="120" height="20" as="geometry" />
        </mxCell>
        <mxCell id="Wti6Zjn5eSG-TVBrPJZ1-479" value="" style="shape=table;startSize=0;container=1;collapsible=0;childLayout=tableLayout;fontSize=16;" parent="1" vertex="1">
          <mxGeometry x="1191.13" y="974" width="60" height="158" as="geometry" />
        </mxCell>
        <mxCell id="Wti6Zjn5eSG-TVBrPJZ1-480" style="shape=tableRow;horizontal=0;startSize=0;swimlaneHead=0;swimlaneBody=0;strokeColor=inherit;top=0;left=0;bottom=0;right=0;collapsible=0;dropTarget=0;fillColor=none;points=[[0,0.5],[1,0.5]];portConstraint=eastwest;fontSize=16;" parent="Wti6Zjn5eSG-TVBrPJZ1-479" vertex="1">
          <mxGeometry width="60" height="26" as="geometry" />
        </mxCell>
        <mxCell id="Wti6Zjn5eSG-TVBrPJZ1-481" value="x" style="shape=partialRectangle;html=1;whiteSpace=wrap;connectable=0;strokeColor=#314354;overflow=hidden;fillColor=#647687;top=0;left=0;bottom=0;right=0;pointerEvents=1;fontSize=16;fontStyle=1;fontColor=#ffffff;" parent="Wti6Zjn5eSG-TVBrPJZ1-480" vertex="1">
          <mxGeometry width="30" height="26" as="geometry">
            <mxRectangle width="30" height="26" as="alternateBounds" />
          </mxGeometry>
        </mxCell>
        <mxCell id="Wti6Zjn5eSG-TVBrPJZ1-482" value="y" style="shape=partialRectangle;html=1;whiteSpace=wrap;connectable=0;strokeColor=#314354;overflow=hidden;fillColor=#647687;top=0;left=0;bottom=0;right=0;pointerEvents=1;fontSize=16;fontStyle=1;fontColor=#ffffff;" parent="Wti6Zjn5eSG-TVBrPJZ1-480" vertex="1">
          <mxGeometry x="30" width="30" height="26" as="geometry">
            <mxRectangle width="30" height="26" as="alternateBounds" />
          </mxGeometry>
        </mxCell>
        <mxCell id="Wti6Zjn5eSG-TVBrPJZ1-483" style="shape=tableRow;horizontal=0;startSize=0;swimlaneHead=0;swimlaneBody=0;strokeColor=inherit;top=0;left=0;bottom=0;right=0;collapsible=0;dropTarget=0;fillColor=none;points=[[0,0.5],[1,0.5]];portConstraint=eastwest;fontSize=16;" parent="Wti6Zjn5eSG-TVBrPJZ1-479" vertex="1">
          <mxGeometry y="26" width="60" height="26" as="geometry" />
        </mxCell>
        <mxCell id="Wti6Zjn5eSG-TVBrPJZ1-484" value="1" style="shape=partialRectangle;html=1;whiteSpace=wrap;connectable=0;strokeColor=inherit;overflow=hidden;fillColor=none;top=0;left=0;bottom=0;right=0;pointerEvents=1;fontSize=16;" parent="Wti6Zjn5eSG-TVBrPJZ1-483" vertex="1">
          <mxGeometry width="30" height="26" as="geometry">
            <mxRectangle width="30" height="26" as="alternateBounds" />
          </mxGeometry>
        </mxCell>
        <mxCell id="Wti6Zjn5eSG-TVBrPJZ1-485" value="2" style="shape=partialRectangle;html=1;whiteSpace=wrap;connectable=0;strokeColor=inherit;overflow=hidden;fillColor=none;top=0;left=0;bottom=0;right=0;pointerEvents=1;fontSize=16;" parent="Wti6Zjn5eSG-TVBrPJZ1-483" vertex="1">
          <mxGeometry x="30" width="30" height="26" as="geometry">
            <mxRectangle width="30" height="26" as="alternateBounds" />
          </mxGeometry>
        </mxCell>
        <mxCell id="Wti6Zjn5eSG-TVBrPJZ1-486" style="shape=tableRow;horizontal=0;startSize=0;swimlaneHead=0;swimlaneBody=0;strokeColor=inherit;top=0;left=0;bottom=0;right=0;collapsible=0;dropTarget=0;fillColor=none;points=[[0,0.5],[1,0.5]];portConstraint=eastwest;fontSize=16;" parent="Wti6Zjn5eSG-TVBrPJZ1-479" vertex="1">
          <mxGeometry y="52" width="60" height="28" as="geometry" />
        </mxCell>
        <mxCell id="Wti6Zjn5eSG-TVBrPJZ1-487" value="1" style="shape=partialRectangle;html=1;whiteSpace=wrap;connectable=0;strokeColor=#B20000;overflow=hidden;fillColor=#B20000;top=0;left=0;bottom=0;right=0;pointerEvents=1;fontSize=16;fontStyle=1;fontColor=#ffffff;" parent="Wti6Zjn5eSG-TVBrPJZ1-486" vertex="1">
          <mxGeometry width="30" height="28" as="geometry">
            <mxRectangle width="30" height="28" as="alternateBounds" />
          </mxGeometry>
        </mxCell>
        <mxCell id="Wti6Zjn5eSG-TVBrPJZ1-488" value="3" style="shape=partialRectangle;html=1;whiteSpace=wrap;connectable=0;strokeColor=#B20000;overflow=hidden;fillColor=#B20000;top=0;left=0;bottom=0;right=0;pointerEvents=1;fontSize=16;fontStyle=1;fontColor=#ffffff;" parent="Wti6Zjn5eSG-TVBrPJZ1-486" vertex="1">
          <mxGeometry x="30" width="30" height="28" as="geometry">
            <mxRectangle width="30" height="28" as="alternateBounds" />
          </mxGeometry>
        </mxCell>
        <mxCell id="Wti6Zjn5eSG-TVBrPJZ1-489" style="shape=tableRow;horizontal=0;startSize=0;swimlaneHead=0;swimlaneBody=0;strokeColor=inherit;top=0;left=0;bottom=0;right=0;collapsible=0;dropTarget=0;fillColor=none;points=[[0,0.5],[1,0.5]];portConstraint=eastwest;fontSize=16;" parent="Wti6Zjn5eSG-TVBrPJZ1-479" vertex="1">
          <mxGeometry y="80" width="60" height="26" as="geometry" />
        </mxCell>
        <mxCell id="Wti6Zjn5eSG-TVBrPJZ1-490" value="1" style="shape=partialRectangle;html=1;whiteSpace=wrap;connectable=0;strokeColor=#B20000;overflow=hidden;fillColor=#B20000;top=0;left=0;bottom=0;right=0;pointerEvents=1;fontSize=16;fontColor=#ffffff;" parent="Wti6Zjn5eSG-TVBrPJZ1-489" vertex="1">
          <mxGeometry width="30" height="26" as="geometry">
            <mxRectangle width="30" height="26" as="alternateBounds" />
          </mxGeometry>
        </mxCell>
        <mxCell id="Wti6Zjn5eSG-TVBrPJZ1-491" value="4" style="shape=partialRectangle;html=1;whiteSpace=wrap;connectable=0;strokeColor=#B20000;overflow=hidden;fillColor=#B20000;top=0;left=0;bottom=0;right=0;pointerEvents=1;fontSize=16;fontColor=#ffffff;" parent="Wti6Zjn5eSG-TVBrPJZ1-489" vertex="1">
          <mxGeometry x="30" width="30" height="26" as="geometry">
            <mxRectangle width="30" height="26" as="alternateBounds" />
          </mxGeometry>
        </mxCell>
        <mxCell id="Wti6Zjn5eSG-TVBrPJZ1-492" value="" style="shape=tableRow;horizontal=0;startSize=0;swimlaneHead=0;swimlaneBody=0;strokeColor=inherit;top=0;left=0;bottom=0;right=0;collapsible=0;dropTarget=0;fillColor=none;points=[[0,0.5],[1,0.5]];portConstraint=eastwest;fontSize=16;" parent="Wti6Zjn5eSG-TVBrPJZ1-479" vertex="1">
          <mxGeometry y="106" width="60" height="26" as="geometry" />
        </mxCell>
        <mxCell id="Wti6Zjn5eSG-TVBrPJZ1-493" value="2" style="shape=partialRectangle;html=1;whiteSpace=wrap;connectable=0;strokeColor=inherit;overflow=hidden;fillColor=none;top=0;left=0;bottom=0;right=0;pointerEvents=1;fontSize=16;" parent="Wti6Zjn5eSG-TVBrPJZ1-492" vertex="1">
          <mxGeometry width="30" height="26" as="geometry">
            <mxRectangle width="30" height="26" as="alternateBounds" />
          </mxGeometry>
        </mxCell>
        <mxCell id="Wti6Zjn5eSG-TVBrPJZ1-494" value="3" style="shape=partialRectangle;html=1;whiteSpace=wrap;connectable=0;strokeColor=inherit;overflow=hidden;fillColor=none;top=0;left=0;bottom=0;right=0;pointerEvents=1;fontSize=16;" parent="Wti6Zjn5eSG-TVBrPJZ1-492" vertex="1">
          <mxGeometry x="30" width="30" height="26" as="geometry">
            <mxRectangle width="30" height="26" as="alternateBounds" />
          </mxGeometry>
        </mxCell>
        <mxCell id="Wti6Zjn5eSG-TVBrPJZ1-521" style="shape=tableRow;horizontal=0;startSize=0;swimlaneHead=0;swimlaneBody=0;strokeColor=inherit;top=0;left=0;bottom=0;right=0;collapsible=0;dropTarget=0;fillColor=none;points=[[0,0.5],[1,0.5]];portConstraint=eastwest;fontSize=16;" parent="Wti6Zjn5eSG-TVBrPJZ1-479" vertex="1">
          <mxGeometry y="132" width="60" height="26" as="geometry" />
        </mxCell>
        <mxCell id="Wti6Zjn5eSG-TVBrPJZ1-522" value="2" style="shape=partialRectangle;html=1;whiteSpace=wrap;connectable=0;strokeColor=inherit;overflow=hidden;fillColor=none;top=0;left=0;bottom=0;right=0;pointerEvents=1;fontSize=16;" parent="Wti6Zjn5eSG-TVBrPJZ1-521" vertex="1">
          <mxGeometry width="30" height="26" as="geometry">
            <mxRectangle width="30" height="26" as="alternateBounds" />
          </mxGeometry>
        </mxCell>
        <mxCell id="Wti6Zjn5eSG-TVBrPJZ1-523" value="4" style="shape=partialRectangle;html=1;whiteSpace=wrap;connectable=0;strokeColor=inherit;overflow=hidden;fillColor=none;top=0;left=0;bottom=0;right=0;pointerEvents=1;fontSize=16;" parent="Wti6Zjn5eSG-TVBrPJZ1-521" vertex="1">
          <mxGeometry x="30" width="30" height="26" as="geometry">
            <mxRectangle width="30" height="26" as="alternateBounds" />
          </mxGeometry>
        </mxCell>
        <mxCell id="Wti6Zjn5eSG-TVBrPJZ1-502" value="&lt;span&gt;Join&lt;/span&gt;" style="whiteSpace=wrap;html=1;fontStyle=0;strokeColor=none;flipV=0;flipH=1;rotation=0;fillColor=none;fontSize=14;" parent="1" vertex="1">
          <mxGeometry x="923.13" y="1020" width="37.87" height="60" as="geometry" />
        </mxCell>
        <mxCell id="Wti6Zjn5eSG-TVBrPJZ1-503" value="&lt;span&gt;Populate&lt;/span&gt;&lt;div&gt;&lt;span&gt;Delta&lt;/span&gt;&lt;/div&gt;" style="whiteSpace=wrap;html=1;fontStyle=0;strokeColor=none;flipV=0;flipH=1;rotation=0;fillColor=none;fontSize=14;" parent="1" vertex="1">
          <mxGeometry x="1035.13" y="1017.1300000000001" width="36.87" height="60" as="geometry" />
        </mxCell>
        <mxCell id="Wti6Zjn5eSG-TVBrPJZ1-504" value="&lt;span&gt;Merge&lt;/span&gt;&lt;div&gt;&lt;span&gt;Full &amp;amp;&lt;/span&gt;&lt;/div&gt;&lt;div&gt;&lt;span&gt;Delta&lt;/span&gt;&lt;/div&gt;" style="whiteSpace=wrap;html=1;fontStyle=0;strokeColor=none;flipV=0;flipH=1;rotation=0;fillColor=none;fontSize=14;" parent="1" vertex="1">
          <mxGeometry x="1150.2600000000002" y="1015" width="36.87" height="60" as="geometry" />
        </mxCell>
        <mxCell id="Wti6Zjn5eSG-TVBrPJZ1-505" value="" style="shape=table;startSize=0;container=1;collapsible=0;childLayout=tableLayout;fontSize=16;" parent="1" vertex="1">
          <mxGeometry x="1256" y="974" width="60" height="132" as="geometry" />
        </mxCell>
        <mxCell id="Wti6Zjn5eSG-TVBrPJZ1-506" style="shape=tableRow;horizontal=0;startSize=0;swimlaneHead=0;swimlaneBody=0;strokeColor=inherit;top=0;left=0;bottom=0;right=0;collapsible=0;dropTarget=0;fillColor=none;points=[[0,0.5],[1,0.5]];portConstraint=eastwest;fontSize=16;" parent="Wti6Zjn5eSG-TVBrPJZ1-505" vertex="1">
          <mxGeometry width="60" height="26" as="geometry" />
        </mxCell>
        <mxCell id="Wti6Zjn5eSG-TVBrPJZ1-507" value="x" style="shape=partialRectangle;html=1;whiteSpace=wrap;connectable=0;strokeColor=#314354;overflow=hidden;fillColor=#647687;top=0;left=0;bottom=0;right=0;pointerEvents=1;fontSize=16;fontStyle=1;fontColor=#ffffff;" parent="Wti6Zjn5eSG-TVBrPJZ1-506" vertex="1">
          <mxGeometry width="30" height="26" as="geometry">
            <mxRectangle width="30" height="26" as="alternateBounds" />
          </mxGeometry>
        </mxCell>
        <mxCell id="Wti6Zjn5eSG-TVBrPJZ1-508" value="y" style="shape=partialRectangle;html=1;whiteSpace=wrap;connectable=0;strokeColor=#314354;overflow=hidden;fillColor=#647687;top=0;left=0;bottom=0;right=0;pointerEvents=1;fontSize=16;fontStyle=1;fontColor=#ffffff;" parent="Wti6Zjn5eSG-TVBrPJZ1-506" vertex="1">
          <mxGeometry x="30" width="30" height="26" as="geometry">
            <mxRectangle width="30" height="26" as="alternateBounds" />
          </mxGeometry>
        </mxCell>
        <mxCell id="Wti6Zjn5eSG-TVBrPJZ1-509" style="shape=tableRow;horizontal=0;startSize=0;swimlaneHead=0;swimlaneBody=0;strokeColor=inherit;top=0;left=0;bottom=0;right=0;collapsible=0;dropTarget=0;fillColor=none;points=[[0,0.5],[1,0.5]];portConstraint=eastwest;fontSize=16;" parent="Wti6Zjn5eSG-TVBrPJZ1-505" vertex="1">
          <mxGeometry y="26" width="60" height="26" as="geometry" />
        </mxCell>
        <mxCell id="Wti6Zjn5eSG-TVBrPJZ1-510" value="2" style="shape=partialRectangle;html=1;whiteSpace=wrap;connectable=0;strokeColor=#B20000;overflow=hidden;fillColor=#B20000;top=0;left=0;bottom=0;right=0;pointerEvents=1;fontSize=16;fontStyle=1;fontColor=#ffffff;" parent="Wti6Zjn5eSG-TVBrPJZ1-509" vertex="1">
          <mxGeometry width="30" height="26" as="geometry">
            <mxRectangle width="30" height="26" as="alternateBounds" />
          </mxGeometry>
        </mxCell>
        <mxCell id="Wti6Zjn5eSG-TVBrPJZ1-511" value="5" style="shape=partialRectangle;html=1;whiteSpace=wrap;connectable=0;strokeColor=#B20000;overflow=hidden;fillColor=#B20000;top=0;left=0;bottom=0;right=0;pointerEvents=1;fontSize=16;fontStyle=1;fontColor=#ffffff;" parent="Wti6Zjn5eSG-TVBrPJZ1-509" vertex="1">
          <mxGeometry x="30" width="30" height="26" as="geometry">
            <mxRectangle width="30" height="26" as="alternateBounds" />
          </mxGeometry>
        </mxCell>
        <mxCell id="Wti6Zjn5eSG-TVBrPJZ1-512" style="shape=tableRow;horizontal=0;startSize=0;swimlaneHead=0;swimlaneBody=0;strokeColor=inherit;top=0;left=0;bottom=0;right=0;collapsible=0;dropTarget=0;fillColor=none;points=[[0,0.5],[1,0.5]];portConstraint=eastwest;fontSize=16;" parent="Wti6Zjn5eSG-TVBrPJZ1-505" vertex="1">
          <mxGeometry y="52" width="60" height="28" as="geometry" />
        </mxCell>
        <mxCell id="Wti6Zjn5eSG-TVBrPJZ1-513" value="2" style="shape=partialRectangle;html=1;whiteSpace=wrap;connectable=0;strokeColor=#B20000;overflow=hidden;fillColor=#B20000;top=0;left=0;bottom=0;right=0;pointerEvents=1;fontSize=16;fontStyle=1;fontColor=#ffffff;" parent="Wti6Zjn5eSG-TVBrPJZ1-512" vertex="1">
          <mxGeometry width="30" height="28" as="geometry">
            <mxRectangle width="30" height="28" as="alternateBounds" />
          </mxGeometry>
        </mxCell>
        <mxCell id="Wti6Zjn5eSG-TVBrPJZ1-514" value="6" style="shape=partialRectangle;html=1;whiteSpace=wrap;connectable=0;strokeColor=#B20000;overflow=hidden;fillColor=#B20000;top=0;left=0;bottom=0;right=0;pointerEvents=1;fontSize=16;fontStyle=1;fontColor=#ffffff;" parent="Wti6Zjn5eSG-TVBrPJZ1-512" vertex="1">
          <mxGeometry x="30" width="30" height="28" as="geometry">
            <mxRectangle width="30" height="28" as="alternateBounds" />
          </mxGeometry>
        </mxCell>
        <mxCell id="Wti6Zjn5eSG-TVBrPJZ1-515" style="shape=tableRow;horizontal=0;startSize=0;swimlaneHead=0;swimlaneBody=0;strokeColor=inherit;top=0;left=0;bottom=0;right=0;collapsible=0;dropTarget=0;fillColor=none;points=[[0,0.5],[1,0.5]];portConstraint=eastwest;fontSize=16;" parent="Wti6Zjn5eSG-TVBrPJZ1-505" vertex="1">
          <mxGeometry y="80" width="60" height="26" as="geometry" />
        </mxCell>
        <mxCell id="Wti6Zjn5eSG-TVBrPJZ1-516" value="4" style="shape=partialRectangle;html=1;whiteSpace=wrap;connectable=0;strokeColor=inherit;overflow=hidden;fillColor=none;top=0;left=0;bottom=0;right=0;pointerEvents=1;fontSize=16;" parent="Wti6Zjn5eSG-TVBrPJZ1-515" vertex="1">
          <mxGeometry width="30" height="26" as="geometry">
            <mxRectangle width="30" height="26" as="alternateBounds" />
          </mxGeometry>
        </mxCell>
        <mxCell id="Wti6Zjn5eSG-TVBrPJZ1-517" value="5" style="shape=partialRectangle;html=1;whiteSpace=wrap;connectable=0;strokeColor=inherit;overflow=hidden;fillColor=none;top=0;left=0;bottom=0;right=0;pointerEvents=1;fontSize=16;" parent="Wti6Zjn5eSG-TVBrPJZ1-515" vertex="1">
          <mxGeometry x="30" width="30" height="26" as="geometry">
            <mxRectangle width="30" height="26" as="alternateBounds" />
          </mxGeometry>
        </mxCell>
        <mxCell id="Wti6Zjn5eSG-TVBrPJZ1-518" value="" style="shape=tableRow;horizontal=0;startSize=0;swimlaneHead=0;swimlaneBody=0;strokeColor=inherit;top=0;left=0;bottom=0;right=0;collapsible=0;dropTarget=0;fillColor=none;points=[[0,0.5],[1,0.5]];portConstraint=eastwest;fontSize=16;" parent="Wti6Zjn5eSG-TVBrPJZ1-505" vertex="1">
          <mxGeometry y="106" width="60" height="26" as="geometry" />
        </mxCell>
        <mxCell id="Wti6Zjn5eSG-TVBrPJZ1-519" value="4" style="shape=partialRectangle;html=1;whiteSpace=wrap;connectable=0;strokeColor=inherit;overflow=hidden;fillColor=none;top=0;left=0;bottom=0;right=0;pointerEvents=1;fontSize=16;" parent="Wti6Zjn5eSG-TVBrPJZ1-518" vertex="1">
          <mxGeometry width="30" height="26" as="geometry">
            <mxRectangle width="30" height="26" as="alternateBounds" />
          </mxGeometry>
        </mxCell>
        <mxCell id="Wti6Zjn5eSG-TVBrPJZ1-520" value="6" style="shape=partialRectangle;html=1;whiteSpace=wrap;connectable=0;strokeColor=inherit;overflow=hidden;fillColor=none;top=0;left=0;bottom=0;right=0;pointerEvents=1;fontSize=16;" parent="Wti6Zjn5eSG-TVBrPJZ1-518" vertex="1">
          <mxGeometry x="30" width="30" height="26" as="geometry">
            <mxRectangle width="30" height="26" as="alternateBounds" />
          </mxGeometry>
        </mxCell>
        <mxCell id="Wti6Zjn5eSG-TVBrPJZ1-647" value="Edge" style="whiteSpace=wrap;html=1;fontStyle=0;strokeColor=none;flipV=0;flipH=1;rotation=0;fillColor=none;fontSize=16;" parent="1" vertex="1">
          <mxGeometry x="770" y="1162" width="50" height="20" as="geometry" />
        </mxCell>
        <mxCell id="Wti6Zjn5eSG-TVBrPJZ1-648" value="TC" style="whiteSpace=wrap;html=1;fontStyle=0;strokeColor=none;flipV=0;flipH=1;rotation=0;fillColor=none;fontSize=16;" parent="1" vertex="1">
          <mxGeometry x="863" y="1150" width="50" height="20" as="geometry" />
        </mxCell>
        <mxCell id="Wti6Zjn5eSG-TVBrPJZ1-649" value="Delta" style="whiteSpace=wrap;html=1;fontStyle=0;strokeColor=none;flipV=0;flipH=1;rotation=0;fillColor=none;fontSize=13;" parent="1" vertex="1">
          <mxGeometry x="849" y="1164" width="80" height="20" as="geometry" />
        </mxCell>
        <mxCell id="Wti6Zjn5eSG-TVBrPJZ1-650" value="" style="shape=table;startSize=0;container=1;collapsible=0;childLayout=tableLayout;fontSize=16;" parent="1" vertex="1">
          <mxGeometry x="765" y="1184" width="60" height="158" as="geometry" />
        </mxCell>
        <mxCell id="Wti6Zjn5eSG-TVBrPJZ1-651" style="shape=tableRow;horizontal=0;startSize=0;swimlaneHead=0;swimlaneBody=0;strokeColor=inherit;top=0;left=0;bottom=0;right=0;collapsible=0;dropTarget=0;fillColor=none;points=[[0,0.5],[1,0.5]];portConstraint=eastwest;fontSize=16;" parent="Wti6Zjn5eSG-TVBrPJZ1-650" vertex="1">
          <mxGeometry width="60" height="26" as="geometry" />
        </mxCell>
        <mxCell id="Wti6Zjn5eSG-TVBrPJZ1-652" value="x" style="shape=partialRectangle;html=1;whiteSpace=wrap;connectable=0;strokeColor=#314354;overflow=hidden;fillColor=#647687;top=0;left=0;bottom=0;right=0;pointerEvents=1;fontSize=16;fontStyle=1;fontColor=#ffffff;" parent="Wti6Zjn5eSG-TVBrPJZ1-651" vertex="1">
          <mxGeometry width="30" height="26" as="geometry">
            <mxRectangle width="30" height="26" as="alternateBounds" />
          </mxGeometry>
        </mxCell>
        <mxCell id="Wti6Zjn5eSG-TVBrPJZ1-653" value="z" style="shape=partialRectangle;html=1;whiteSpace=wrap;connectable=0;strokeColor=#314354;overflow=hidden;fillColor=#647687;top=0;left=0;bottom=0;right=0;pointerEvents=1;fontSize=16;fontStyle=1;fontColor=#ffffff;" parent="Wti6Zjn5eSG-TVBrPJZ1-651" vertex="1">
          <mxGeometry x="30" width="30" height="26" as="geometry">
            <mxRectangle width="30" height="26" as="alternateBounds" />
          </mxGeometry>
        </mxCell>
        <mxCell id="Wti6Zjn5eSG-TVBrPJZ1-654" style="shape=tableRow;horizontal=0;startSize=0;swimlaneHead=0;swimlaneBody=0;strokeColor=inherit;top=0;left=0;bottom=0;right=0;collapsible=0;dropTarget=0;fillColor=none;points=[[0,0.5],[1,0.5]];portConstraint=eastwest;fontSize=16;" parent="Wti6Zjn5eSG-TVBrPJZ1-650" vertex="1">
          <mxGeometry y="26" width="60" height="26" as="geometry" />
        </mxCell>
        <mxCell id="Wti6Zjn5eSG-TVBrPJZ1-655" value="1" style="shape=partialRectangle;html=1;whiteSpace=wrap;connectable=0;strokeColor=inherit;overflow=hidden;fillColor=none;top=0;left=0;bottom=0;right=0;pointerEvents=1;fontSize=16;" parent="Wti6Zjn5eSG-TVBrPJZ1-654" vertex="1">
          <mxGeometry width="30" height="26" as="geometry">
            <mxRectangle width="30" height="26" as="alternateBounds" />
          </mxGeometry>
        </mxCell>
        <mxCell id="Wti6Zjn5eSG-TVBrPJZ1-656" value="2" style="shape=partialRectangle;html=1;whiteSpace=wrap;connectable=0;strokeColor=inherit;overflow=hidden;fillColor=none;top=0;left=0;bottom=0;right=0;pointerEvents=1;fontSize=16;" parent="Wti6Zjn5eSG-TVBrPJZ1-654" vertex="1">
          <mxGeometry x="30" width="30" height="26" as="geometry">
            <mxRectangle width="30" height="26" as="alternateBounds" />
          </mxGeometry>
        </mxCell>
        <mxCell id="Wti6Zjn5eSG-TVBrPJZ1-657" style="shape=tableRow;horizontal=0;startSize=0;swimlaneHead=0;swimlaneBody=0;strokeColor=inherit;top=0;left=0;bottom=0;right=0;collapsible=0;dropTarget=0;fillColor=none;points=[[0,0.5],[1,0.5]];portConstraint=eastwest;fontSize=16;" parent="Wti6Zjn5eSG-TVBrPJZ1-650" vertex="1">
          <mxGeometry y="52" width="60" height="28" as="geometry" />
        </mxCell>
        <mxCell id="Wti6Zjn5eSG-TVBrPJZ1-658" value="2" style="shape=partialRectangle;html=1;whiteSpace=wrap;connectable=0;strokeColor=inherit;overflow=hidden;fillColor=none;top=0;left=0;bottom=0;right=0;pointerEvents=1;fontSize=16;" parent="Wti6Zjn5eSG-TVBrPJZ1-657" vertex="1">
          <mxGeometry width="30" height="28" as="geometry">
            <mxRectangle width="30" height="28" as="alternateBounds" />
          </mxGeometry>
        </mxCell>
        <mxCell id="Wti6Zjn5eSG-TVBrPJZ1-659" value="3" style="shape=partialRectangle;html=1;whiteSpace=wrap;connectable=0;strokeColor=inherit;overflow=hidden;fillColor=none;top=0;left=0;bottom=0;right=0;pointerEvents=1;fontSize=16;" parent="Wti6Zjn5eSG-TVBrPJZ1-657" vertex="1">
          <mxGeometry x="30" width="30" height="28" as="geometry">
            <mxRectangle width="30" height="28" as="alternateBounds" />
          </mxGeometry>
        </mxCell>
        <mxCell id="Wti6Zjn5eSG-TVBrPJZ1-660" style="shape=tableRow;horizontal=0;startSize=0;swimlaneHead=0;swimlaneBody=0;strokeColor=inherit;top=0;left=0;bottom=0;right=0;collapsible=0;dropTarget=0;fillColor=none;points=[[0,0.5],[1,0.5]];portConstraint=eastwest;fontSize=16;" parent="Wti6Zjn5eSG-TVBrPJZ1-650" vertex="1">
          <mxGeometry y="80" width="60" height="26" as="geometry" />
        </mxCell>
        <mxCell id="Wti6Zjn5eSG-TVBrPJZ1-661" value="2" style="shape=partialRectangle;html=1;whiteSpace=wrap;connectable=0;strokeColor=inherit;overflow=hidden;fillColor=none;top=0;left=0;bottom=0;right=0;pointerEvents=1;fontSize=16;" parent="Wti6Zjn5eSG-TVBrPJZ1-660" vertex="1">
          <mxGeometry width="30" height="26" as="geometry">
            <mxRectangle width="30" height="26" as="alternateBounds" />
          </mxGeometry>
        </mxCell>
        <mxCell id="Wti6Zjn5eSG-TVBrPJZ1-662" value="4" style="shape=partialRectangle;html=1;whiteSpace=wrap;connectable=0;strokeColor=inherit;overflow=hidden;fillColor=none;top=0;left=0;bottom=0;right=0;pointerEvents=1;fontSize=16;" parent="Wti6Zjn5eSG-TVBrPJZ1-660" vertex="1">
          <mxGeometry x="30" width="30" height="26" as="geometry">
            <mxRectangle width="30" height="26" as="alternateBounds" />
          </mxGeometry>
        </mxCell>
        <mxCell id="Wti6Zjn5eSG-TVBrPJZ1-663" value="" style="shape=tableRow;horizontal=0;startSize=0;swimlaneHead=0;swimlaneBody=0;strokeColor=inherit;top=0;left=0;bottom=0;right=0;collapsible=0;dropTarget=0;fillColor=none;points=[[0,0.5],[1,0.5]];portConstraint=eastwest;fontSize=16;" parent="Wti6Zjn5eSG-TVBrPJZ1-650" vertex="1">
          <mxGeometry y="106" width="60" height="26" as="geometry" />
        </mxCell>
        <mxCell id="Wti6Zjn5eSG-TVBrPJZ1-664" value="4" style="shape=partialRectangle;html=1;whiteSpace=wrap;connectable=0;strokeColor=inherit;overflow=hidden;fillColor=none;top=0;left=0;bottom=0;right=0;pointerEvents=1;fontSize=16;" parent="Wti6Zjn5eSG-TVBrPJZ1-663" vertex="1">
          <mxGeometry width="30" height="26" as="geometry">
            <mxRectangle width="30" height="26" as="alternateBounds" />
          </mxGeometry>
        </mxCell>
        <mxCell id="Wti6Zjn5eSG-TVBrPJZ1-665" value="5" style="shape=partialRectangle;html=1;whiteSpace=wrap;connectable=0;strokeColor=inherit;overflow=hidden;fillColor=none;top=0;left=0;bottom=0;right=0;pointerEvents=1;fontSize=16;" parent="Wti6Zjn5eSG-TVBrPJZ1-663" vertex="1">
          <mxGeometry x="30" width="30" height="26" as="geometry">
            <mxRectangle width="30" height="26" as="alternateBounds" />
          </mxGeometry>
        </mxCell>
        <mxCell id="Wti6Zjn5eSG-TVBrPJZ1-666" value="" style="shape=tableRow;horizontal=0;startSize=0;swimlaneHead=0;swimlaneBody=0;strokeColor=inherit;top=0;left=0;bottom=0;right=0;collapsible=0;dropTarget=0;fillColor=none;points=[[0,0.5],[1,0.5]];portConstraint=eastwest;fontSize=16;" parent="Wti6Zjn5eSG-TVBrPJZ1-650" vertex="1">
          <mxGeometry y="132" width="60" height="26" as="geometry" />
        </mxCell>
        <mxCell id="Wti6Zjn5eSG-TVBrPJZ1-667" value="4" style="shape=partialRectangle;html=1;whiteSpace=wrap;connectable=0;strokeColor=inherit;overflow=hidden;fillColor=none;top=0;left=0;bottom=0;right=0;pointerEvents=1;fontSize=16;" parent="Wti6Zjn5eSG-TVBrPJZ1-666" vertex="1">
          <mxGeometry width="30" height="26" as="geometry">
            <mxRectangle width="30" height="26" as="alternateBounds" />
          </mxGeometry>
        </mxCell>
        <mxCell id="Wti6Zjn5eSG-TVBrPJZ1-668" value="6" style="shape=partialRectangle;html=1;whiteSpace=wrap;connectable=0;strokeColor=inherit;overflow=hidden;fillColor=none;top=0;left=0;bottom=0;right=0;pointerEvents=1;fontSize=16;" parent="Wti6Zjn5eSG-TVBrPJZ1-666" vertex="1">
          <mxGeometry x="30" width="30" height="26" as="geometry">
            <mxRectangle width="30" height="26" as="alternateBounds" />
          </mxGeometry>
        </mxCell>
        <mxCell id="Wti6Zjn5eSG-TVBrPJZ1-669" value="" style="shape=table;startSize=0;container=1;collapsible=0;childLayout=tableLayout;fontSize=16;" parent="1" vertex="1">
          <mxGeometry x="857.1300000000001" y="1184" width="60" height="132" as="geometry" />
        </mxCell>
        <mxCell id="Wti6Zjn5eSG-TVBrPJZ1-670" style="shape=tableRow;horizontal=0;startSize=0;swimlaneHead=0;swimlaneBody=0;strokeColor=inherit;top=0;left=0;bottom=0;right=0;collapsible=0;dropTarget=0;fillColor=none;points=[[0,0.5],[1,0.5]];portConstraint=eastwest;fontSize=16;" parent="Wti6Zjn5eSG-TVBrPJZ1-669" vertex="1">
          <mxGeometry width="60" height="26" as="geometry" />
        </mxCell>
        <mxCell id="Wti6Zjn5eSG-TVBrPJZ1-671" value="z" style="shape=partialRectangle;html=1;whiteSpace=wrap;connectable=0;strokeColor=#314354;overflow=hidden;fillColor=#647687;top=0;left=0;bottom=0;right=0;pointerEvents=1;fontSize=16;fontStyle=1;fontColor=#ffffff;" parent="Wti6Zjn5eSG-TVBrPJZ1-670" vertex="1">
          <mxGeometry width="30" height="26" as="geometry">
            <mxRectangle width="30" height="26" as="alternateBounds" />
          </mxGeometry>
        </mxCell>
        <mxCell id="Wti6Zjn5eSG-TVBrPJZ1-672" value="y" style="shape=partialRectangle;html=1;whiteSpace=wrap;connectable=0;strokeColor=#314354;overflow=hidden;fillColor=#647687;top=0;left=0;bottom=0;right=0;pointerEvents=1;fontSize=16;fontStyle=1;fontColor=#ffffff;" parent="Wti6Zjn5eSG-TVBrPJZ1-670" vertex="1">
          <mxGeometry x="30" width="30" height="26" as="geometry">
            <mxRectangle width="30" height="26" as="alternateBounds" />
          </mxGeometry>
        </mxCell>
        <mxCell id="Wti6Zjn5eSG-TVBrPJZ1-673" style="shape=tableRow;horizontal=0;startSize=0;swimlaneHead=0;swimlaneBody=0;strokeColor=inherit;top=0;left=0;bottom=0;right=0;collapsible=0;dropTarget=0;fillColor=none;points=[[0,0.5],[1,0.5]];portConstraint=eastwest;fontSize=16;" parent="Wti6Zjn5eSG-TVBrPJZ1-669" vertex="1">
          <mxGeometry y="26" width="60" height="26" as="geometry" />
        </mxCell>
        <mxCell id="Wti6Zjn5eSG-TVBrPJZ1-674" value="1" style="shape=partialRectangle;html=1;whiteSpace=wrap;connectable=0;strokeColor=inherit;overflow=hidden;fillColor=none;top=0;left=0;bottom=0;right=0;pointerEvents=1;fontSize=16;" parent="Wti6Zjn5eSG-TVBrPJZ1-673" vertex="1">
          <mxGeometry width="30" height="26" as="geometry">
            <mxRectangle width="30" height="26" as="alternateBounds" />
          </mxGeometry>
        </mxCell>
        <mxCell id="Wti6Zjn5eSG-TVBrPJZ1-675" value="3" style="shape=partialRectangle;html=1;whiteSpace=wrap;connectable=0;strokeColor=inherit;overflow=hidden;fillColor=none;top=0;left=0;bottom=0;right=0;pointerEvents=1;fontSize=16;" parent="Wti6Zjn5eSG-TVBrPJZ1-673" vertex="1">
          <mxGeometry x="30" width="30" height="26" as="geometry">
            <mxRectangle width="30" height="26" as="alternateBounds" />
          </mxGeometry>
        </mxCell>
        <mxCell id="Wti6Zjn5eSG-TVBrPJZ1-676" style="shape=tableRow;horizontal=0;startSize=0;swimlaneHead=0;swimlaneBody=0;strokeColor=inherit;top=0;left=0;bottom=0;right=0;collapsible=0;dropTarget=0;fillColor=none;points=[[0,0.5],[1,0.5]];portConstraint=eastwest;fontSize=16;" parent="Wti6Zjn5eSG-TVBrPJZ1-669" vertex="1">
          <mxGeometry y="52" width="60" height="28" as="geometry" />
        </mxCell>
        <mxCell id="Wti6Zjn5eSG-TVBrPJZ1-677" value="1" style="shape=partialRectangle;html=1;whiteSpace=wrap;connectable=0;strokeColor=inherit;overflow=hidden;fillColor=none;top=0;left=0;bottom=0;right=0;pointerEvents=1;fontSize=16;" parent="Wti6Zjn5eSG-TVBrPJZ1-676" vertex="1">
          <mxGeometry width="30" height="28" as="geometry">
            <mxRectangle width="30" height="28" as="alternateBounds" />
          </mxGeometry>
        </mxCell>
        <mxCell id="Wti6Zjn5eSG-TVBrPJZ1-678" value="4" style="shape=partialRectangle;html=1;whiteSpace=wrap;connectable=0;strokeColor=inherit;overflow=hidden;fillColor=none;top=0;left=0;bottom=0;right=0;pointerEvents=1;fontSize=16;" parent="Wti6Zjn5eSG-TVBrPJZ1-676" vertex="1">
          <mxGeometry x="30" width="30" height="28" as="geometry">
            <mxRectangle width="30" height="28" as="alternateBounds" />
          </mxGeometry>
        </mxCell>
        <mxCell id="Wti6Zjn5eSG-TVBrPJZ1-679" style="shape=tableRow;horizontal=0;startSize=0;swimlaneHead=0;swimlaneBody=0;strokeColor=inherit;top=0;left=0;bottom=0;right=0;collapsible=0;dropTarget=0;fillColor=none;points=[[0,0.5],[1,0.5]];portConstraint=eastwest;fontSize=16;" parent="Wti6Zjn5eSG-TVBrPJZ1-669" vertex="1">
          <mxGeometry y="80" width="60" height="26" as="geometry" />
        </mxCell>
        <mxCell id="Wti6Zjn5eSG-TVBrPJZ1-680" value="2" style="shape=partialRectangle;html=1;whiteSpace=wrap;connectable=0;strokeColor=inherit;overflow=hidden;fillColor=none;top=0;left=0;bottom=0;right=0;pointerEvents=1;fontSize=16;" parent="Wti6Zjn5eSG-TVBrPJZ1-679" vertex="1">
          <mxGeometry width="30" height="26" as="geometry">
            <mxRectangle width="30" height="26" as="alternateBounds" />
          </mxGeometry>
        </mxCell>
        <mxCell id="Wti6Zjn5eSG-TVBrPJZ1-681" value="5" style="shape=partialRectangle;html=1;whiteSpace=wrap;connectable=0;strokeColor=inherit;overflow=hidden;fillColor=none;top=0;left=0;bottom=0;right=0;pointerEvents=1;fontSize=16;" parent="Wti6Zjn5eSG-TVBrPJZ1-679" vertex="1">
          <mxGeometry x="30" width="30" height="26" as="geometry">
            <mxRectangle width="30" height="26" as="alternateBounds" />
          </mxGeometry>
        </mxCell>
        <mxCell id="Wti6Zjn5eSG-TVBrPJZ1-682" value="" style="shape=tableRow;horizontal=0;startSize=0;swimlaneHead=0;swimlaneBody=0;strokeColor=inherit;top=0;left=0;bottom=0;right=0;collapsible=0;dropTarget=0;fillColor=none;points=[[0,0.5],[1,0.5]];portConstraint=eastwest;fontSize=16;" parent="Wti6Zjn5eSG-TVBrPJZ1-669" vertex="1">
          <mxGeometry y="106" width="60" height="26" as="geometry" />
        </mxCell>
        <mxCell id="Wti6Zjn5eSG-TVBrPJZ1-683" value="2" style="shape=partialRectangle;html=1;whiteSpace=wrap;connectable=0;strokeColor=inherit;overflow=hidden;fillColor=none;top=0;left=0;bottom=0;right=0;pointerEvents=1;fontSize=16;" parent="Wti6Zjn5eSG-TVBrPJZ1-682" vertex="1">
          <mxGeometry width="30" height="26" as="geometry">
            <mxRectangle width="30" height="26" as="alternateBounds" />
          </mxGeometry>
        </mxCell>
        <mxCell id="Wti6Zjn5eSG-TVBrPJZ1-684" value="6" style="shape=partialRectangle;html=1;whiteSpace=wrap;connectable=0;strokeColor=inherit;overflow=hidden;fillColor=none;top=0;left=0;bottom=0;right=0;pointerEvents=1;fontSize=16;" parent="Wti6Zjn5eSG-TVBrPJZ1-682" vertex="1">
          <mxGeometry x="30" width="30" height="26" as="geometry">
            <mxRectangle width="30" height="26" as="alternateBounds" />
          </mxGeometry>
        </mxCell>
        <mxCell id="Wti6Zjn5eSG-TVBrPJZ1-688" value="Iteration 3" style="whiteSpace=wrap;html=1;fontStyle=1;flipV=0;flipH=1;rotation=0;fontSize=16;strokeColor=#005700;fontColor=#ffffff;fillColor=#006633;" parent="1" vertex="1">
          <mxGeometry x="740" y="1142" width="80" height="20" as="geometry" />
        </mxCell>
        <mxCell id="Wti6Zjn5eSG-TVBrPJZ1-690" value="TC" style="whiteSpace=wrap;html=1;fontStyle=0;strokeColor=none;flipV=0;flipH=1;rotation=0;fillColor=none;fontSize=16;" parent="1" vertex="1">
          <mxGeometry x="964" y="1152" width="50" height="20" as="geometry" />
        </mxCell>
        <mxCell id="Wti6Zjn5eSG-TVBrPJZ1-691" value="New" style="whiteSpace=wrap;html=1;fontStyle=0;strokeColor=none;flipV=0;flipH=1;rotation=0;fillColor=none;fontSize=13;" parent="1" vertex="1">
          <mxGeometry x="949" y="1166" width="80" height="20" as="geometry" />
        </mxCell>
        <mxCell id="Wti6Zjn5eSG-TVBrPJZ1-692" value="" style="shape=table;startSize=0;container=1;collapsible=0;childLayout=tableLayout;fontSize=16;" parent="1" vertex="1">
          <mxGeometry x="958.1300000000001" y="1184" width="60" height="80" as="geometry" />
        </mxCell>
        <mxCell id="Wti6Zjn5eSG-TVBrPJZ1-693" style="shape=tableRow;horizontal=0;startSize=0;swimlaneHead=0;swimlaneBody=0;strokeColor=inherit;top=0;left=0;bottom=0;right=0;collapsible=0;dropTarget=0;fillColor=none;points=[[0,0.5],[1,0.5]];portConstraint=eastwest;fontSize=16;" parent="Wti6Zjn5eSG-TVBrPJZ1-692" vertex="1">
          <mxGeometry width="60" height="26" as="geometry" />
        </mxCell>
        <mxCell id="Wti6Zjn5eSG-TVBrPJZ1-694" value="x" style="shape=partialRectangle;html=1;whiteSpace=wrap;connectable=0;strokeColor=#314354;overflow=hidden;fillColor=#647687;top=0;left=0;bottom=0;right=0;pointerEvents=1;fontSize=16;fontStyle=1;fontColor=#ffffff;" parent="Wti6Zjn5eSG-TVBrPJZ1-693" vertex="1">
          <mxGeometry width="30" height="26" as="geometry">
            <mxRectangle width="30" height="26" as="alternateBounds" />
          </mxGeometry>
        </mxCell>
        <mxCell id="Wti6Zjn5eSG-TVBrPJZ1-695" value="y" style="shape=partialRectangle;html=1;whiteSpace=wrap;connectable=0;strokeColor=#314354;overflow=hidden;fillColor=#647687;top=0;left=0;bottom=0;right=0;pointerEvents=1;fontSize=16;fontStyle=1;fontColor=#ffffff;" parent="Wti6Zjn5eSG-TVBrPJZ1-693" vertex="1">
          <mxGeometry x="30" width="30" height="26" as="geometry">
            <mxRectangle width="30" height="26" as="alternateBounds" />
          </mxGeometry>
        </mxCell>
        <mxCell id="Wti6Zjn5eSG-TVBrPJZ1-696" style="shape=tableRow;horizontal=0;startSize=0;swimlaneHead=0;swimlaneBody=0;strokeColor=inherit;top=0;left=0;bottom=0;right=0;collapsible=0;dropTarget=0;fillColor=none;points=[[0,0.5],[1,0.5]];portConstraint=eastwest;fontSize=16;" parent="Wti6Zjn5eSG-TVBrPJZ1-692" vertex="1">
          <mxGeometry y="26" width="60" height="26" as="geometry" />
        </mxCell>
        <mxCell id="Wti6Zjn5eSG-TVBrPJZ1-697" value="1" style="shape=partialRectangle;html=1;whiteSpace=wrap;connectable=0;strokeColor=inherit;overflow=hidden;fillColor=none;top=0;left=0;bottom=0;right=0;pointerEvents=1;fontSize=16;" parent="Wti6Zjn5eSG-TVBrPJZ1-696" vertex="1">
          <mxGeometry width="30" height="26" as="geometry">
            <mxRectangle width="30" height="26" as="alternateBounds" />
          </mxGeometry>
        </mxCell>
        <mxCell id="Wti6Zjn5eSG-TVBrPJZ1-698" value="5" style="shape=partialRectangle;html=1;whiteSpace=wrap;connectable=0;strokeColor=inherit;overflow=hidden;fillColor=none;top=0;left=0;bottom=0;right=0;pointerEvents=1;fontSize=16;" parent="Wti6Zjn5eSG-TVBrPJZ1-696" vertex="1">
          <mxGeometry x="30" width="30" height="26" as="geometry">
            <mxRectangle width="30" height="26" as="alternateBounds" />
          </mxGeometry>
        </mxCell>
        <mxCell id="Wti6Zjn5eSG-TVBrPJZ1-699" style="shape=tableRow;horizontal=0;startSize=0;swimlaneHead=0;swimlaneBody=0;strokeColor=inherit;top=0;left=0;bottom=0;right=0;collapsible=0;dropTarget=0;fillColor=none;points=[[0,0.5],[1,0.5]];portConstraint=eastwest;fontSize=16;" parent="Wti6Zjn5eSG-TVBrPJZ1-692" vertex="1">
          <mxGeometry y="52" width="60" height="28" as="geometry" />
        </mxCell>
        <mxCell id="Wti6Zjn5eSG-TVBrPJZ1-700" value="1" style="shape=partialRectangle;html=1;whiteSpace=wrap;connectable=0;strokeColor=inherit;overflow=hidden;fillColor=none;top=0;left=0;bottom=0;right=0;pointerEvents=1;fontSize=16;" parent="Wti6Zjn5eSG-TVBrPJZ1-699" vertex="1">
          <mxGeometry width="30" height="28" as="geometry">
            <mxRectangle width="30" height="28" as="alternateBounds" />
          </mxGeometry>
        </mxCell>
        <mxCell id="Wti6Zjn5eSG-TVBrPJZ1-701" value="6" style="shape=partialRectangle;html=1;whiteSpace=wrap;connectable=0;strokeColor=inherit;overflow=hidden;fillColor=none;top=0;left=0;bottom=0;right=0;pointerEvents=1;fontSize=16;" parent="Wti6Zjn5eSG-TVBrPJZ1-699" vertex="1">
          <mxGeometry x="30" width="30" height="28" as="geometry">
            <mxRectangle width="30" height="28" as="alternateBounds" />
          </mxGeometry>
        </mxCell>
        <mxCell id="Wti6Zjn5eSG-TVBrPJZ1-708" style="rounded=0;orthogonalLoop=1;jettySize=auto;html=1;entryX=0;entryY=0.5;entryDx=0;entryDy=0;exitX=1;exitY=0.5;exitDx=0;exitDy=0;" parent="1" source="Wti6Zjn5eSG-TVBrPJZ1-654" target="Wti6Zjn5eSG-TVBrPJZ1-679" edge="1">
          <mxGeometry relative="1" as="geometry" />
        </mxCell>
        <mxCell id="Wti6Zjn5eSG-TVBrPJZ1-709" style="rounded=0;orthogonalLoop=1;jettySize=auto;html=1;entryX=0;entryY=0.5;entryDx=0;entryDy=0;exitX=1;exitY=0.5;exitDx=0;exitDy=0;" parent="1" source="Wti6Zjn5eSG-TVBrPJZ1-654" target="Wti6Zjn5eSG-TVBrPJZ1-682" edge="1">
          <mxGeometry relative="1" as="geometry" />
        </mxCell>
        <mxCell id="Wti6Zjn5eSG-TVBrPJZ1-710" style="rounded=0;orthogonalLoop=1;jettySize=auto;html=1;entryX=0;entryY=0.5;entryDx=0;entryDy=0;exitX=1;exitY=0.5;exitDx=0;exitDy=0;" parent="1" source="Wti6Zjn5eSG-TVBrPJZ1-660" edge="1">
          <mxGeometry relative="1" as="geometry" />
        </mxCell>
        <mxCell id="Wti6Zjn5eSG-TVBrPJZ1-711" value="TC" style="whiteSpace=wrap;html=1;fontStyle=0;strokeColor=none;flipV=0;flipH=1;rotation=0;fillColor=none;fontSize=16;" parent="1" vertex="1">
          <mxGeometry x="1084.13" y="1150" width="50" height="20" as="geometry" />
        </mxCell>
        <mxCell id="Wti6Zjn5eSG-TVBrPJZ1-712" value="Delta" style="whiteSpace=wrap;html=1;fontStyle=0;strokeColor=none;flipV=0;flipH=1;rotation=0;fillColor=none;fontSize=13;" parent="1" vertex="1">
          <mxGeometry x="1070" y="1166" width="80" height="20" as="geometry" />
        </mxCell>
        <mxCell id="Wti6Zjn5eSG-TVBrPJZ1-713" value="" style="shape=table;startSize=0;container=1;collapsible=0;childLayout=tableLayout;fontSize=16;" parent="1" vertex="1">
          <mxGeometry x="1078.2600000000002" y="1184" width="60" height="80" as="geometry" />
        </mxCell>
        <mxCell id="Wti6Zjn5eSG-TVBrPJZ1-714" style="shape=tableRow;horizontal=0;startSize=0;swimlaneHead=0;swimlaneBody=0;strokeColor=inherit;top=0;left=0;bottom=0;right=0;collapsible=0;dropTarget=0;fillColor=none;points=[[0,0.5],[1,0.5]];portConstraint=eastwest;fontSize=16;" parent="Wti6Zjn5eSG-TVBrPJZ1-713" vertex="1">
          <mxGeometry width="60" height="26" as="geometry" />
        </mxCell>
        <mxCell id="Wti6Zjn5eSG-TVBrPJZ1-715" value="x" style="shape=partialRectangle;html=1;whiteSpace=wrap;connectable=0;strokeColor=#314354;overflow=hidden;fillColor=#647687;top=0;left=0;bottom=0;right=0;pointerEvents=1;fontSize=16;fontStyle=1;fontColor=#ffffff;" parent="Wti6Zjn5eSG-TVBrPJZ1-714" vertex="1">
          <mxGeometry width="30" height="26" as="geometry">
            <mxRectangle width="30" height="26" as="alternateBounds" />
          </mxGeometry>
        </mxCell>
        <mxCell id="Wti6Zjn5eSG-TVBrPJZ1-716" value="y" style="shape=partialRectangle;html=1;whiteSpace=wrap;connectable=0;strokeColor=#314354;overflow=hidden;fillColor=#647687;top=0;left=0;bottom=0;right=0;pointerEvents=1;fontSize=16;fontStyle=1;fontColor=#ffffff;" parent="Wti6Zjn5eSG-TVBrPJZ1-714" vertex="1">
          <mxGeometry x="30" width="30" height="26" as="geometry">
            <mxRectangle width="30" height="26" as="alternateBounds" />
          </mxGeometry>
        </mxCell>
        <mxCell id="Wti6Zjn5eSG-TVBrPJZ1-717" style="shape=tableRow;horizontal=0;startSize=0;swimlaneHead=0;swimlaneBody=0;strokeColor=inherit;top=0;left=0;bottom=0;right=0;collapsible=0;dropTarget=0;fillColor=none;points=[[0,0.5],[1,0.5]];portConstraint=eastwest;fontSize=16;" parent="Wti6Zjn5eSG-TVBrPJZ1-713" vertex="1">
          <mxGeometry y="26" width="60" height="26" as="geometry" />
        </mxCell>
        <mxCell id="Wti6Zjn5eSG-TVBrPJZ1-718" value="1" style="shape=partialRectangle;html=1;whiteSpace=wrap;connectable=0;strokeColor=inherit;overflow=hidden;fillColor=none;top=0;left=0;bottom=0;right=0;pointerEvents=1;fontSize=16;" parent="Wti6Zjn5eSG-TVBrPJZ1-717" vertex="1">
          <mxGeometry width="30" height="26" as="geometry">
            <mxRectangle width="30" height="26" as="alternateBounds" />
          </mxGeometry>
        </mxCell>
        <mxCell id="Wti6Zjn5eSG-TVBrPJZ1-719" value="5" style="shape=partialRectangle;html=1;whiteSpace=wrap;connectable=0;strokeColor=inherit;overflow=hidden;fillColor=none;top=0;left=0;bottom=0;right=0;pointerEvents=1;fontSize=16;" parent="Wti6Zjn5eSG-TVBrPJZ1-717" vertex="1">
          <mxGeometry x="30" width="30" height="26" as="geometry">
            <mxRectangle width="30" height="26" as="alternateBounds" />
          </mxGeometry>
        </mxCell>
        <mxCell id="Wti6Zjn5eSG-TVBrPJZ1-720" style="shape=tableRow;horizontal=0;startSize=0;swimlaneHead=0;swimlaneBody=0;strokeColor=inherit;top=0;left=0;bottom=0;right=0;collapsible=0;dropTarget=0;fillColor=none;points=[[0,0.5],[1,0.5]];portConstraint=eastwest;fontSize=16;" parent="Wti6Zjn5eSG-TVBrPJZ1-713" vertex="1">
          <mxGeometry y="52" width="60" height="28" as="geometry" />
        </mxCell>
        <mxCell id="Wti6Zjn5eSG-TVBrPJZ1-721" value="1" style="shape=partialRectangle;html=1;whiteSpace=wrap;connectable=0;strokeColor=inherit;overflow=hidden;fillColor=none;top=0;left=0;bottom=0;right=0;pointerEvents=1;fontSize=16;" parent="Wti6Zjn5eSG-TVBrPJZ1-720" vertex="1">
          <mxGeometry width="30" height="28" as="geometry">
            <mxRectangle width="30" height="28" as="alternateBounds" />
          </mxGeometry>
        </mxCell>
        <mxCell id="Wti6Zjn5eSG-TVBrPJZ1-722" value="6" style="shape=partialRectangle;html=1;whiteSpace=wrap;connectable=0;strokeColor=inherit;overflow=hidden;fillColor=none;top=0;left=0;bottom=0;right=0;pointerEvents=1;fontSize=16;" parent="Wti6Zjn5eSG-TVBrPJZ1-720" vertex="1">
          <mxGeometry x="30" width="30" height="28" as="geometry">
            <mxRectangle width="30" height="28" as="alternateBounds" />
          </mxGeometry>
        </mxCell>
        <mxCell id="Wti6Zjn5eSG-TVBrPJZ1-729" value="⋈" style="whiteSpace=wrap;html=1;fontStyle=0;strokeColor=none;flipV=0;flipH=1;rotation=0;fillColor=none;fontSize=32;" parent="1" vertex="1">
          <mxGeometry x="816" y="1186" width="50" height="20" as="geometry" />
        </mxCell>
        <mxCell id="Wti6Zjn5eSG-TVBrPJZ1-730" value="TC" style="whiteSpace=wrap;html=1;fontStyle=0;strokeColor=none;flipV=0;flipH=1;rotation=0;fillColor=none;fontSize=16;" parent="1" vertex="1">
          <mxGeometry x="1188" y="1150" width="120" height="20" as="geometry" />
        </mxCell>
        <mxCell id="Wti6Zjn5eSG-TVBrPJZ1-731" value="Full" style="whiteSpace=wrap;html=1;fontStyle=0;strokeColor=none;flipV=0;flipH=1;rotation=0;fillColor=none;fontSize=13;" parent="1" vertex="1">
          <mxGeometry x="1188" y="1166" width="120" height="20" as="geometry" />
        </mxCell>
        <mxCell id="Wti6Zjn5eSG-TVBrPJZ1-732" value="" style="shape=table;startSize=0;container=1;collapsible=0;childLayout=tableLayout;fontSize=16;" parent="1" vertex="1">
          <mxGeometry x="1186.13" y="1184" width="60" height="184" as="geometry" />
        </mxCell>
        <mxCell id="Wti6Zjn5eSG-TVBrPJZ1-733" style="shape=tableRow;horizontal=0;startSize=0;swimlaneHead=0;swimlaneBody=0;strokeColor=inherit;top=0;left=0;bottom=0;right=0;collapsible=0;dropTarget=0;fillColor=none;points=[[0,0.5],[1,0.5]];portConstraint=eastwest;fontSize=16;" parent="Wti6Zjn5eSG-TVBrPJZ1-732" vertex="1">
          <mxGeometry width="60" height="26" as="geometry" />
        </mxCell>
        <mxCell id="Wti6Zjn5eSG-TVBrPJZ1-734" value="x" style="shape=partialRectangle;html=1;whiteSpace=wrap;connectable=0;strokeColor=#314354;overflow=hidden;fillColor=#647687;top=0;left=0;bottom=0;right=0;pointerEvents=1;fontSize=16;fontStyle=1;fontColor=#ffffff;" parent="Wti6Zjn5eSG-TVBrPJZ1-733" vertex="1">
          <mxGeometry width="30" height="26" as="geometry">
            <mxRectangle width="30" height="26" as="alternateBounds" />
          </mxGeometry>
        </mxCell>
        <mxCell id="Wti6Zjn5eSG-TVBrPJZ1-735" value="y" style="shape=partialRectangle;html=1;whiteSpace=wrap;connectable=0;strokeColor=#314354;overflow=hidden;fillColor=#647687;top=0;left=0;bottom=0;right=0;pointerEvents=1;fontSize=16;fontStyle=1;fontColor=#ffffff;" parent="Wti6Zjn5eSG-TVBrPJZ1-733" vertex="1">
          <mxGeometry x="30" width="30" height="26" as="geometry">
            <mxRectangle width="30" height="26" as="alternateBounds" />
          </mxGeometry>
        </mxCell>
        <mxCell id="Wti6Zjn5eSG-TVBrPJZ1-736" style="shape=tableRow;horizontal=0;startSize=0;swimlaneHead=0;swimlaneBody=0;strokeColor=inherit;top=0;left=0;bottom=0;right=0;collapsible=0;dropTarget=0;fillColor=none;points=[[0,0.5],[1,0.5]];portConstraint=eastwest;fontSize=16;" parent="Wti6Zjn5eSG-TVBrPJZ1-732" vertex="1">
          <mxGeometry y="26" width="60" height="26" as="geometry" />
        </mxCell>
        <mxCell id="Wti6Zjn5eSG-TVBrPJZ1-737" value="1" style="shape=partialRectangle;html=1;whiteSpace=wrap;connectable=0;strokeColor=inherit;overflow=hidden;fillColor=none;top=0;left=0;bottom=0;right=0;pointerEvents=1;fontSize=16;" parent="Wti6Zjn5eSG-TVBrPJZ1-736" vertex="1">
          <mxGeometry width="30" height="26" as="geometry">
            <mxRectangle width="30" height="26" as="alternateBounds" />
          </mxGeometry>
        </mxCell>
        <mxCell id="Wti6Zjn5eSG-TVBrPJZ1-738" value="2" style="shape=partialRectangle;html=1;whiteSpace=wrap;connectable=0;strokeColor=inherit;overflow=hidden;fillColor=none;top=0;left=0;bottom=0;right=0;pointerEvents=1;fontSize=16;" parent="Wti6Zjn5eSG-TVBrPJZ1-736" vertex="1">
          <mxGeometry x="30" width="30" height="26" as="geometry">
            <mxRectangle width="30" height="26" as="alternateBounds" />
          </mxGeometry>
        </mxCell>
        <mxCell id="Wti6Zjn5eSG-TVBrPJZ1-739" style="shape=tableRow;horizontal=0;startSize=0;swimlaneHead=0;swimlaneBody=0;strokeColor=inherit;top=0;left=0;bottom=0;right=0;collapsible=0;dropTarget=0;fillColor=none;points=[[0,0.5],[1,0.5]];portConstraint=eastwest;fontSize=16;" parent="Wti6Zjn5eSG-TVBrPJZ1-732" vertex="1">
          <mxGeometry y="52" width="60" height="28" as="geometry" />
        </mxCell>
        <mxCell id="Wti6Zjn5eSG-TVBrPJZ1-740" value="1" style="shape=partialRectangle;html=1;whiteSpace=wrap;connectable=0;strokeColor=inherit;overflow=hidden;fillColor=none;top=0;left=0;bottom=0;right=0;pointerEvents=1;fontSize=16;fontColor=light-dark(#000000,#EDEDED);fontStyle=0" parent="Wti6Zjn5eSG-TVBrPJZ1-739" vertex="1">
          <mxGeometry width="30" height="28" as="geometry">
            <mxRectangle width="30" height="28" as="alternateBounds" />
          </mxGeometry>
        </mxCell>
        <mxCell id="Wti6Zjn5eSG-TVBrPJZ1-741" value="3" style="shape=partialRectangle;html=1;whiteSpace=wrap;connectable=0;strokeColor=inherit;overflow=hidden;fillColor=none;top=0;left=0;bottom=0;right=0;pointerEvents=1;fontSize=16;fontColor=light-dark(#000000,#EDEDED);fontStyle=0" parent="Wti6Zjn5eSG-TVBrPJZ1-739" vertex="1">
          <mxGeometry x="30" width="30" height="28" as="geometry">
            <mxRectangle width="30" height="28" as="alternateBounds" />
          </mxGeometry>
        </mxCell>
        <mxCell id="Wti6Zjn5eSG-TVBrPJZ1-742" style="shape=tableRow;horizontal=0;startSize=0;swimlaneHead=0;swimlaneBody=0;strokeColor=inherit;top=0;left=0;bottom=0;right=0;collapsible=0;dropTarget=0;fillColor=none;points=[[0,0.5],[1,0.5]];portConstraint=eastwest;fontSize=16;" parent="Wti6Zjn5eSG-TVBrPJZ1-732" vertex="1">
          <mxGeometry y="80" width="60" height="26" as="geometry" />
        </mxCell>
        <mxCell id="Wti6Zjn5eSG-TVBrPJZ1-743" value="1" style="shape=partialRectangle;html=1;whiteSpace=wrap;connectable=0;strokeColor=inherit;overflow=hidden;fillColor=none;top=0;left=0;bottom=0;right=0;pointerEvents=1;fontSize=16;" parent="Wti6Zjn5eSG-TVBrPJZ1-742" vertex="1">
          <mxGeometry width="30" height="26" as="geometry">
            <mxRectangle width="30" height="26" as="alternateBounds" />
          </mxGeometry>
        </mxCell>
        <mxCell id="Wti6Zjn5eSG-TVBrPJZ1-744" value="4" style="shape=partialRectangle;html=1;whiteSpace=wrap;connectable=0;strokeColor=inherit;overflow=hidden;fillColor=none;top=0;left=0;bottom=0;right=0;pointerEvents=1;fontSize=16;" parent="Wti6Zjn5eSG-TVBrPJZ1-742" vertex="1">
          <mxGeometry x="30" width="30" height="26" as="geometry">
            <mxRectangle width="30" height="26" as="alternateBounds" />
          </mxGeometry>
        </mxCell>
        <mxCell id="Wti6Zjn5eSG-TVBrPJZ1-745" value="" style="shape=tableRow;horizontal=0;startSize=0;swimlaneHead=0;swimlaneBody=0;strokeColor=inherit;top=0;left=0;bottom=0;right=0;collapsible=0;dropTarget=0;fillColor=none;points=[[0,0.5],[1,0.5]];portConstraint=eastwest;fontSize=16;" parent="Wti6Zjn5eSG-TVBrPJZ1-732" vertex="1">
          <mxGeometry y="106" width="60" height="26" as="geometry" />
        </mxCell>
        <mxCell id="Wti6Zjn5eSG-TVBrPJZ1-746" value="1" style="shape=partialRectangle;html=1;whiteSpace=wrap;connectable=0;strokeColor=#005700;overflow=hidden;fillColor=#006633;top=0;left=0;bottom=0;right=0;pointerEvents=1;fontSize=16;fontStyle=1;fontColor=#ffffff;" parent="Wti6Zjn5eSG-TVBrPJZ1-745" vertex="1">
          <mxGeometry width="30" height="26" as="geometry">
            <mxRectangle width="30" height="26" as="alternateBounds" />
          </mxGeometry>
        </mxCell>
        <mxCell id="Wti6Zjn5eSG-TVBrPJZ1-747" value="5" style="shape=partialRectangle;html=1;whiteSpace=wrap;connectable=0;strokeColor=#005700;overflow=hidden;fillColor=#006633;top=0;left=0;bottom=0;right=0;pointerEvents=1;fontSize=16;fontStyle=1;fontColor=#ffffff;" parent="Wti6Zjn5eSG-TVBrPJZ1-745" vertex="1">
          <mxGeometry x="30" width="30" height="26" as="geometry">
            <mxRectangle width="30" height="26" as="alternateBounds" />
          </mxGeometry>
        </mxCell>
        <mxCell id="Wti6Zjn5eSG-TVBrPJZ1-748" style="shape=tableRow;horizontal=0;startSize=0;swimlaneHead=0;swimlaneBody=0;strokeColor=inherit;top=0;left=0;bottom=0;right=0;collapsible=0;dropTarget=0;fillColor=none;points=[[0,0.5],[1,0.5]];portConstraint=eastwest;fontSize=16;" parent="Wti6Zjn5eSG-TVBrPJZ1-732" vertex="1">
          <mxGeometry y="132" width="60" height="26" as="geometry" />
        </mxCell>
        <mxCell id="Wti6Zjn5eSG-TVBrPJZ1-749" value="1" style="shape=partialRectangle;html=1;whiteSpace=wrap;connectable=0;strokeColor=#005700;overflow=hidden;fillColor=#006633;top=0;left=0;bottom=0;right=0;pointerEvents=1;fontSize=16;fontStyle=1;fontColor=#ffffff;" parent="Wti6Zjn5eSG-TVBrPJZ1-748" vertex="1">
          <mxGeometry width="30" height="26" as="geometry">
            <mxRectangle width="30" height="26" as="alternateBounds" />
          </mxGeometry>
        </mxCell>
        <mxCell id="Wti6Zjn5eSG-TVBrPJZ1-750" value="6" style="shape=partialRectangle;html=1;whiteSpace=wrap;connectable=0;strokeColor=#005700;overflow=hidden;fillColor=#006633;top=0;left=0;bottom=0;right=0;pointerEvents=1;fontSize=16;fontStyle=1;fontColor=#ffffff;" parent="Wti6Zjn5eSG-TVBrPJZ1-748" vertex="1">
          <mxGeometry x="30" width="30" height="26" as="geometry">
            <mxRectangle width="30" height="26" as="alternateBounds" />
          </mxGeometry>
        </mxCell>
        <mxCell id="Wti6Zjn5eSG-TVBrPJZ1-776" style="shape=tableRow;horizontal=0;startSize=0;swimlaneHead=0;swimlaneBody=0;strokeColor=inherit;top=0;left=0;bottom=0;right=0;collapsible=0;dropTarget=0;fillColor=none;points=[[0,0.5],[1,0.5]];portConstraint=eastwest;fontSize=16;" parent="Wti6Zjn5eSG-TVBrPJZ1-732" vertex="1">
          <mxGeometry y="158" width="60" height="26" as="geometry" />
        </mxCell>
        <mxCell id="Wti6Zjn5eSG-TVBrPJZ1-777" value="2" style="shape=partialRectangle;html=1;whiteSpace=wrap;connectable=0;strokeColor=inherit;overflow=hidden;fillColor=none;top=0;left=0;bottom=0;right=0;pointerEvents=1;fontSize=16;" parent="Wti6Zjn5eSG-TVBrPJZ1-776" vertex="1">
          <mxGeometry width="30" height="26" as="geometry">
            <mxRectangle width="30" height="26" as="alternateBounds" />
          </mxGeometry>
        </mxCell>
        <mxCell id="Wti6Zjn5eSG-TVBrPJZ1-778" value="3" style="shape=partialRectangle;html=1;whiteSpace=wrap;connectable=0;strokeColor=inherit;overflow=hidden;fillColor=none;top=0;left=0;bottom=0;right=0;pointerEvents=1;fontSize=16;" parent="Wti6Zjn5eSG-TVBrPJZ1-776" vertex="1">
          <mxGeometry x="30" width="30" height="26" as="geometry">
            <mxRectangle width="30" height="26" as="alternateBounds" />
          </mxGeometry>
        </mxCell>
        <mxCell id="Wti6Zjn5eSG-TVBrPJZ1-751" value="&lt;span&gt;Join&lt;/span&gt;" style="whiteSpace=wrap;html=1;fontStyle=0;strokeColor=none;flipV=0;flipH=1;rotation=0;fillColor=none;fontSize=14;" parent="1" vertex="1">
          <mxGeometry x="918.13" y="1206" width="37.87" height="60" as="geometry" />
        </mxCell>
        <mxCell id="Wti6Zjn5eSG-TVBrPJZ1-752" value="&lt;span&gt;Populate&lt;/span&gt;&lt;div&gt;&lt;span&gt;Delta&lt;/span&gt;&lt;/div&gt;" style="whiteSpace=wrap;html=1;fontStyle=0;strokeColor=none;flipV=0;flipH=1;rotation=0;fillColor=none;fontSize=14;" parent="1" vertex="1">
          <mxGeometry x="1030.13" y="1203.13" width="36.87" height="60" as="geometry" />
        </mxCell>
        <mxCell id="Wti6Zjn5eSG-TVBrPJZ1-753" value="&lt;span&gt;Merge&lt;/span&gt;&lt;div&gt;&lt;span&gt;Full &amp;amp;&lt;/span&gt;&lt;/div&gt;&lt;div&gt;&lt;span&gt;Delta&lt;/span&gt;&lt;/div&gt;" style="whiteSpace=wrap;html=1;fontStyle=0;strokeColor=none;flipV=0;flipH=1;rotation=0;fillColor=none;fontSize=14;" parent="1" vertex="1">
          <mxGeometry x="1145.2600000000002" y="1201" width="36.87" height="60" as="geometry" />
        </mxCell>
        <mxCell id="Wti6Zjn5eSG-TVBrPJZ1-754" value="" style="shape=table;startSize=0;container=1;collapsible=0;childLayout=tableLayout;fontSize=16;" parent="1" vertex="1">
          <mxGeometry x="1251" y="1184" width="60" height="158" as="geometry" />
        </mxCell>
        <mxCell id="Wti6Zjn5eSG-TVBrPJZ1-755" style="shape=tableRow;horizontal=0;startSize=0;swimlaneHead=0;swimlaneBody=0;strokeColor=inherit;top=0;left=0;bottom=0;right=0;collapsible=0;dropTarget=0;fillColor=none;points=[[0,0.5],[1,0.5]];portConstraint=eastwest;fontSize=16;" parent="Wti6Zjn5eSG-TVBrPJZ1-754" vertex="1">
          <mxGeometry width="60" height="26" as="geometry" />
        </mxCell>
        <mxCell id="Wti6Zjn5eSG-TVBrPJZ1-756" value="x" style="shape=partialRectangle;html=1;whiteSpace=wrap;connectable=0;strokeColor=#314354;overflow=hidden;fillColor=#647687;top=0;left=0;bottom=0;right=0;pointerEvents=1;fontSize=16;fontStyle=1;fontColor=#ffffff;" parent="Wti6Zjn5eSG-TVBrPJZ1-755" vertex="1">
          <mxGeometry width="30" height="26" as="geometry">
            <mxRectangle width="30" height="26" as="alternateBounds" />
          </mxGeometry>
        </mxCell>
        <mxCell id="Wti6Zjn5eSG-TVBrPJZ1-757" value="y" style="shape=partialRectangle;html=1;whiteSpace=wrap;connectable=0;strokeColor=#314354;overflow=hidden;fillColor=#647687;top=0;left=0;bottom=0;right=0;pointerEvents=1;fontSize=16;fontStyle=1;fontColor=#ffffff;" parent="Wti6Zjn5eSG-TVBrPJZ1-755" vertex="1">
          <mxGeometry x="30" width="30" height="26" as="geometry">
            <mxRectangle width="30" height="26" as="alternateBounds" />
          </mxGeometry>
        </mxCell>
        <mxCell id="Wti6Zjn5eSG-TVBrPJZ1-770" style="shape=tableRow;horizontal=0;startSize=0;swimlaneHead=0;swimlaneBody=0;strokeColor=inherit;top=0;left=0;bottom=0;right=0;collapsible=0;dropTarget=0;fillColor=none;points=[[0,0.5],[1,0.5]];portConstraint=eastwest;fontSize=16;" parent="Wti6Zjn5eSG-TVBrPJZ1-754" vertex="1">
          <mxGeometry y="26" width="60" height="26" as="geometry" />
        </mxCell>
        <mxCell id="Wti6Zjn5eSG-TVBrPJZ1-771" value="2" style="shape=partialRectangle;html=1;whiteSpace=wrap;connectable=0;strokeColor=inherit;overflow=hidden;fillColor=none;top=0;left=0;bottom=0;right=0;pointerEvents=1;fontSize=16;fontStyle=0;fontColor=light-dark(#000000,#EDEDED);" parent="Wti6Zjn5eSG-TVBrPJZ1-770" vertex="1">
          <mxGeometry width="30" height="26" as="geometry">
            <mxRectangle width="30" height="26" as="alternateBounds" />
          </mxGeometry>
        </mxCell>
        <mxCell id="Wti6Zjn5eSG-TVBrPJZ1-772" value="4" style="shape=partialRectangle;html=1;whiteSpace=wrap;connectable=0;strokeColor=inherit;overflow=hidden;fillColor=none;top=0;left=0;bottom=0;right=0;pointerEvents=1;fontSize=16;fontStyle=0;fontColor=light-dark(#000000,#EDEDED);" parent="Wti6Zjn5eSG-TVBrPJZ1-770" vertex="1">
          <mxGeometry x="30" width="30" height="26" as="geometry">
            <mxRectangle width="30" height="26" as="alternateBounds" />
          </mxGeometry>
        </mxCell>
        <mxCell id="Wti6Zjn5eSG-TVBrPJZ1-758" style="shape=tableRow;horizontal=0;startSize=0;swimlaneHead=0;swimlaneBody=0;strokeColor=inherit;top=0;left=0;bottom=0;right=0;collapsible=0;dropTarget=0;fillColor=none;points=[[0,0.5],[1,0.5]];portConstraint=eastwest;fontSize=16;" parent="Wti6Zjn5eSG-TVBrPJZ1-754" vertex="1">
          <mxGeometry y="52" width="60" height="26" as="geometry" />
        </mxCell>
        <mxCell id="Wti6Zjn5eSG-TVBrPJZ1-759" value="2" style="shape=partialRectangle;html=1;whiteSpace=wrap;connectable=0;strokeColor=inherit;overflow=hidden;fillColor=none;top=0;left=0;bottom=0;right=0;pointerEvents=1;fontSize=16;fontStyle=0;fontColor=light-dark(#000000,#EDEDED);" parent="Wti6Zjn5eSG-TVBrPJZ1-758" vertex="1">
          <mxGeometry width="30" height="26" as="geometry">
            <mxRectangle width="30" height="26" as="alternateBounds" />
          </mxGeometry>
        </mxCell>
        <mxCell id="Wti6Zjn5eSG-TVBrPJZ1-760" value="5" style="shape=partialRectangle;html=1;whiteSpace=wrap;connectable=0;strokeColor=inherit;overflow=hidden;fillColor=none;top=0;left=0;bottom=0;right=0;pointerEvents=1;fontSize=16;fontStyle=0;fontColor=light-dark(#000000,#EDEDED);" parent="Wti6Zjn5eSG-TVBrPJZ1-758" vertex="1">
          <mxGeometry x="30" width="30" height="26" as="geometry">
            <mxRectangle width="30" height="26" as="alternateBounds" />
          </mxGeometry>
        </mxCell>
        <mxCell id="Wti6Zjn5eSG-TVBrPJZ1-761" style="shape=tableRow;horizontal=0;startSize=0;swimlaneHead=0;swimlaneBody=0;strokeColor=inherit;top=0;left=0;bottom=0;right=0;collapsible=0;dropTarget=0;fillColor=none;points=[[0,0.5],[1,0.5]];portConstraint=eastwest;fontSize=16;" parent="Wti6Zjn5eSG-TVBrPJZ1-754" vertex="1">
          <mxGeometry y="78" width="60" height="28" as="geometry" />
        </mxCell>
        <mxCell id="Wti6Zjn5eSG-TVBrPJZ1-762" value="2" style="shape=partialRectangle;html=1;whiteSpace=wrap;connectable=0;strokeColor=inherit;overflow=hidden;fillColor=none;top=0;left=0;bottom=0;right=0;pointerEvents=1;fontSize=16;fontStyle=0;fontColor=light-dark(#000000,#EDEDED);" parent="Wti6Zjn5eSG-TVBrPJZ1-761" vertex="1">
          <mxGeometry width="30" height="28" as="geometry">
            <mxRectangle width="30" height="28" as="alternateBounds" />
          </mxGeometry>
        </mxCell>
        <mxCell id="Wti6Zjn5eSG-TVBrPJZ1-763" value="6" style="shape=partialRectangle;html=1;whiteSpace=wrap;connectable=0;strokeColor=inherit;overflow=hidden;fillColor=none;top=0;left=0;bottom=0;right=0;pointerEvents=1;fontSize=16;fontStyle=0;fontColor=light-dark(#000000,#EDEDED);" parent="Wti6Zjn5eSG-TVBrPJZ1-761" vertex="1">
          <mxGeometry x="30" width="30" height="28" as="geometry">
            <mxRectangle width="30" height="28" as="alternateBounds" />
          </mxGeometry>
        </mxCell>
        <mxCell id="Wti6Zjn5eSG-TVBrPJZ1-764" style="shape=tableRow;horizontal=0;startSize=0;swimlaneHead=0;swimlaneBody=0;strokeColor=inherit;top=0;left=0;bottom=0;right=0;collapsible=0;dropTarget=0;fillColor=none;points=[[0,0.5],[1,0.5]];portConstraint=eastwest;fontSize=16;" parent="Wti6Zjn5eSG-TVBrPJZ1-754" vertex="1">
          <mxGeometry y="106" width="60" height="26" as="geometry" />
        </mxCell>
        <mxCell id="Wti6Zjn5eSG-TVBrPJZ1-765" value="4" style="shape=partialRectangle;html=1;whiteSpace=wrap;connectable=0;strokeColor=inherit;overflow=hidden;fillColor=none;top=0;left=0;bottom=0;right=0;pointerEvents=1;fontSize=16;" parent="Wti6Zjn5eSG-TVBrPJZ1-764" vertex="1">
          <mxGeometry width="30" height="26" as="geometry">
            <mxRectangle width="30" height="26" as="alternateBounds" />
          </mxGeometry>
        </mxCell>
        <mxCell id="Wti6Zjn5eSG-TVBrPJZ1-766" value="5" style="shape=partialRectangle;html=1;whiteSpace=wrap;connectable=0;strokeColor=inherit;overflow=hidden;fillColor=none;top=0;left=0;bottom=0;right=0;pointerEvents=1;fontSize=16;" parent="Wti6Zjn5eSG-TVBrPJZ1-764" vertex="1">
          <mxGeometry x="30" width="30" height="26" as="geometry">
            <mxRectangle width="30" height="26" as="alternateBounds" />
          </mxGeometry>
        </mxCell>
        <mxCell id="Wti6Zjn5eSG-TVBrPJZ1-767" value="" style="shape=tableRow;horizontal=0;startSize=0;swimlaneHead=0;swimlaneBody=0;strokeColor=inherit;top=0;left=0;bottom=0;right=0;collapsible=0;dropTarget=0;fillColor=none;points=[[0,0.5],[1,0.5]];portConstraint=eastwest;fontSize=16;" parent="Wti6Zjn5eSG-TVBrPJZ1-754" vertex="1">
          <mxGeometry y="132" width="60" height="26" as="geometry" />
        </mxCell>
        <mxCell id="Wti6Zjn5eSG-TVBrPJZ1-768" value="4" style="shape=partialRectangle;html=1;whiteSpace=wrap;connectable=0;strokeColor=inherit;overflow=hidden;fillColor=none;top=0;left=0;bottom=0;right=0;pointerEvents=1;fontSize=16;" parent="Wti6Zjn5eSG-TVBrPJZ1-767" vertex="1">
          <mxGeometry width="30" height="26" as="geometry">
            <mxRectangle width="30" height="26" as="alternateBounds" />
          </mxGeometry>
        </mxCell>
        <mxCell id="Wti6Zjn5eSG-TVBrPJZ1-769" value="6" style="shape=partialRectangle;html=1;whiteSpace=wrap;connectable=0;strokeColor=inherit;overflow=hidden;fillColor=none;top=0;left=0;bottom=0;right=0;pointerEvents=1;fontSize=16;" parent="Wti6Zjn5eSG-TVBrPJZ1-767" vertex="1">
          <mxGeometry x="30" width="30" height="26" as="geometry">
            <mxRectangle width="30" height="26" as="alternateBounds" />
          </mxGeometry>
        </mxCell>
        <mxCell id="Wti6Zjn5eSG-TVBrPJZ1-779" value="Edge" style="whiteSpace=wrap;html=1;fontStyle=0;strokeColor=none;flipV=0;flipH=1;rotation=0;fillColor=none;fontSize=16;" parent="1" vertex="1">
          <mxGeometry x="772" y="1382" width="50" height="20" as="geometry" />
        </mxCell>
        <mxCell id="Wti6Zjn5eSG-TVBrPJZ1-780" value="TC" style="whiteSpace=wrap;html=1;fontStyle=0;strokeColor=none;flipV=0;flipH=1;rotation=0;fillColor=none;fontSize=16;" parent="1" vertex="1">
          <mxGeometry x="865" y="1370" width="50" height="20" as="geometry" />
        </mxCell>
        <mxCell id="Wti6Zjn5eSG-TVBrPJZ1-781" value="Delta" style="whiteSpace=wrap;html=1;fontStyle=0;strokeColor=none;flipV=0;flipH=1;rotation=0;fillColor=none;fontSize=13;" parent="1" vertex="1">
          <mxGeometry x="851" y="1384" width="80" height="20" as="geometry" />
        </mxCell>
        <mxCell id="Wti6Zjn5eSG-TVBrPJZ1-782" value="" style="shape=table;startSize=0;container=1;collapsible=0;childLayout=tableLayout;fontSize=16;" parent="1" vertex="1">
          <mxGeometry x="767" y="1404" width="60" height="158" as="geometry" />
        </mxCell>
        <mxCell id="Wti6Zjn5eSG-TVBrPJZ1-783" style="shape=tableRow;horizontal=0;startSize=0;swimlaneHead=0;swimlaneBody=0;strokeColor=inherit;top=0;left=0;bottom=0;right=0;collapsible=0;dropTarget=0;fillColor=none;points=[[0,0.5],[1,0.5]];portConstraint=eastwest;fontSize=16;" parent="Wti6Zjn5eSG-TVBrPJZ1-782" vertex="1">
          <mxGeometry width="60" height="26" as="geometry" />
        </mxCell>
        <mxCell id="Wti6Zjn5eSG-TVBrPJZ1-784" value="x" style="shape=partialRectangle;html=1;whiteSpace=wrap;connectable=0;strokeColor=#314354;overflow=hidden;fillColor=#647687;top=0;left=0;bottom=0;right=0;pointerEvents=1;fontSize=16;fontStyle=1;fontColor=#ffffff;" parent="Wti6Zjn5eSG-TVBrPJZ1-783" vertex="1">
          <mxGeometry width="30" height="26" as="geometry">
            <mxRectangle width="30" height="26" as="alternateBounds" />
          </mxGeometry>
        </mxCell>
        <mxCell id="Wti6Zjn5eSG-TVBrPJZ1-785" value="z" style="shape=partialRectangle;html=1;whiteSpace=wrap;connectable=0;strokeColor=#314354;overflow=hidden;fillColor=#647687;top=0;left=0;bottom=0;right=0;pointerEvents=1;fontSize=16;fontStyle=1;fontColor=#ffffff;" parent="Wti6Zjn5eSG-TVBrPJZ1-783" vertex="1">
          <mxGeometry x="30" width="30" height="26" as="geometry">
            <mxRectangle width="30" height="26" as="alternateBounds" />
          </mxGeometry>
        </mxCell>
        <mxCell id="Wti6Zjn5eSG-TVBrPJZ1-786" style="shape=tableRow;horizontal=0;startSize=0;swimlaneHead=0;swimlaneBody=0;strokeColor=inherit;top=0;left=0;bottom=0;right=0;collapsible=0;dropTarget=0;fillColor=none;points=[[0,0.5],[1,0.5]];portConstraint=eastwest;fontSize=16;" parent="Wti6Zjn5eSG-TVBrPJZ1-782" vertex="1">
          <mxGeometry y="26" width="60" height="26" as="geometry" />
        </mxCell>
        <mxCell id="Wti6Zjn5eSG-TVBrPJZ1-787" value="1" style="shape=partialRectangle;html=1;whiteSpace=wrap;connectable=0;strokeColor=inherit;overflow=hidden;fillColor=none;top=0;left=0;bottom=0;right=0;pointerEvents=1;fontSize=16;" parent="Wti6Zjn5eSG-TVBrPJZ1-786" vertex="1">
          <mxGeometry width="30" height="26" as="geometry">
            <mxRectangle width="30" height="26" as="alternateBounds" />
          </mxGeometry>
        </mxCell>
        <mxCell id="Wti6Zjn5eSG-TVBrPJZ1-788" value="2" style="shape=partialRectangle;html=1;whiteSpace=wrap;connectable=0;strokeColor=inherit;overflow=hidden;fillColor=none;top=0;left=0;bottom=0;right=0;pointerEvents=1;fontSize=16;" parent="Wti6Zjn5eSG-TVBrPJZ1-786" vertex="1">
          <mxGeometry x="30" width="30" height="26" as="geometry">
            <mxRectangle width="30" height="26" as="alternateBounds" />
          </mxGeometry>
        </mxCell>
        <mxCell id="Wti6Zjn5eSG-TVBrPJZ1-789" style="shape=tableRow;horizontal=0;startSize=0;swimlaneHead=0;swimlaneBody=0;strokeColor=inherit;top=0;left=0;bottom=0;right=0;collapsible=0;dropTarget=0;fillColor=none;points=[[0,0.5],[1,0.5]];portConstraint=eastwest;fontSize=16;" parent="Wti6Zjn5eSG-TVBrPJZ1-782" vertex="1">
          <mxGeometry y="52" width="60" height="28" as="geometry" />
        </mxCell>
        <mxCell id="Wti6Zjn5eSG-TVBrPJZ1-790" value="2" style="shape=partialRectangle;html=1;whiteSpace=wrap;connectable=0;strokeColor=inherit;overflow=hidden;fillColor=none;top=0;left=0;bottom=0;right=0;pointerEvents=1;fontSize=16;" parent="Wti6Zjn5eSG-TVBrPJZ1-789" vertex="1">
          <mxGeometry width="30" height="28" as="geometry">
            <mxRectangle width="30" height="28" as="alternateBounds" />
          </mxGeometry>
        </mxCell>
        <mxCell id="Wti6Zjn5eSG-TVBrPJZ1-791" value="3" style="shape=partialRectangle;html=1;whiteSpace=wrap;connectable=0;strokeColor=inherit;overflow=hidden;fillColor=none;top=0;left=0;bottom=0;right=0;pointerEvents=1;fontSize=16;" parent="Wti6Zjn5eSG-TVBrPJZ1-789" vertex="1">
          <mxGeometry x="30" width="30" height="28" as="geometry">
            <mxRectangle width="30" height="28" as="alternateBounds" />
          </mxGeometry>
        </mxCell>
        <mxCell id="Wti6Zjn5eSG-TVBrPJZ1-792" style="shape=tableRow;horizontal=0;startSize=0;swimlaneHead=0;swimlaneBody=0;strokeColor=inherit;top=0;left=0;bottom=0;right=0;collapsible=0;dropTarget=0;fillColor=none;points=[[0,0.5],[1,0.5]];portConstraint=eastwest;fontSize=16;" parent="Wti6Zjn5eSG-TVBrPJZ1-782" vertex="1">
          <mxGeometry y="80" width="60" height="26" as="geometry" />
        </mxCell>
        <mxCell id="Wti6Zjn5eSG-TVBrPJZ1-793" value="2" style="shape=partialRectangle;html=1;whiteSpace=wrap;connectable=0;strokeColor=inherit;overflow=hidden;fillColor=none;top=0;left=0;bottom=0;right=0;pointerEvents=1;fontSize=16;" parent="Wti6Zjn5eSG-TVBrPJZ1-792" vertex="1">
          <mxGeometry width="30" height="26" as="geometry">
            <mxRectangle width="30" height="26" as="alternateBounds" />
          </mxGeometry>
        </mxCell>
        <mxCell id="Wti6Zjn5eSG-TVBrPJZ1-794" value="4" style="shape=partialRectangle;html=1;whiteSpace=wrap;connectable=0;strokeColor=inherit;overflow=hidden;fillColor=none;top=0;left=0;bottom=0;right=0;pointerEvents=1;fontSize=16;" parent="Wti6Zjn5eSG-TVBrPJZ1-792" vertex="1">
          <mxGeometry x="30" width="30" height="26" as="geometry">
            <mxRectangle width="30" height="26" as="alternateBounds" />
          </mxGeometry>
        </mxCell>
        <mxCell id="Wti6Zjn5eSG-TVBrPJZ1-795" value="" style="shape=tableRow;horizontal=0;startSize=0;swimlaneHead=0;swimlaneBody=0;strokeColor=inherit;top=0;left=0;bottom=0;right=0;collapsible=0;dropTarget=0;fillColor=none;points=[[0,0.5],[1,0.5]];portConstraint=eastwest;fontSize=16;" parent="Wti6Zjn5eSG-TVBrPJZ1-782" vertex="1">
          <mxGeometry y="106" width="60" height="26" as="geometry" />
        </mxCell>
        <mxCell id="Wti6Zjn5eSG-TVBrPJZ1-796" value="4" style="shape=partialRectangle;html=1;whiteSpace=wrap;connectable=0;strokeColor=inherit;overflow=hidden;fillColor=none;top=0;left=0;bottom=0;right=0;pointerEvents=1;fontSize=16;" parent="Wti6Zjn5eSG-TVBrPJZ1-795" vertex="1">
          <mxGeometry width="30" height="26" as="geometry">
            <mxRectangle width="30" height="26" as="alternateBounds" />
          </mxGeometry>
        </mxCell>
        <mxCell id="Wti6Zjn5eSG-TVBrPJZ1-797" value="5" style="shape=partialRectangle;html=1;whiteSpace=wrap;connectable=0;strokeColor=inherit;overflow=hidden;fillColor=none;top=0;left=0;bottom=0;right=0;pointerEvents=1;fontSize=16;" parent="Wti6Zjn5eSG-TVBrPJZ1-795" vertex="1">
          <mxGeometry x="30" width="30" height="26" as="geometry">
            <mxRectangle width="30" height="26" as="alternateBounds" />
          </mxGeometry>
        </mxCell>
        <mxCell id="Wti6Zjn5eSG-TVBrPJZ1-798" value="" style="shape=tableRow;horizontal=0;startSize=0;swimlaneHead=0;swimlaneBody=0;strokeColor=inherit;top=0;left=0;bottom=0;right=0;collapsible=0;dropTarget=0;fillColor=none;points=[[0,0.5],[1,0.5]];portConstraint=eastwest;fontSize=16;" parent="Wti6Zjn5eSG-TVBrPJZ1-782" vertex="1">
          <mxGeometry y="132" width="60" height="26" as="geometry" />
        </mxCell>
        <mxCell id="Wti6Zjn5eSG-TVBrPJZ1-799" value="4" style="shape=partialRectangle;html=1;whiteSpace=wrap;connectable=0;strokeColor=inherit;overflow=hidden;fillColor=none;top=0;left=0;bottom=0;right=0;pointerEvents=1;fontSize=16;" parent="Wti6Zjn5eSG-TVBrPJZ1-798" vertex="1">
          <mxGeometry width="30" height="26" as="geometry">
            <mxRectangle width="30" height="26" as="alternateBounds" />
          </mxGeometry>
        </mxCell>
        <mxCell id="Wti6Zjn5eSG-TVBrPJZ1-800" value="6" style="shape=partialRectangle;html=1;whiteSpace=wrap;connectable=0;strokeColor=inherit;overflow=hidden;fillColor=none;top=0;left=0;bottom=0;right=0;pointerEvents=1;fontSize=16;" parent="Wti6Zjn5eSG-TVBrPJZ1-798" vertex="1">
          <mxGeometry x="30" width="30" height="26" as="geometry">
            <mxRectangle width="30" height="26" as="alternateBounds" />
          </mxGeometry>
        </mxCell>
        <mxCell id="Wti6Zjn5eSG-TVBrPJZ1-801" value="" style="shape=table;startSize=0;container=1;collapsible=0;childLayout=tableLayout;fontSize=16;" parent="1" vertex="1">
          <mxGeometry x="859.1300000000001" y="1404" width="60" height="80" as="geometry" />
        </mxCell>
        <mxCell id="Wti6Zjn5eSG-TVBrPJZ1-802" style="shape=tableRow;horizontal=0;startSize=0;swimlaneHead=0;swimlaneBody=0;strokeColor=inherit;top=0;left=0;bottom=0;right=0;collapsible=0;dropTarget=0;fillColor=none;points=[[0,0.5],[1,0.5]];portConstraint=eastwest;fontSize=16;" parent="Wti6Zjn5eSG-TVBrPJZ1-801" vertex="1">
          <mxGeometry width="60" height="26" as="geometry" />
        </mxCell>
        <mxCell id="Wti6Zjn5eSG-TVBrPJZ1-803" value="z" style="shape=partialRectangle;html=1;whiteSpace=wrap;connectable=0;strokeColor=#314354;overflow=hidden;fillColor=#647687;top=0;left=0;bottom=0;right=0;pointerEvents=1;fontSize=16;fontStyle=1;fontColor=#ffffff;" parent="Wti6Zjn5eSG-TVBrPJZ1-802" vertex="1">
          <mxGeometry width="30" height="26" as="geometry">
            <mxRectangle width="30" height="26" as="alternateBounds" />
          </mxGeometry>
        </mxCell>
        <mxCell id="Wti6Zjn5eSG-TVBrPJZ1-804" value="y" style="shape=partialRectangle;html=1;whiteSpace=wrap;connectable=0;strokeColor=#314354;overflow=hidden;fillColor=#647687;top=0;left=0;bottom=0;right=0;pointerEvents=1;fontSize=16;fontStyle=1;fontColor=#ffffff;" parent="Wti6Zjn5eSG-TVBrPJZ1-802" vertex="1">
          <mxGeometry x="30" width="30" height="26" as="geometry">
            <mxRectangle width="30" height="26" as="alternateBounds" />
          </mxGeometry>
        </mxCell>
        <mxCell id="Wti6Zjn5eSG-TVBrPJZ1-805" style="shape=tableRow;horizontal=0;startSize=0;swimlaneHead=0;swimlaneBody=0;strokeColor=inherit;top=0;left=0;bottom=0;right=0;collapsible=0;dropTarget=0;fillColor=none;points=[[0,0.5],[1,0.5]];portConstraint=eastwest;fontSize=16;" parent="Wti6Zjn5eSG-TVBrPJZ1-801" vertex="1">
          <mxGeometry y="26" width="60" height="26" as="geometry" />
        </mxCell>
        <mxCell id="Wti6Zjn5eSG-TVBrPJZ1-806" value="1" style="shape=partialRectangle;html=1;whiteSpace=wrap;connectable=0;strokeColor=inherit;overflow=hidden;fillColor=none;top=0;left=0;bottom=0;right=0;pointerEvents=1;fontSize=16;" parent="Wti6Zjn5eSG-TVBrPJZ1-805" vertex="1">
          <mxGeometry width="30" height="26" as="geometry">
            <mxRectangle width="30" height="26" as="alternateBounds" />
          </mxGeometry>
        </mxCell>
        <mxCell id="Wti6Zjn5eSG-TVBrPJZ1-807" value="5" style="shape=partialRectangle;html=1;whiteSpace=wrap;connectable=0;strokeColor=inherit;overflow=hidden;fillColor=none;top=0;left=0;bottom=0;right=0;pointerEvents=1;fontSize=16;" parent="Wti6Zjn5eSG-TVBrPJZ1-805" vertex="1">
          <mxGeometry x="30" width="30" height="26" as="geometry">
            <mxRectangle width="30" height="26" as="alternateBounds" />
          </mxGeometry>
        </mxCell>
        <mxCell id="Wti6Zjn5eSG-TVBrPJZ1-808" style="shape=tableRow;horizontal=0;startSize=0;swimlaneHead=0;swimlaneBody=0;strokeColor=inherit;top=0;left=0;bottom=0;right=0;collapsible=0;dropTarget=0;fillColor=none;points=[[0,0.5],[1,0.5]];portConstraint=eastwest;fontSize=16;" parent="Wti6Zjn5eSG-TVBrPJZ1-801" vertex="1">
          <mxGeometry y="52" width="60" height="28" as="geometry" />
        </mxCell>
        <mxCell id="Wti6Zjn5eSG-TVBrPJZ1-809" value="1" style="shape=partialRectangle;html=1;whiteSpace=wrap;connectable=0;strokeColor=inherit;overflow=hidden;fillColor=none;top=0;left=0;bottom=0;right=0;pointerEvents=1;fontSize=16;" parent="Wti6Zjn5eSG-TVBrPJZ1-808" vertex="1">
          <mxGeometry width="30" height="28" as="geometry">
            <mxRectangle width="30" height="28" as="alternateBounds" />
          </mxGeometry>
        </mxCell>
        <mxCell id="Wti6Zjn5eSG-TVBrPJZ1-810" value="6" style="shape=partialRectangle;html=1;whiteSpace=wrap;connectable=0;strokeColor=inherit;overflow=hidden;fillColor=none;top=0;left=0;bottom=0;right=0;pointerEvents=1;fontSize=16;" parent="Wti6Zjn5eSG-TVBrPJZ1-808" vertex="1">
          <mxGeometry x="30" width="30" height="28" as="geometry">
            <mxRectangle width="30" height="28" as="alternateBounds" />
          </mxGeometry>
        </mxCell>
        <mxCell id="Wti6Zjn5eSG-TVBrPJZ1-817" value="Iteration 4" style="whiteSpace=wrap;html=1;fontStyle=1;flipV=0;flipH=1;rotation=0;fontSize=16;strokeColor=#006EAF;fontColor=#ffffff;fillColor=#1ba1e2;" parent="1" vertex="1">
          <mxGeometry x="742" y="1362" width="80" height="20" as="geometry" />
        </mxCell>
        <mxCell id="Wti6Zjn5eSG-TVBrPJZ1-818" value="TC" style="whiteSpace=wrap;html=1;fontStyle=0;strokeColor=none;flipV=0;flipH=1;rotation=0;fillColor=none;fontSize=16;" parent="1" vertex="1">
          <mxGeometry x="966" y="1372" width="50" height="20" as="geometry" />
        </mxCell>
        <mxCell id="Wti6Zjn5eSG-TVBrPJZ1-819" value="New" style="whiteSpace=wrap;html=1;fontStyle=0;strokeColor=none;flipV=0;flipH=1;rotation=0;fillColor=none;fontSize=13;" parent="1" vertex="1">
          <mxGeometry x="951" y="1386" width="80" height="20" as="geometry" />
        </mxCell>
        <mxCell id="Wti6Zjn5eSG-TVBrPJZ1-830" style="rounded=0;orthogonalLoop=1;jettySize=auto;html=1;entryX=0;entryY=0.5;entryDx=0;entryDy=0;exitX=1;exitY=0.5;exitDx=0;exitDy=0;" parent="1" source="Wti6Zjn5eSG-TVBrPJZ1-786" edge="1">
          <mxGeometry relative="1" as="geometry" />
        </mxCell>
        <mxCell id="Wti6Zjn5eSG-TVBrPJZ1-831" style="rounded=0;orthogonalLoop=1;jettySize=auto;html=1;entryX=0;entryY=0.5;entryDx=0;entryDy=0;exitX=1;exitY=0.5;exitDx=0;exitDy=0;" parent="1" source="Wti6Zjn5eSG-TVBrPJZ1-786" edge="1">
          <mxGeometry relative="1" as="geometry" />
        </mxCell>
        <mxCell id="Wti6Zjn5eSG-TVBrPJZ1-832" value="TC" style="whiteSpace=wrap;html=1;fontStyle=0;strokeColor=none;flipV=0;flipH=1;rotation=0;fillColor=none;fontSize=16;" parent="1" vertex="1">
          <mxGeometry x="1086.13" y="1370" width="50" height="20" as="geometry" />
        </mxCell>
        <mxCell id="Wti6Zjn5eSG-TVBrPJZ1-833" value="Delta" style="whiteSpace=wrap;html=1;fontStyle=0;strokeColor=none;flipV=0;flipH=1;rotation=0;fillColor=none;fontSize=13;" parent="1" vertex="1">
          <mxGeometry x="1072" y="1386" width="80" height="20" as="geometry" />
        </mxCell>
        <mxCell id="Wti6Zjn5eSG-TVBrPJZ1-844" value="⋈" style="whiteSpace=wrap;html=1;fontStyle=0;strokeColor=none;flipV=0;flipH=1;rotation=0;fillColor=none;fontSize=32;" parent="1" vertex="1">
          <mxGeometry x="818" y="1406" width="50" height="20" as="geometry" />
        </mxCell>
        <mxCell id="Wti6Zjn5eSG-TVBrPJZ1-845" value="TC" style="whiteSpace=wrap;html=1;fontStyle=0;strokeColor=none;flipV=0;flipH=1;rotation=0;fillColor=none;fontSize=16;" parent="1" vertex="1">
          <mxGeometry x="1190" y="1370" width="120" height="20" as="geometry" />
        </mxCell>
        <mxCell id="Wti6Zjn5eSG-TVBrPJZ1-846" value="Full" style="whiteSpace=wrap;html=1;fontStyle=0;strokeColor=none;flipV=0;flipH=1;rotation=0;fillColor=none;fontSize=13;" parent="1" vertex="1">
          <mxGeometry x="1190" y="1386" width="120" height="20" as="geometry" />
        </mxCell>
        <mxCell id="Wti6Zjn5eSG-TVBrPJZ1-847" value="" style="shape=table;startSize=0;container=1;collapsible=0;childLayout=tableLayout;fontSize=16;" parent="1" vertex="1">
          <mxGeometry x="1188.13" y="1404" width="60" height="184" as="geometry" />
        </mxCell>
        <mxCell id="Wti6Zjn5eSG-TVBrPJZ1-848" style="shape=tableRow;horizontal=0;startSize=0;swimlaneHead=0;swimlaneBody=0;strokeColor=inherit;top=0;left=0;bottom=0;right=0;collapsible=0;dropTarget=0;fillColor=none;points=[[0,0.5],[1,0.5]];portConstraint=eastwest;fontSize=16;" parent="Wti6Zjn5eSG-TVBrPJZ1-847" vertex="1">
          <mxGeometry width="60" height="26" as="geometry" />
        </mxCell>
        <mxCell id="Wti6Zjn5eSG-TVBrPJZ1-849" value="x" style="shape=partialRectangle;html=1;whiteSpace=wrap;connectable=0;strokeColor=#314354;overflow=hidden;fillColor=#647687;top=0;left=0;bottom=0;right=0;pointerEvents=1;fontSize=16;fontStyle=1;fontColor=#ffffff;" parent="Wti6Zjn5eSG-TVBrPJZ1-848" vertex="1">
          <mxGeometry width="30" height="26" as="geometry">
            <mxRectangle width="30" height="26" as="alternateBounds" />
          </mxGeometry>
        </mxCell>
        <mxCell id="Wti6Zjn5eSG-TVBrPJZ1-850" value="y" style="shape=partialRectangle;html=1;whiteSpace=wrap;connectable=0;strokeColor=#314354;overflow=hidden;fillColor=#647687;top=0;left=0;bottom=0;right=0;pointerEvents=1;fontSize=16;fontStyle=1;fontColor=#ffffff;" parent="Wti6Zjn5eSG-TVBrPJZ1-848" vertex="1">
          <mxGeometry x="30" width="30" height="26" as="geometry">
            <mxRectangle width="30" height="26" as="alternateBounds" />
          </mxGeometry>
        </mxCell>
        <mxCell id="Wti6Zjn5eSG-TVBrPJZ1-851" style="shape=tableRow;horizontal=0;startSize=0;swimlaneHead=0;swimlaneBody=0;strokeColor=inherit;top=0;left=0;bottom=0;right=0;collapsible=0;dropTarget=0;fillColor=none;points=[[0,0.5],[1,0.5]];portConstraint=eastwest;fontSize=16;" parent="Wti6Zjn5eSG-TVBrPJZ1-847" vertex="1">
          <mxGeometry y="26" width="60" height="26" as="geometry" />
        </mxCell>
        <mxCell id="Wti6Zjn5eSG-TVBrPJZ1-852" value="1" style="shape=partialRectangle;html=1;whiteSpace=wrap;connectable=0;strokeColor=inherit;overflow=hidden;fillColor=none;top=0;left=0;bottom=0;right=0;pointerEvents=1;fontSize=16;" parent="Wti6Zjn5eSG-TVBrPJZ1-851" vertex="1">
          <mxGeometry width="30" height="26" as="geometry">
            <mxRectangle width="30" height="26" as="alternateBounds" />
          </mxGeometry>
        </mxCell>
        <mxCell id="Wti6Zjn5eSG-TVBrPJZ1-853" value="2" style="shape=partialRectangle;html=1;whiteSpace=wrap;connectable=0;strokeColor=inherit;overflow=hidden;fillColor=none;top=0;left=0;bottom=0;right=0;pointerEvents=1;fontSize=16;" parent="Wti6Zjn5eSG-TVBrPJZ1-851" vertex="1">
          <mxGeometry x="30" width="30" height="26" as="geometry">
            <mxRectangle width="30" height="26" as="alternateBounds" />
          </mxGeometry>
        </mxCell>
        <mxCell id="Wti6Zjn5eSG-TVBrPJZ1-854" style="shape=tableRow;horizontal=0;startSize=0;swimlaneHead=0;swimlaneBody=0;strokeColor=inherit;top=0;left=0;bottom=0;right=0;collapsible=0;dropTarget=0;fillColor=none;points=[[0,0.5],[1,0.5]];portConstraint=eastwest;fontSize=16;" parent="Wti6Zjn5eSG-TVBrPJZ1-847" vertex="1">
          <mxGeometry y="52" width="60" height="28" as="geometry" />
        </mxCell>
        <mxCell id="Wti6Zjn5eSG-TVBrPJZ1-855" value="1" style="shape=partialRectangle;html=1;whiteSpace=wrap;connectable=0;strokeColor=inherit;overflow=hidden;fillColor=none;top=0;left=0;bottom=0;right=0;pointerEvents=1;fontSize=16;fontColor=light-dark(#000000,#EDEDED);fontStyle=0" parent="Wti6Zjn5eSG-TVBrPJZ1-854" vertex="1">
          <mxGeometry width="30" height="28" as="geometry">
            <mxRectangle width="30" height="28" as="alternateBounds" />
          </mxGeometry>
        </mxCell>
        <mxCell id="Wti6Zjn5eSG-TVBrPJZ1-856" value="3" style="shape=partialRectangle;html=1;whiteSpace=wrap;connectable=0;strokeColor=inherit;overflow=hidden;fillColor=none;top=0;left=0;bottom=0;right=0;pointerEvents=1;fontSize=16;fontColor=light-dark(#000000,#EDEDED);fontStyle=0" parent="Wti6Zjn5eSG-TVBrPJZ1-854" vertex="1">
          <mxGeometry x="30" width="30" height="28" as="geometry">
            <mxRectangle width="30" height="28" as="alternateBounds" />
          </mxGeometry>
        </mxCell>
        <mxCell id="Wti6Zjn5eSG-TVBrPJZ1-857" style="shape=tableRow;horizontal=0;startSize=0;swimlaneHead=0;swimlaneBody=0;strokeColor=inherit;top=0;left=0;bottom=0;right=0;collapsible=0;dropTarget=0;fillColor=none;points=[[0,0.5],[1,0.5]];portConstraint=eastwest;fontSize=16;" parent="Wti6Zjn5eSG-TVBrPJZ1-847" vertex="1">
          <mxGeometry y="80" width="60" height="26" as="geometry" />
        </mxCell>
        <mxCell id="Wti6Zjn5eSG-TVBrPJZ1-858" value="1" style="shape=partialRectangle;html=1;whiteSpace=wrap;connectable=0;strokeColor=inherit;overflow=hidden;fillColor=none;top=0;left=0;bottom=0;right=0;pointerEvents=1;fontSize=16;" parent="Wti6Zjn5eSG-TVBrPJZ1-857" vertex="1">
          <mxGeometry width="30" height="26" as="geometry">
            <mxRectangle width="30" height="26" as="alternateBounds" />
          </mxGeometry>
        </mxCell>
        <mxCell id="Wti6Zjn5eSG-TVBrPJZ1-859" value="4" style="shape=partialRectangle;html=1;whiteSpace=wrap;connectable=0;strokeColor=inherit;overflow=hidden;fillColor=none;top=0;left=0;bottom=0;right=0;pointerEvents=1;fontSize=16;" parent="Wti6Zjn5eSG-TVBrPJZ1-857" vertex="1">
          <mxGeometry x="30" width="30" height="26" as="geometry">
            <mxRectangle width="30" height="26" as="alternateBounds" />
          </mxGeometry>
        </mxCell>
        <mxCell id="Wti6Zjn5eSG-TVBrPJZ1-860" value="" style="shape=tableRow;horizontal=0;startSize=0;swimlaneHead=0;swimlaneBody=0;strokeColor=inherit;top=0;left=0;bottom=0;right=0;collapsible=0;dropTarget=0;fillColor=none;points=[[0,0.5],[1,0.5]];portConstraint=eastwest;fontSize=16;" parent="Wti6Zjn5eSG-TVBrPJZ1-847" vertex="1">
          <mxGeometry y="106" width="60" height="26" as="geometry" />
        </mxCell>
        <mxCell id="Wti6Zjn5eSG-TVBrPJZ1-861" value="1" style="shape=partialRectangle;html=1;whiteSpace=wrap;connectable=0;strokeColor=inherit;overflow=hidden;fillColor=none;top=0;left=0;bottom=0;right=0;pointerEvents=1;fontSize=16;fontStyle=0;fontColor=#000000;" parent="Wti6Zjn5eSG-TVBrPJZ1-860" vertex="1">
          <mxGeometry width="30" height="26" as="geometry">
            <mxRectangle width="30" height="26" as="alternateBounds" />
          </mxGeometry>
        </mxCell>
        <mxCell id="Wti6Zjn5eSG-TVBrPJZ1-862" value="5" style="shape=partialRectangle;html=1;whiteSpace=wrap;connectable=0;strokeColor=inherit;overflow=hidden;fillColor=none;top=0;left=0;bottom=0;right=0;pointerEvents=1;fontSize=16;fontStyle=0;fontColor=#000000;" parent="Wti6Zjn5eSG-TVBrPJZ1-860" vertex="1">
          <mxGeometry x="30" width="30" height="26" as="geometry">
            <mxRectangle width="30" height="26" as="alternateBounds" />
          </mxGeometry>
        </mxCell>
        <mxCell id="Wti6Zjn5eSG-TVBrPJZ1-863" style="shape=tableRow;horizontal=0;startSize=0;swimlaneHead=0;swimlaneBody=0;strokeColor=inherit;top=0;left=0;bottom=0;right=0;collapsible=0;dropTarget=0;fillColor=none;points=[[0,0.5],[1,0.5]];portConstraint=eastwest;fontSize=16;" parent="Wti6Zjn5eSG-TVBrPJZ1-847" vertex="1">
          <mxGeometry y="132" width="60" height="26" as="geometry" />
        </mxCell>
        <mxCell id="Wti6Zjn5eSG-TVBrPJZ1-864" value="1" style="shape=partialRectangle;html=1;whiteSpace=wrap;connectable=0;strokeColor=inherit;overflow=hidden;fillColor=none;top=0;left=0;bottom=0;right=0;pointerEvents=1;fontSize=16;fontStyle=0;fontColor=#000000;" parent="Wti6Zjn5eSG-TVBrPJZ1-863" vertex="1">
          <mxGeometry width="30" height="26" as="geometry">
            <mxRectangle width="30" height="26" as="alternateBounds" />
          </mxGeometry>
        </mxCell>
        <mxCell id="Wti6Zjn5eSG-TVBrPJZ1-865" value="6" style="shape=partialRectangle;html=1;whiteSpace=wrap;connectable=0;strokeColor=inherit;overflow=hidden;fillColor=none;top=0;left=0;bottom=0;right=0;pointerEvents=1;fontSize=16;fontStyle=0;fontColor=#000000;" parent="Wti6Zjn5eSG-TVBrPJZ1-863" vertex="1">
          <mxGeometry x="30" width="30" height="26" as="geometry">
            <mxRectangle width="30" height="26" as="alternateBounds" />
          </mxGeometry>
        </mxCell>
        <mxCell id="Wti6Zjn5eSG-TVBrPJZ1-866" style="shape=tableRow;horizontal=0;startSize=0;swimlaneHead=0;swimlaneBody=0;strokeColor=inherit;top=0;left=0;bottom=0;right=0;collapsible=0;dropTarget=0;fillColor=none;points=[[0,0.5],[1,0.5]];portConstraint=eastwest;fontSize=16;" parent="Wti6Zjn5eSG-TVBrPJZ1-847" vertex="1">
          <mxGeometry y="158" width="60" height="26" as="geometry" />
        </mxCell>
        <mxCell id="Wti6Zjn5eSG-TVBrPJZ1-867" value="2" style="shape=partialRectangle;html=1;whiteSpace=wrap;connectable=0;strokeColor=inherit;overflow=hidden;fillColor=none;top=0;left=0;bottom=0;right=0;pointerEvents=1;fontSize=16;" parent="Wti6Zjn5eSG-TVBrPJZ1-866" vertex="1">
          <mxGeometry width="30" height="26" as="geometry">
            <mxRectangle width="30" height="26" as="alternateBounds" />
          </mxGeometry>
        </mxCell>
        <mxCell id="Wti6Zjn5eSG-TVBrPJZ1-868" value="3" style="shape=partialRectangle;html=1;whiteSpace=wrap;connectable=0;strokeColor=inherit;overflow=hidden;fillColor=none;top=0;left=0;bottom=0;right=0;pointerEvents=1;fontSize=16;" parent="Wti6Zjn5eSG-TVBrPJZ1-866" vertex="1">
          <mxGeometry x="30" width="30" height="26" as="geometry">
            <mxRectangle width="30" height="26" as="alternateBounds" />
          </mxGeometry>
        </mxCell>
        <mxCell id="Wti6Zjn5eSG-TVBrPJZ1-869" value="&lt;span&gt;Join&lt;/span&gt;" style="whiteSpace=wrap;html=1;fontStyle=0;strokeColor=none;flipV=0;flipH=1;rotation=0;fillColor=none;fontSize=14;" parent="1" vertex="1">
          <mxGeometry x="920.13" y="1397" width="37.87" height="60" as="geometry" />
        </mxCell>
        <mxCell id="Wti6Zjn5eSG-TVBrPJZ1-870" value="&lt;span&gt;Populate&lt;/span&gt;&lt;div&gt;&lt;span&gt;Delta&lt;/span&gt;&lt;/div&gt;" style="whiteSpace=wrap;html=1;fontStyle=0;strokeColor=none;flipV=0;flipH=1;rotation=0;fillColor=none;fontSize=14;" parent="1" vertex="1">
          <mxGeometry x="1032.13" y="1394.13" width="36.87" height="60" as="geometry" />
        </mxCell>
        <mxCell id="Wti6Zjn5eSG-TVBrPJZ1-872" value="" style="shape=table;startSize=0;container=1;collapsible=0;childLayout=tableLayout;fontSize=16;" parent="1" vertex="1">
          <mxGeometry x="1253" y="1404" width="60" height="158" as="geometry" />
        </mxCell>
        <mxCell id="Wti6Zjn5eSG-TVBrPJZ1-873" style="shape=tableRow;horizontal=0;startSize=0;swimlaneHead=0;swimlaneBody=0;strokeColor=inherit;top=0;left=0;bottom=0;right=0;collapsible=0;dropTarget=0;fillColor=none;points=[[0,0.5],[1,0.5]];portConstraint=eastwest;fontSize=16;" parent="Wti6Zjn5eSG-TVBrPJZ1-872" vertex="1">
          <mxGeometry width="60" height="26" as="geometry" />
        </mxCell>
        <mxCell id="Wti6Zjn5eSG-TVBrPJZ1-874" value="x" style="shape=partialRectangle;html=1;whiteSpace=wrap;connectable=0;strokeColor=#314354;overflow=hidden;fillColor=#647687;top=0;left=0;bottom=0;right=0;pointerEvents=1;fontSize=16;fontStyle=1;fontColor=#ffffff;" parent="Wti6Zjn5eSG-TVBrPJZ1-873" vertex="1">
          <mxGeometry width="30" height="26" as="geometry">
            <mxRectangle width="30" height="26" as="alternateBounds" />
          </mxGeometry>
        </mxCell>
        <mxCell id="Wti6Zjn5eSG-TVBrPJZ1-875" value="y" style="shape=partialRectangle;html=1;whiteSpace=wrap;connectable=0;strokeColor=#314354;overflow=hidden;fillColor=#647687;top=0;left=0;bottom=0;right=0;pointerEvents=1;fontSize=16;fontStyle=1;fontColor=#ffffff;" parent="Wti6Zjn5eSG-TVBrPJZ1-873" vertex="1">
          <mxGeometry x="30" width="30" height="26" as="geometry">
            <mxRectangle width="30" height="26" as="alternateBounds" />
          </mxGeometry>
        </mxCell>
        <mxCell id="Wti6Zjn5eSG-TVBrPJZ1-876" style="shape=tableRow;horizontal=0;startSize=0;swimlaneHead=0;swimlaneBody=0;strokeColor=inherit;top=0;left=0;bottom=0;right=0;collapsible=0;dropTarget=0;fillColor=none;points=[[0,0.5],[1,0.5]];portConstraint=eastwest;fontSize=16;" parent="Wti6Zjn5eSG-TVBrPJZ1-872" vertex="1">
          <mxGeometry y="26" width="60" height="26" as="geometry" />
        </mxCell>
        <mxCell id="Wti6Zjn5eSG-TVBrPJZ1-877" value="2" style="shape=partialRectangle;html=1;whiteSpace=wrap;connectable=0;strokeColor=inherit;overflow=hidden;fillColor=none;top=0;left=0;bottom=0;right=0;pointerEvents=1;fontSize=16;fontStyle=0;fontColor=light-dark(#000000,#EDEDED);" parent="Wti6Zjn5eSG-TVBrPJZ1-876" vertex="1">
          <mxGeometry width="30" height="26" as="geometry">
            <mxRectangle width="30" height="26" as="alternateBounds" />
          </mxGeometry>
        </mxCell>
        <mxCell id="Wti6Zjn5eSG-TVBrPJZ1-878" value="4" style="shape=partialRectangle;html=1;whiteSpace=wrap;connectable=0;strokeColor=inherit;overflow=hidden;fillColor=none;top=0;left=0;bottom=0;right=0;pointerEvents=1;fontSize=16;fontStyle=0;fontColor=light-dark(#000000,#EDEDED);" parent="Wti6Zjn5eSG-TVBrPJZ1-876" vertex="1">
          <mxGeometry x="30" width="30" height="26" as="geometry">
            <mxRectangle width="30" height="26" as="alternateBounds" />
          </mxGeometry>
        </mxCell>
        <mxCell id="Wti6Zjn5eSG-TVBrPJZ1-879" style="shape=tableRow;horizontal=0;startSize=0;swimlaneHead=0;swimlaneBody=0;strokeColor=inherit;top=0;left=0;bottom=0;right=0;collapsible=0;dropTarget=0;fillColor=none;points=[[0,0.5],[1,0.5]];portConstraint=eastwest;fontSize=16;" parent="Wti6Zjn5eSG-TVBrPJZ1-872" vertex="1">
          <mxGeometry y="52" width="60" height="26" as="geometry" />
        </mxCell>
        <mxCell id="Wti6Zjn5eSG-TVBrPJZ1-880" value="2" style="shape=partialRectangle;html=1;whiteSpace=wrap;connectable=0;strokeColor=inherit;overflow=hidden;fillColor=none;top=0;left=0;bottom=0;right=0;pointerEvents=1;fontSize=16;fontStyle=0;fontColor=light-dark(#000000,#EDEDED);" parent="Wti6Zjn5eSG-TVBrPJZ1-879" vertex="1">
          <mxGeometry width="30" height="26" as="geometry">
            <mxRectangle width="30" height="26" as="alternateBounds" />
          </mxGeometry>
        </mxCell>
        <mxCell id="Wti6Zjn5eSG-TVBrPJZ1-881" value="5" style="shape=partialRectangle;html=1;whiteSpace=wrap;connectable=0;strokeColor=inherit;overflow=hidden;fillColor=none;top=0;left=0;bottom=0;right=0;pointerEvents=1;fontSize=16;fontStyle=0;fontColor=light-dark(#000000,#EDEDED);" parent="Wti6Zjn5eSG-TVBrPJZ1-879" vertex="1">
          <mxGeometry x="30" width="30" height="26" as="geometry">
            <mxRectangle width="30" height="26" as="alternateBounds" />
          </mxGeometry>
        </mxCell>
        <mxCell id="Wti6Zjn5eSG-TVBrPJZ1-882" style="shape=tableRow;horizontal=0;startSize=0;swimlaneHead=0;swimlaneBody=0;strokeColor=inherit;top=0;left=0;bottom=0;right=0;collapsible=0;dropTarget=0;fillColor=none;points=[[0,0.5],[1,0.5]];portConstraint=eastwest;fontSize=16;" parent="Wti6Zjn5eSG-TVBrPJZ1-872" vertex="1">
          <mxGeometry y="78" width="60" height="28" as="geometry" />
        </mxCell>
        <mxCell id="Wti6Zjn5eSG-TVBrPJZ1-883" value="2" style="shape=partialRectangle;html=1;whiteSpace=wrap;connectable=0;strokeColor=inherit;overflow=hidden;fillColor=none;top=0;left=0;bottom=0;right=0;pointerEvents=1;fontSize=16;fontStyle=0;fontColor=light-dark(#000000,#EDEDED);" parent="Wti6Zjn5eSG-TVBrPJZ1-882" vertex="1">
          <mxGeometry width="30" height="28" as="geometry">
            <mxRectangle width="30" height="28" as="alternateBounds" />
          </mxGeometry>
        </mxCell>
        <mxCell id="Wti6Zjn5eSG-TVBrPJZ1-884" value="6" style="shape=partialRectangle;html=1;whiteSpace=wrap;connectable=0;strokeColor=inherit;overflow=hidden;fillColor=none;top=0;left=0;bottom=0;right=0;pointerEvents=1;fontSize=16;fontStyle=0;fontColor=light-dark(#000000,#EDEDED);" parent="Wti6Zjn5eSG-TVBrPJZ1-882" vertex="1">
          <mxGeometry x="30" width="30" height="28" as="geometry">
            <mxRectangle width="30" height="28" as="alternateBounds" />
          </mxGeometry>
        </mxCell>
        <mxCell id="Wti6Zjn5eSG-TVBrPJZ1-885" style="shape=tableRow;horizontal=0;startSize=0;swimlaneHead=0;swimlaneBody=0;strokeColor=inherit;top=0;left=0;bottom=0;right=0;collapsible=0;dropTarget=0;fillColor=none;points=[[0,0.5],[1,0.5]];portConstraint=eastwest;fontSize=16;" parent="Wti6Zjn5eSG-TVBrPJZ1-872" vertex="1">
          <mxGeometry y="106" width="60" height="26" as="geometry" />
        </mxCell>
        <mxCell id="Wti6Zjn5eSG-TVBrPJZ1-886" value="4" style="shape=partialRectangle;html=1;whiteSpace=wrap;connectable=0;strokeColor=inherit;overflow=hidden;fillColor=none;top=0;left=0;bottom=0;right=0;pointerEvents=1;fontSize=16;" parent="Wti6Zjn5eSG-TVBrPJZ1-885" vertex="1">
          <mxGeometry width="30" height="26" as="geometry">
            <mxRectangle width="30" height="26" as="alternateBounds" />
          </mxGeometry>
        </mxCell>
        <mxCell id="Wti6Zjn5eSG-TVBrPJZ1-887" value="5" style="shape=partialRectangle;html=1;whiteSpace=wrap;connectable=0;strokeColor=inherit;overflow=hidden;fillColor=none;top=0;left=0;bottom=0;right=0;pointerEvents=1;fontSize=16;" parent="Wti6Zjn5eSG-TVBrPJZ1-885" vertex="1">
          <mxGeometry x="30" width="30" height="26" as="geometry">
            <mxRectangle width="30" height="26" as="alternateBounds" />
          </mxGeometry>
        </mxCell>
        <mxCell id="Wti6Zjn5eSG-TVBrPJZ1-888" value="" style="shape=tableRow;horizontal=0;startSize=0;swimlaneHead=0;swimlaneBody=0;strokeColor=inherit;top=0;left=0;bottom=0;right=0;collapsible=0;dropTarget=0;fillColor=none;points=[[0,0.5],[1,0.5]];portConstraint=eastwest;fontSize=16;" parent="Wti6Zjn5eSG-TVBrPJZ1-872" vertex="1">
          <mxGeometry y="132" width="60" height="26" as="geometry" />
        </mxCell>
        <mxCell id="Wti6Zjn5eSG-TVBrPJZ1-889" value="4" style="shape=partialRectangle;html=1;whiteSpace=wrap;connectable=0;strokeColor=inherit;overflow=hidden;fillColor=none;top=0;left=0;bottom=0;right=0;pointerEvents=1;fontSize=16;" parent="Wti6Zjn5eSG-TVBrPJZ1-888" vertex="1">
          <mxGeometry width="30" height="26" as="geometry">
            <mxRectangle width="30" height="26" as="alternateBounds" />
          </mxGeometry>
        </mxCell>
        <mxCell id="Wti6Zjn5eSG-TVBrPJZ1-890" value="6" style="shape=partialRectangle;html=1;whiteSpace=wrap;connectable=0;strokeColor=inherit;overflow=hidden;fillColor=none;top=0;left=0;bottom=0;right=0;pointerEvents=1;fontSize=16;" parent="Wti6Zjn5eSG-TVBrPJZ1-888" vertex="1">
          <mxGeometry x="30" width="30" height="26" as="geometry">
            <mxRectangle width="30" height="26" as="alternateBounds" />
          </mxGeometry>
        </mxCell>
        <mxCell id="Wti6Zjn5eSG-TVBrPJZ1-891" value="Empty&lt;div&gt;&lt;span style=&quot;font-size: 16px;&quot;&gt;TC&lt;/span&gt;&lt;span style=&quot;font-size: 11.1111px;&quot;&gt;Delta&lt;/span&gt;&lt;/div&gt;" style="rounded=1;whiteSpace=wrap;html=1;" parent="1" vertex="1">
          <mxGeometry x="1084.76" y="1407" width="57" height="40" as="geometry" />
        </mxCell>
        <mxCell id="Wti6Zjn5eSG-TVBrPJZ1-894" value="" style="shape=singleArrow;whiteSpace=wrap;html=1;" parent="1" vertex="1">
          <mxGeometry x="932.0600000000001" y="1075" width="20" height="12" as="geometry" />
        </mxCell>
        <mxCell id="Wti6Zjn5eSG-TVBrPJZ1-895" value="" style="shape=singleArrow;whiteSpace=wrap;html=1;" parent="1" vertex="1">
          <mxGeometry x="1043.57" y="1075" width="20" height="12" as="geometry" />
        </mxCell>
        <mxCell id="Wti6Zjn5eSG-TVBrPJZ1-896" value="" style="shape=singleArrow;whiteSpace=wrap;html=1;" parent="1" vertex="1">
          <mxGeometry x="1156.63" y="1075" width="20" height="12" as="geometry" />
        </mxCell>
        <mxCell id="Wti6Zjn5eSG-TVBrPJZ1-1294" value="" style="shape=singleArrow;whiteSpace=wrap;html=1;rotation=90;" parent="1" vertex="1">
          <mxGeometry x="1103.26" y="1454.13" width="20" height="12" as="geometry" />
        </mxCell>
        <mxCell id="Wti6Zjn5eSG-TVBrPJZ1-1296" value="End" style="strokeWidth=2;html=1;shape=mxgraph.flowchart.terminator;whiteSpace=wrap;" parent="1" vertex="1">
          <mxGeometry x="1081" y="1474" width="68" height="40" as="geometry" />
        </mxCell>
      </root>
    </mxGraphModel>
  </diagram>
</mxfile>
